<?xml version="1.0" encoding="utf-8"?>
<!-- Generator: Adobe Illustrator 23.1.0, SVG Export Plug-In . SVG Version: 6.00 Build 0)  -->
<svg version="1.1" id="Calque_1" xmlns="http://www.w3.org/2000/svg" xmlns:xlink="http://www.w3.org/1999/xlink" x="0px" y="0px"
	 viewBox="0 0 558 328" style="enable-background:new 0 0 558 328;" xml:space="preserve">
<style type="text/css">
	.st0{fill:#F4CA18;}
</style>
<g>
	<path class="st0" d="M291.43,310.66c59.96,0,119.93-0.04,179.89,0.02c24.54,0.02,44.6-8.22,59.14-29.04
		c16.3-23.34,20.38-48.14,9.37-74.25c-11.16-26.46-31.91-41.58-60.64-44.94c-6.56-0.77-9.51-3.27-10.67-9.99
		C458.9,96.66,405.85,59.36,349.71,69c-8.83,1.52-14.24-0.07-19.47-8.15c-20.56-31.78-50.8-48.59-88.24-49.98
		c-60.53-2.25-108.04,40.82-114.26,101.69c-1.13,11.09-1.89,11.52-12.94,10.26c-60.22-6.87-115.11,44.3-100.43,112.54
		c9.29,43.2,51.11,75.18,95.42,75.28C170.34,310.76,230.88,310.66,291.43,310.66z"/>
	<path class="st0" d="M291.43,310.66c-60.55,0-121.09,0.1-181.64-0.03c-44.31-0.1-86.13-32.08-95.42-75.28
		c-14.68-68.25,40.2-119.41,100.43-112.54c11.05,1.26,11.81,0.83,12.94-10.26C133.95,51.68,181.47,8.61,242,10.86
		c37.44,1.39,67.68,18.2,88.24,49.98c5.23,8.08,10.63,9.67,19.47,8.15c56.15-9.64,109.19,27.66,118.81,83.47
		c1.16,6.72,4.11,9.23,10.67,9.99c28.74,3.36,49.48,18.48,60.64,44.94c11.01,26.11,6.93,50.91-9.37,74.25
		c-14.54,20.82-34.6,29.06-59.14,29.04C411.36,310.63,351.39,310.66,291.43,310.66z"/>
</g>
</svg>
