<?xml version="1.0" encoding="utf-8"?>
<!-- Generator: Adobe Illustrator 24.0.0, SVG Export Plug-In . SVG Version: 6.00 Build 0)  -->
<svg version="1.1" id="Calque_1" xmlns="http://www.w3.org/2000/svg" xmlns:xlink="http://www.w3.org/1999/xlink" x="0px" y="0px"
	 viewBox="0 0 281 219" style="enable-background:new 0 0 281 219;" xml:space="preserve">
<style type="text/css">
	.st0{fill:#F4CA18;}
</style>
<g>
	<path class="st0" d="M145.59,36.89c0.92,7.02,1.16,14.52,0.74,22.49c-0.43,7.97-1.34,15.1-2.74,21.4
		c-2.89,13-7.42,24.08-13.58,33.25c-6.17,9.17-14.69,17.97-25.55,26.41c-10.86,8.44-26.77,18.39-47.71,29.86l-14.09-21.73
		C54.9,139.1,64.6,128.91,71.78,118c7.17-10.91,12.67-24.93,16.47-42.07c1.31-5.91,2.42-12.28,3.31-19.1
		c0.9-6.82,1.67-17.3,2.33-31.41L145.59,36.89z"/>
	<path class="st0" d="M227.15,55c0.92,7.02,1.16,14.52,0.74,22.49c-0.43,7.97-1.34,15.1-2.74,21.4c-2.89,13-7.42,24.08-13.58,33.25
		c-6.17,9.17-14.69,17.97-25.55,26.41c-10.86,8.44-26.77,18.39-47.71,29.86l-14.09-21.73c12.23-9.48,21.93-19.67,29.11-30.58
		c7.17-10.91,12.67-24.93,16.47-42.07c1.31-5.91,2.42-12.28,3.31-19.1c0.9-6.82,1.67-17.3,2.33-31.41L227.15,55z"/>
</g>
</svg>
