<?xml version="1.0" encoding="utf-8"?>
<!-- Generator: Adobe Illustrator 24.0.0, SVG Export Plug-In . SVG Version: 6.00 Build 0)  -->
<svg version="1.1" id="Capa_1" xmlns="http://www.w3.org/2000/svg" xmlns:xlink="http://www.w3.org/1999/xlink" x="0px" y="0px"
	 viewBox="0 0 29.9 29.9" style="enable-background:new 0 0 29.9 29.9;" xml:space="preserve">
<style type="text/css">
	.st0{fill:#F4CA18;}
</style>
<g>
	<g>
		<path class="st0" d="M28.4,14.7c-0.5,0-0.9,0.2-1.2,0.6c-1.6-1.1-5-3-8-0.3c0,0-3-4.2-1-7.6c0.2,0.2,0.5,0.3,0.9,0.3
			c0.8,0,1.5-0.7,1.5-1.5S20,4.7,19.2,4.7c-0.8,0-1.5,0.7-1.5,1.5c0,0.2,0,0.3,0.1,0.5c-2.1,0.8-5.8,2.9-6.4,7.3
			c0,0-3.4-4.5-8.6-1.6C2.5,12,2,11.7,1.5,11.7c-0.8,0-1.5,0.7-1.5,1.5s0.7,1.5,1.5,1.5C2.3,14.7,3,14,3,13.2c0,0,0-0.1,0-0.1
			c1.8,0.1,4.7,1.7,5.5,10.2l0.1,0.7c0,0.7,2.9,1.3,6.4,1.3c3.5,0,6.4-0.6,6.4-1.3c0,0,0.2-5.8,5.6-7.6c0,0.8,0.7,1.4,1.5,1.4
			c0.8,0,1.5-0.7,1.5-1.5C29.9,15.4,29.2,14.7,28.4,14.7z"/>
	</g>
</g>
</svg>
