<?xml version="1.0" encoding="utf-8"?>
<!-- Generator: Adobe Illustrator 24.0.0, SVG Export Plug-In . SVG Version: 6.00 Build 0)  -->
<svg version="1.1" id="Layer_1" xmlns="http://www.w3.org/2000/svg" xmlns:xlink="http://www.w3.org/1999/xlink" x="0px" y="0px"
	 viewBox="0 0 512 512" style="enable-background:new 0 0 512 512;" xml:space="preserve">
<style type="text/css">
	.st0{fill:#F4CA18;}
</style>
<g>
	<path class="st0" d="M365.5,189.4C365.5,129.1,316.4,80,256,80c-60.4,0-109.5,49.1-109.5,109.5c0,60.4,49.1,109.5,109.5,109.5
		C316.4,298.9,365.5,249.8,365.5,189.4z M256,268.9c-43.8,0-79.5-35.6-79.5-79.5c0-43.8,35.6-79.5,79.5-79.5
		c43.8,0,79.5,35.6,79.5,79.5C335.5,233.2,299.8,268.9,256,268.9z"/>
	<path class="st0" d="M383.5,299.6l36.6-15.5l-6.4-52.5l31.8-42.2l-31.8-42.2l6.4-52.5L371.4,74l-20.7-48.7l-52.5,6.4L256,0
		l-42.2,31.8l-52.5-6.4L140.6,74L92,94.7l6.4,52.5l-31.8,42.2l31.8,42.2L92,284.1l36.6,15.5L48.9,462.2l60.6,4.6l41,45.2l76.2-155.2
		l29.3,22.1l29.3-22.1L361.5,512l41-45.2l60.6-4.6L383.5,299.6z M143,459.1l-19.4-21.3l-28.4-2.2l54-110.3l11.9,28.1l35.8-4.4
		L143,459.1z M222.1,315.8l-42.1,5.2l-16.6-39l-39-16.6l5.2-42.1l-25.5-33.9l25.5-33.9l-5.2-42.1l39-16.6l16.6-39l42.1,5.2L256,37.5
		l33.9,25.5l42.1-5.2l16.6,39l39,16.6l-5.2,42.1l25.5,33.9l-25.5,33.9l5.2,42.1l-39,16.6l-16.6,39l-42.1-5.2L256,341.3L222.1,315.8z
		 M388.3,437.8L369,459.1l-54-110.1l35.8,4.4l11.9-28.1l54,110.3L388.3,437.8z"/>
	<path class="st0" d="M241,153.7h30v71.4h-30L241,153.7z"/>
</g>
</svg>
