<?xml version="1.0" encoding="utf-8"?>
<!-- Generator: Adobe Illustrator 24.0.0, SVG Export Plug-In . SVG Version: 6.00 Build 0)  -->
<svg version="1.1" id="Calque_1" xmlns="http://www.w3.org/2000/svg" xmlns:xlink="http://www.w3.org/1999/xlink" x="0px" y="0px"
	 viewBox="0 0 512 512" style="enable-background:new 0 0 512 512;" xml:space="preserve">
<style type="text/css">
	.st0{fill:#F4CA18;}
</style>
<path class="st0" d="M511.9,0L408.7,40.8l-9.1-32.2l-158.2,94.5l-0.1,0.1C137.6,165.4,72.8,206.3,48.2,230.9
	c-64.2,64.2-64.2,168.7,0,232.9c31.1,31.1,72.5,48.2,116.4,48.2c44,0,85.3-17.1,116.4-48.2c22.5-22.4,59.8-78.1,128.8-192.1
	l93.2-159.5l-32-9L511.9,0z M246.7,429.5c-21.9,21.9-51.1,34-82.1,34c-31,0-60.2-12.1-82.1-34c-21.9-21.9-34-51.1-34-82.1
	c0-31,12.1-60.2,34-82.1c21.9-21.9,51.1-34,82.1-34c31,0,60.2,12.1,82.1,34s34,51.1,34,82.1S268.7,407.5,246.7,429.5z"/>
<path class="st0" d="M164.6,326.3c-5.6,0-10.9,2.2-14.9,6.2s-6.2,9.2-6.2,14.9c0,5.6,2.2,10.9,6.2,14.9s9.3,6.2,14.9,6.2
	s10.9-2.2,14.9-6.2c4-4,6.2-9.2,6.2-14.9c0-5.6-2.2-10.9-6.2-14.9C175.5,328.5,170.2,326.3,164.6,326.3z"/>
<path class="st0" d="M164.6,261.2c-23,0-44.6,9-60.9,25.2c-16.3,16.3-25.2,37.9-25.2,60.9c0,23,9,44.6,25.2,60.9
	s37.9,25.2,60.9,25.2c23,0,44.6-9,60.9-25.2c16.3-16.3,25.2-37.9,25.2-60.9c0-23-9-44.6-25.2-60.9
	C209.2,270.2,187.6,261.2,164.6,261.2z M200.7,383.5c-9.6,9.6-22.5,15-36.1,15s-26.5-5.3-36.1-15c-9.7-9.7-15-22.5-15-36.1
	c0-13.6,5.3-26.5,15-36.1c9.6-9.6,22.5-15,36.1-15s26.5,5.3,36.1,15c9.7,9.7,15,22.5,15,36.1C215.7,361,210.4,373.8,200.7,383.5z"/>
</svg>
