<?xml version="1.0" encoding="utf-8"?>
<!-- Generator: Adobe Illustrator 24.0.0, SVG Export Plug-In . SVG Version: 6.00 Build 0)  -->
<svg version="1.1" id="Calque_1" xmlns="http://www.w3.org/2000/svg" xmlns:xlink="http://www.w3.org/1999/xlink" x="0px" y="0px"
	 viewBox="0 0 640 640" style="enable-background:new 0 0 640 640;" xml:space="preserve">
<style type="text/css">
	.st0{fill:#F4CA18;}
</style>
<path class="st0" d="M320,142c5.5,0,10-4.5,10-10V72c0-5.5-4.5-10-10-10s-10,4.5-10,10v60C310,137.5,314.5,142,320,142z"/>
<path class="st0" d="M222.7,153.3c2.1,5.1,8,7.5,13.1,5.4c5.1-2.1,7.5-8,5.4-13.1l-15.3-37c-2.2-4.9-7.9-7.2-12.9-5.1
	s-7.4,7.7-5.5,12.8L222.7,153.3z"/>
<path class="st0" d="M66.7,267.9l37,15.3c1.2,0.5,2.5,0.8,3.8,0.8c4.8,0,8.9-3.4,9.8-8.1c0.9-4.7-1.6-9.4-6-11.2l-37-15.3
	c-5.1-2.1-10.9,0.3-13.1,5.4C59.2,260,61.7,265.8,66.7,267.9L66.7,267.9z"/>
<path class="st0" d="M523.3,277.8c1.6,3.7,5.2,6.2,9.3,6.2c1.3,0,2.6-0.3,3.8-0.8l37-15.3c5.1-2.1,7.5-8,5.4-13.1
	c-2.1-5.1-8-7.5-13.1-5.4l-36.9,15.3c-2.5,1-4.4,2.9-5.4,5.4C522.2,272.6,522.2,275.4,523.3,277.8z"/>
<path class="st0" d="M404.2,158.8c5.1,2.1,11-0.3,13.1-5.4l15.3-37c1.9-5.1-0.5-10.7-5.5-12.8s-10.7,0.2-12.9,5.1l-15.3,37
	C396.7,150.8,399.1,156.6,404.2,158.8z"/>
<path class="st0" d="M150.3,206.4c3.9,3.8,10.2,3.7,14-0.1c3.9-3.9,3.9-10.1,0.1-14L122,149.9c-2.5-2.7-6.3-3.8-9.8-2.9
	c-3.6,0.9-6.3,3.7-7.2,7.2c-0.9,3.6,0.2,7.3,2.9,9.8L150.3,206.4z"/>
<path class="st0" d="M30,372h60c5.5,0,10-4.5,10-10s-4.5-10-10-10H30c-5.5,0-10,4.5-10,10S24.5,372,30,372z"/>
<path class="st0" d="M540,362c0,5.5,4.5,10,10,10h60c5.5,0,10-4.5,10-10s-4.5-10-10-10h-60C544.5,352,540,356.5,540,362z"/>
<path class="st0" d="M482.6,209.4c2.7,0,5.2-1.1,7.1-2.9l42.4-42.4c2.7-2.5,3.8-6.3,2.9-9.8c-0.9-3.6-3.7-6.3-7.2-7.2
	c-3.6-0.9-7.3,0.2-9.8,2.9l-42.4,42.4c-2.9,2.9-3.7,7.2-2.2,10.9S478.6,209.4,482.6,209.4L482.6,209.4z"/>
<path class="st0" d="M550,472H90c-5.5,0-10,4.5-10,10s4.5,10,10,10h460c5.5,0,10-4.5,10-10S555.5,472,550,472z"/>
<path class="st0" d="M500,512H140c-5.5,0-10,4.5-10,10s4.5,10,10,10h360c5.5,0,10-4.5,10-10S505.5,512,500,512z"/>
<path class="st0" d="M440,552H200c-5.5,0-10,4.5-10,10s4.5,10,10,10h240c5.5,0,10-4.5,10-10S445.5,552,440,552z"/>
<path class="st0" d="M610,432H496.6c31.4-79.3,6.2-169.8-61.8-221.3c-67.9-51.6-161.9-51.6-229.8,0c-67.9,51.6-93.2,142-61.8,221.3
	H30c-5.5,0-10,4.5-10,10s4.5,10,10,10h580c5.5,0,10-4.5,10-10S615.5,432,610,432z"/>
</svg>
