<?xml version="1.0" encoding="utf-8"?>
<!-- Generator: Adobe Illustrator 23.1.0, SVG Export Plug-In . SVG Version: 6.00 Build 0)  -->
<svg version="1.1" id="Calque_1" xmlns="http://www.w3.org/2000/svg" xmlns:xlink="http://www.w3.org/1999/xlink" x="0px" y="0px"
	 viewBox="0 0 392.88 107.05" style="enable-background:new 0 0 392.88 107.05;" xml:space="preserve">
<style type="text/css">
	.st0{fill:#FEFEFE;}
</style>
<g>
	<path class="st0" d="M55,15.04"/>
	<g>
		<path class="st0" d="M361.36,23.49h-9.86l-24.41,49.09l8.15,13.38l6.41-13.81h29.85l6.98,14.74h14.4L361.36,23.49z M346.26,62.22
			l10.16-21.88l10.36,21.88H346.26z"/>
	</g>
	<path class="st0" d="M133.23,84.78c-3.94-1.85-6.94-4.54-9-8.07c-2.06-3.53-3.08-8.78-3.08-13.76V23.49h13.62v39.77
		c0,3.63,1.11,6.45,3.33,8.46c2.22,2.01,5.35,4.01,9.4,4.01c4.08,0,7.23-2,9.47-4.01c2.24-2.01,3.36-4.83,3.36-8.46V23.49h13.62
		v39.47c0,4.97-1.04,10.22-3.11,13.76s-5.09,6.22-9.05,8.07c-3.96,1.85-8.72,2.77-14.29,2.77S137.17,86.62,133.23,84.78z"/>
	<path class="st0" d="M219.45,86.89h15.2l-16.42-26.97c0.64-0.26,1.26-0.56,1.86-0.89c2.79-1.57,4.95-3.79,6.48-6.65
		c1.53-2.86,2.29-6.19,2.29-9.96c0-3.78-0.76-7.1-2.29-9.96c-1.53-2.86-3.68-5.08-6.46-6.65c-2.78-1.57-6-2.35-9.66-2.35h-16.62
		h-7.56h-4.99v63.45h12.55V61.38h10.61L219.45,86.89z M193.83,34.95h15.61c1.31,0,2.46,0.31,3.44,0.92
		c0.98,0.61,1.73,1.48,2.27,2.62c0.53,1.13,0.8,2.44,0.8,3.92c-0.03,1.48-0.31,2.79-0.85,3.92c-0.54,1.13-1.29,2.01-2.27,2.62
		c-0.98,0.61-2.11,0.92-3.39,0.92h-15.61V34.95z"/>
	<polygon class="st0" points="274.31,35 274.31,23.49 250.37,23.49 240.88,23.49 237.21,23.49 237.21,86.89 240.88,86.89 
		250.37,86.89 274.31,86.89 274.31,75.38 250.37,75.38 250.37,61.16 271.24,61.16 271.24,49.65 250.37,49.65 250.37,35 	"/>
	<path class="st0" d="M318.6,86.89h15.2l-16.42-26.97c0.64-0.26,1.26-0.56,1.86-0.89c2.79-1.57,4.95-3.79,6.48-6.65
		c1.53-2.86,2.29-6.19,2.29-9.96c0-3.78-0.76-7.1-2.29-9.96c-1.53-2.86-3.68-5.08-6.46-6.65c-2.78-1.57-6-2.35-9.66-2.35h-16.62
		h-7.55h-4.99v63.45h12.55V61.38h10.61L318.6,86.89z M292.98,34.95h15.61c1.31,0,2.46,0.31,3.43,0.92c0.98,0.61,1.73,1.48,2.27,2.62
		c0.53,1.13,0.8,2.44,0.8,3.92c-0.03,1.48-0.31,2.79-0.85,3.92c-0.54,1.13-1.29,2.01-2.27,2.62c-0.98,0.61-2.11,0.92-3.39,0.92
		h-15.61V34.95z"/>
	<path class="st0" d="M0,0v107.05h114.49V0H0z M44.49,68.86l-9.56,18.53L14.45,99.93c0,0-1.5,0.92-2.86,1.75
		c-1.36,0.83,1.24-3.68,1.24-3.68l34.62-67.77c0,0,1.32,2.16-0.54,6.04s-9.28,18.86-9.28,18.86l24.69,0.14l6.74,13.58H44.49z
		 M83.66,87.39c0,0-22.42-43.45-24.06-46.63s-2.31-3.75-2.31-5.47c0-1.72,0-6.09,0-6.09V12.57h1.54c0,0,1.41,0,2.46,0
		s2.8,3.68,2.8,3.68l36.26,71.14H83.66z"/>
</g>
</svg>
