<?xml version="1.0" encoding="utf-8"?>
<!-- Generator: Adobe Illustrator 24.0.0, SVG Export Plug-In . SVG Version: 6.00 Build 0)  -->
<svg version="1.1" id="Calque_1" xmlns="http://www.w3.org/2000/svg" xmlns:xlink="http://www.w3.org/1999/xlink" x="0px" y="0px"
	 viewBox="0 0 493 504" style="enable-background:new 0 0 493 504;" xml:space="preserve">
<style type="text/css">
	.st0{fill:#FFFFFF;}
	.st1{opacity:0.49;}
	.st2{fill:#F1BF19;}
</style>
<g id="carte">
	<g>
		<path class="st0" d="M2.5,143.2c0-1.1,0-2.1,0-3.2c1.4-0.6,0.6-1.8,0.9-2.8c0.4-1.8,0.2-4,1.9-5.1c3.5-2.4,7.2-4.7,11.6-5
			c3.6-0.2,7.1-0.6,10.6-1.5c1.9-0.4,3.9-0.7,5.2,1.6c0.4,0.8,1.7,1.3,2.4,0.4c1.6-2.2,3.5-1.3,5.4-0.8c1.1,0.3,2.5,1.1,3.4,0.7
			c1.2-0.5,0.5-2.2,0.6-3.3c0.4-2.7,2-3.8,4.8-3c1.5,0.5,2.8,0.5,4.2-0.3c0.8-0.4,1.7-0.8,2.6-0.9c4.1-0.4,6.2-0.6,8.5,3.3
			c2.2,3.6,5.1,6.7,6.5,10.9c0.9,2.7,3.3,3.2,5.9,1.8c0.7-0.4,1.3-0.9,1.9-1.4c2.1-1.8,4.6-2.5,7.1-3.5c0.9-0.3,1.9-0.4,2.3,0.9
			c0.5,1.4,1.7,1.6,2.9,1.6c2.6,0.1,5.1-0.3,7-2.3c0.8-0.9,1.8-1,2.9-1c2.1,0,2.1-0.1,1.9,2.3c-0.2,1.5,0.3,2.2,1.9,2.5
			c0.8,0.1,1.6,0.2,2.4,0c2.6-0.7,5.2-0.8,7.9-0.8c0.4,0,0.9-0.1,1.1-0.4c0.3-0.6-0.1-0.9-0.6-1.2c-3.2-2.5-4.6-5.5-3.3-9.8
			c0.8-2.6,0.5-5.6-0.2-8.3c-0.4-1.5-0.5-2.9-0.4-4.3c0.4-5.2-2-9.2-5.4-12.7c-0.5-0.5-1-0.8-1-1.5c0.1-1.6-0.6-2.9-1.2-4.2
			c-0.5-1-0.7-2.2-0.4-3.1c1.1-2.9,1.3-5.4-2.1-7c-0.7-0.3-0.6-1.5-0.1-2.2c0.6-0.9,1.4-0.4,2.1,0c2.2,1.2,4.6,2,7,2.8
			c2.6,0.9,5,1,7.1-0.9c1.3-1.1,2.7-1.1,4.2-0.8c3,0.6,4.5,4,2.5,6c-1.8,1.7-1.1,2.9-0.3,4.5c1.1,2.1,3.1,3.7,3,6.4
			c0,0.8,0.6,0.5,1.1,0.3c2.5-0.9,5.2-1.9,7.7-0.5c3.2,1.8,6.6,1.8,10,2c3.1,0.2,6.4,0.1,9.2,1.9c3.1,1.9,6.4,1.7,9.5,0
			c3.2-1.8,5.9-4.6,9.7-5.4c0.2,0,0.3-0.3,0.4-0.4c-0.2-0.1-0.5-0.2-0.7-0.3c-0.8-0.2-1.6-0.3-2.3-0.5c-2.8-0.8-3.8-2-2.9-4.6
			c1.1-3.4,2.6-7,5.7-8.9c5.7-3.3,11.2-7.3,18.1-8c2-0.2,3.9-0.7,5.8-1.2c7.7-2,14-5.8,17.5-13.2c0.3-0.6,0.5-1.5,1.1-1.6
			c2.8-0.3,1.6-1.6,1-3c-0.7-1.6-0.5-3.5-0.2-5.1c1-4.8,0.9-9.5,0-14.2c-0.2-1-0.3-2.2,0.1-3.2c0.7-1.8,0.6-3.7,0.6-5.5
			c0-0.6-0.4-1.5,0.2-1.9c2.7-1.6,4.2-4.9,7.8-5.3c1.4-0.2,2.8-0.8,4.2-1.2c3.9-1.2,7.9-2.4,12-2.7c2.2-0.2,4.1-0.7,5.5-2.5
			c0.5,0,1.1,0,1.6,0c-0.2,0.7,0.4,1.2,0.5,1.8c0.8,2.6,4,4.6,2.1,8c-0.1,0.1,0.2,0.5,0.3,0.7c1.6,3.3,4,6,6.7,8.3
			c1,0.9,2.2,0.9,3.2-0.1c0.9-1,1.9-1.8,3.2-2.3c0.9-0.3,1.8-0.5,2.7-0.1c2.8,1.4,4.8,3.3,5,6.6c0.1,1.1,0.1,2.1,0.2,3.2
			c0.5,4,1.6,4.7,5.5,3.9c0.4-0.1,0.8-0.3,1.2-0.3c3.8-0.3,6,1.7,6.1,5.5c0,0.7,0,1.3,0,2c0.1,2.3,0.4,2.5,2.6,1.5
			c4.4-2,10.4-1,13.6,2.5c1.7,1.8,1.7,1.9,0.5,4.1c-0.4,0.7-1,1.4-0.2,2.1c2.1,1.9,1.2,3.8,0.3,5.8c-1.2,2.6-0.3,4.1,2.5,4.3
			c2.3,0.2,4.5,0.2,6.8,0.2c4.1,0,6.8-2.2,7.8-6.4c0.5-2.1,2-3,3.6-4c0.7-0.4,1.6-0.1,2.2,0.5s0.4,1.1,0,1.8c-0.6,1-1.1,2.1-1.5,3.2
			c-0.6,1.5-1.1,3.3,0.1,4.6c1.3,1.4,1.2,2.9,1,4.4c-0.1,1.2,0.4,2.1,1.5,2.6c0.7,0.3,1.4,0.8,2.2,1c4.6,1,8.2,3.7,11.8,6.4
			c1.7,1.3,3.4,2.4,4.5,4.4c2,3.4,2.9,3.6,6.4,1.9c2.4-1.2,4.6-1,6.8,0.1c1.1,0.5,2.2,1.1,3.2,1.7c2.4,1.5,4.7,1.8,6.8-0.6
			c0.6-0.6,1.3-1.1,2.1-0.6c2.4,1.2,5.1,1.4,7.6,2.2c2,0.6,4.1,1.7,4.5,3.6c0.8,3.6,3.9,5.4,5.5,8.2c0.7,1.3,1.9,1.5,3.1,0.6
			c2.5-1.9,4.4-1.3,6.6,0.9c4,3.9,7.6,3.3,11.1,0.6c2.1-1.6,2.9-1.6,4.8,0.3c2.9,2.9,6.4,4.2,10.4,4.3c4,0,7.9,0.9,11.7,2.2
			c2.2,0.8,2.5,1.1,1.6,3c-2.5,5.1-5,10.3-9.4,14.2c-1,0.9-2,1.9-2.2,3.2c-0.6,3.5-1.4,7.1-1.6,10.6c-0.2,4.5-1.3,8.6-3.7,12.4
			c-1.4,2.2-1.9,4.3-0.2,6.7c1.3,1.8,1.4,3.9,0.6,6.1c-0.6,1.5-1.1,3-1.3,4.6c-0.5,2.9-0.6,5.8,0.9,8.5c1.8,3.1,1.6,4.6-0.8,7.1
			c-1.7,1.8-3.6,3-6.1,3.5c-2.2,0.5-3.8,0.3-5.4-1.3c-2.1-2-3.9-1.9-5.9,0.1c-0.8,0.9-1.5,1.9-2.2,2.9c-0.4,0.6-1.2,1.2-0.6,2.1
			c0.5,0.8,1.2,0.9,2.1,0.8c2.4-0.3,2.2-0.3,1.7,1.8c-0.3,1.2-1.1,2.2-1.9,3c-2.6,2.3-4.2,5.5-6.9,7.7c-0.9,0.8-1.6,1.9-1.7,3.1
			c-0.2,2.9-1.9,4.2-4.5,4.7c-1.2,0.2-2.3,0.7-3.2,1.5c-2,1.5-2.1,3.6-1.8,5.8c0.4,3.3-0.6,5.7-3.7,7.1c-2.5,1.1-3.8,3.2-4.7,5.7
			c-0.5,1.4-0.7,2.9-1.4,4.1c-0.9,1.8-0.9,3.2,0.5,4.7c1.9,2,0.7,4.3,0.2,6.5c-0.3,1.6-1.8,2.2-3.4,2.3c-1.5,0.1-1.4,1.3-1.4,2.4
			c0,1.2,0.7,1.6,1.8,1.7c3.8,0.4,7-2.3,7.3-6.2c0.1-1.5-0.1-2.9-0.1-4.4c0-1.3,0.6-2.2,1.8-2.3c2.8-0.3,5.2-1.9,7.8-2.8
			c2.9-1,5.8-1,8.5,0.5c0.7,0.4,1.4,1,0.9,1.9c-1,1.6-0.1,2.7,0.8,3.9c0.5,0.7,1.4,1.4,0.8,2.5c-1.2,2.3,0,4.3,0.8,6.4
			c0.9,2.4,2.7,3.9,4.4,5.5c3.9,3.7,2.9,7.6-2.2,9.2c-2.6,0.8-3.3,2.3-2.4,4.9c0.5,1.3,1.2,2.5,2.5,3c2.7,0.8,3.6,3,4.2,5.3
			c0.5,2.3,1.7,4.1,3.7,5.4c0.9,0.6,1.6,1.5,2.5,2c1.3,0.7,1.4,1.6,0.6,2.6c-1.2,1.7-2.1,3.4-1.8,5.5c0.2,1.4-0.7,2.2-2,2.6
			c-1.2,0.3-2.4,0.6-3.2,1.6c-1.8,2.2-4,3-6.7,2.4c-0.3-0.1-0.5,0-0.8,0c-1.5,0-2.5,0.9-3.2,2.1c-0.8,1.4,0.2,2.3,1.1,3.1
			c1.4,1.2,2.2,2.6,2.6,4.3c0.9,3.6,2.7,4.8,6.6,4.5c2.1-0.1,3.5,0.7,3.7,2.7c0.2,1.5,0.5,2.9,1.3,4.1c0.6,0.8,0.4,1.4-0.6,1.8
			c-3,0.9-4,3.2-4.6,6c-0.1,0.4-0.1,0.8-0.2,1.2c-1.8,7,1.3,13.5,7.9,16.3c2.7,1.1,5.4,2.2,8.1,3.2c2.2,0.9,4.4,0.9,6.6-0.2
			c1-0.5,1.9-1,2.9-1.4c0.7-0.3,1.6-0.4,2.3-0.1c2.2,1,3.3,5.8,1.8,7.6c-1.4,1.8-2.6,3.7-3.7,5.7c-1,1.7-1.4,3.5-0.5,5.3
			c0.6,1.2,0.3,1.9-0.6,2.8c-1,0.9-2.1,1.7-3.3,2.3c-2.3,1.1-4.5,2.2-6.8,3.3c-1.5,0.7-3,1.3-2.6,3.4c0.2,1-0.5,1.5-1.3,1.8
			c-2.1,0.7-3.4,2.5-4.9,4c-1.8,1.7-3,4.1-6,4c-0.6,0-1.3,0.9-1.9,1.4c-0.9,0.9-2,1.9-2.7,3c-0.5,0.8-4,2.3,0.3,2.7
			c0.4,0,0.5,0.6,0.4,1c-0.3,0.9-0.6,1.8-0.9,2.6c-0.5,1.3-1.2,1.8-2.8,2.1c-3,0.5-6.6,0.3-8.2,3.9c-0.4,0.8-1,0.6-1.7,0.3
			c-0.8-0.4-1.7-0.7-2.6-1c-1.3-0.3-2.6,0.5-2.9,1.9c-0.1,0.5-0.1,1.1-0.1,1.6c-0.2,1.1-1,1.1-1.8,1c-1.2-0.1-0.7-0.7-0.4-1.3
			c0.2-0.4,0.1-0.9-0.4-0.9c-2.7-0.2-5.6-2.2-8.1,0.7c-1.2,1.4-2.2,1.1-3.3-0.2c-1.2-1.4-2.3-3.1-4.1-3.7c-2.7-1-5.6-1.7-8.4-2.4
			c-1-0.3-2.3,0.2-3.1-0.3c-1.5-0.9,0.3-2,0.2-3.2c-0.2-3.1-1.2-4.1-4-2.9c-3.6,1.4-6.5,0.8-9-2.1c-0.3-0.4-0.7-0.8-1-1.2
			c-0.7-0.9-1.5-0.9-2.4-0.4s-1.4,0.9-0.8,2.1c0.5,1.2-0.4,2.4-1.4,2c-2.7-1.1-5.6-0.3-8.3-0.6c-1.6-0.2-1.9-0.6-1.6-2.4
			c0.3-2-0.6-3.5-2.2-3c-3.7,1.3-7.1-0.3-10.7-0.2c-1.9,0.1-2.9-0.8-3.5-2.6c-0.8-2.5-1.3-2.7-3.5-1.7c-0.7,0.3-1.4,0.8-2.1,1.2
			c-5.2,3.5-10.4,7-14.8,11.5c-1.3,1.3-2.6,2.1-4.6,1.3c-1.5-0.6-2.9,0.4-4.1,1.2c-2.9,2-5.1,4.6-6.9,7.6c-2.5,4.1-1.9,9.1-4.2,13.2
			c0,0,0.2,0.2,0.2,0.3c0.8,4,0.3,7.9,0.3,11.9c0,1.8,0.3,3.3,2,4c1,0.4,1.4,1.2,1.8,2c0.3,0.6,0.5,1.3,0,1.9
			c-0.5,0.5-0.9,0.1-1.4,0c-6.5-1.4-12.4-0.2-17.5,4c-1.8,1.5-4.4,1.7-6.7,0.4c-1.2-0.6-2.3-1.3-3.5-2c-3.4-2.2-6.6-1.5-9.7,0.6
			c-0.7,0.4-1.2,1.1-1.9,1.5c-0.3,0.2-0.7,0.4-1.1,0.3c-1.4-0.2-2.6-2.4-2.4-3.9c0.3-1.9,0.3-1.9-1.8-1.7c-0.9,0.1-1.5-0.1-2.3-0.4
			c-1.4-0.7-2.8-1.5-4.4-1.8c-1.2-0.2-0.9-0.9-0.5-1.7c1.5-2.5,1.5-2.4-0.7-3.9c-0.7-0.5-1.5-0.6-2.2-1c-1.9-0.9-3.9-0.6-5.9-0.6
			c-1.6,0-2.8-0.3-3.7-1.8c-1.2-2-3.4-2.8-5.6-2.2c-2.3,0.6-3.7,0.8-4.3-2.1c-0.3-1.3-1.6-2.1-3.1-2c-2.6,0.3-5-0.7-7.3-1.7
			c-1.4-0.6-2.8-0.8-4.3-0.8c-1.9,0-2.7,0.9-2.5,2.7c0.1,0.6,0.5,1.3,0.5,1.9c0,1.4-1,2.7-2.3,2.7c-4.6-0.2-9.4,0.9-13.8-1.3
			c-1.4-0.7-3-0.7-4.3,0c-4,2.4-7.1,1.4-9.7-2.1c-0.1-0.1-0.2-0.2-0.3-0.3c-3.4-3.4-7.3-4.5-12-2.9c-2.9,1-3,0.9-4.9-1.6
			c-0.5-0.7-1.1-1.1-1.8-1.6c-1.2-0.8-2.4-1.7-3-3.1c-0.6-1.3-1.5-1.7-2.8-1.8c-4.2-0.4-8-1.8-11.6-3.8c-0.7-0.4-1.5-0.6-2.2-0.9
			c-1.5-0.6-3-0.9-3.6-2.8c-0.3-0.8-1-0.5-1.4,0.3c-0.1,0.2-0.1,0.5-0.2,0.8c-0.2,1-0.7,1.8-1.8,1.8c-1.3,0-2.7-1.2-3.3-2.5
			c-0.5-1.2,0.3-1.8,1.1-2.2c2-1.1,2.7-2.8,2.6-5c0-0.9-0.3-1.5-1.2-1.8c-1-0.3-1.9-1-2.9-1.4c-1.6-0.7-2.7,1.5-4.1,0.8
			c-1.2-0.6-1.2-2.8-3.3-2.4c-0.1,0-0.3,0-0.4,0c-1.2-0.4-1.6-1.9-0.7-2.9c0.5-0.5,1.1-0.7,1.6-1.2c3.9-3.2,6.7-7.1,7.9-12.2
			c1.5-6.3,3.6-12.5,5.2-18.8c1.5-5.9,2.8-11.8,3.6-17.9c0.5-4.1,1.4-8.1,2.8-12c0.7-1.8,1.4-2.7,3.4-2.6c0.5,0,1.5,0.5,1.2-0.7
			c-0.2-0.7-0.9-1.1-1.6-1c-0.8,0.1-1.5,0.6-2.2,0.8c-1,0.2-1.6-0.2-1.6-1.2c0-0.7,0.1-1.3,0.2-2c0.9-6.3,1.9-12.6,2.8-18.9
			c0.7-5,1.6-10,2-15c0.2-2.4,1-4.3,2.4-6.2c0.4-0.4,0.6-0.9,1.2-0.8c0.5,0.1,1.1,0.6,1,1.1c-0.3,2.2,1.4,2.9,2.7,4
			c3.5,3.1,7,6.3,8,11.2c0,0.1,0,0.3,0.1,0.4c0.1,0.2,0.3,0.4,0.4,0.5c0.1-0.2,0.2-0.5,0.3-0.7c0.3-5.3-0.8-10-5.1-13.6
			c-3.7-3.2-7.2-6.7-11.6-9.1c-2.2-1.2-2.5-4.4-0.8-6.3c1-1.2,2.1-2.5,3.4-3.4c2.1-1.4,2.6-3.5,2.9-5.8c0.4-3.3-1.4-5.5-3.7-7.5
			c-1.7-1.5-1.7-2.4-0.3-4.1c0.8-0.9,1.7-1.7,2.5-2.6c0.3-0.3,0.6-0.7,0.3-1c-0.2-0.2-0.7-0.3-1.1-0.3c-0.5,0-1.1,0.1-1.5,0.3
			c-1.5,0.9-2.6,0.4-3.3-0.9c-0.8-1.5-2.1-1.8-3.7-1.9c-1.5-0.1-2.9-0.4-3.1-2.4c0-0.6-0.7-1.3-1.4-1.2c-3.5,0.2-5.6-2.2-8.1-3.9
			c-1.3-0.9-2.2-2-2.5-3.9c-0.3-2.3-1.5-4.5-2.9-6.5s-3.2-3.6-4.8-5.3c-1.1-1.2-2.3-2.4-2.5-4c-0.2-1.9-0.2-3.7-1.5-5.2
			c-0.1-0.1,0-0.5,0.2-0.7c0.3-0.4,0.7-0.3,1.1,0c0.2,0.2,0.4,0.3,0.6,0.5c1.6,1.7,1.6,1.7,3,0.3c0.4-0.4,0.8-0.7,1.1-1.2
			c2.1-2.9,1.5-5.2-1.8-6.6c-1.2-0.5-2.5-1-3.8-1.2c-1.6-0.3-0.9-0.9-0.2-1.3c1.5-0.9,2.2-2.2,2.1-4c-0.1-1-0.5-1.5-1.5-1.2
			c-1.1,0.4-2.2,1.2-3.4,0.4c-1.5-1-3-1.5-4.8-1.3c-1.6,0.1-2.6-0.8-2.3-2.4c0.3-1.9-0.6-3.9,1.4-5.9c1.9-1.9,0-4.6-2.9-4.4
			c-1.9,0.1-3.8-0.3-5.6,0.4c-1.7,0.7-2.8,0.1-3.8-1.2c-0.9-1.1-1.7-2.5-3.4-2.4c-3.5,0.1-6-1.8-8.1-4.3c-0.9-1-1.6-2.1-3-2.5
			c-3.3-0.8-6-2.8-8.8-4.6c-2-1.3-4.2-2.4-6.7-2.2c-1.9,0.1-3.1-0.7-4-2.2c-0.9-1.6-1.5-3.6-3.8-1.4c-0.2,0.2-1.2-0.3-1.9-0.4
			c-1.5-0.3-2.8-0.4-3.6,1.5c-0.4,1-1.5,1.7-2.6,1.4c-1.3-0.4-2.6-0.5-3.9-0.6c-0.8-0.1-1-0.6-0.7-1.4c0.4-1.1,1.6-1.9,1-3.3
			c-1.3-3-2.7-5.8-6.3-6.7c-1.5-0.4-2.9-1.2-4.5-1.5c-0.4-0.1-0.8-0.3-0.7-0.8c0-0.4,0.2-0.8,0.5-1c0.4-0.3,0.9-0.5,1.4-0.6
			c3.7-0.6,7.3-1.2,11.1-0.9c1.8,0.2,2.1-0.3,2.1-1.9c0-1.3-0.5-2.3-1.7-3c-1.8-1-3.5-1.2-5.3-0.1c-0.9,0.5-1.8,0.7-2-0.8
			c-0.1-0.5-0.2-1.1-0.5-1.5c-1.1-1-1.3-1.9,0-2.9c0.5-0.4,0.4-0.9,0-1.3c-0.9-0.8-1.8-1.8-3.1-1C4.9,143.5,3.7,143.2,2.5,143.2z"/>
		<path class="st0" d="M476.9,491.6c-0.1-0.9-1.3-0.8-1.6-1.6c-0.6-1.9-2.3-2.5-3.9-3.1c-1.7-0.6-3.5-1.2-5.3-1.7
			c-1.2-0.4-2.2-0.9-3.1-1.7c-1.8-1.6-1.8-3.2-0.1-4.8c0.4-0.4,0.9-0.5,1.3-0.9c0.9-0.7,0.7-2-0.3-2c-2-0.1-3.6-1.3-5.7-1.2
			c-1.3,0.1-1.6-0.8-0.8-1.8c1.5-1.8,2.5-3.7,3-6c0.4-1.6,0-2.1-1.4-1.7c-1,0.3-2,0.7-3.1,0.7c-0.8,0-1.8,0.4-2.1-0.6
			c-0.3-1.1-1-2.6,0.4-3.2c1.4-0.7,1.5-2.2,2.5-3c1.4-1.2,0.5-2-0.4-2.9c-0.6-0.6-1.4-0.6-2.2-0.9c-1.5-0.6-2.9-1.2-3-3.2
			c-0.1-1.9,0.1-3.6,2-4.4c1.4-0.6,0.9-1,0.3-1.9c-1-1.4-3.3-1.2-3.6-2.9c-0.3-1.7,2.3-2,2.8-3.6c0.3-1,0.9-1.9,1.3-2.9
			c1.2-3.7,3.7-6,7.2-7.5c1-0.4,1.9-1.1,2.9-1.3c2.2-0.4,3.8-1.6,5.2-3.3c2.5-2.9,3.1-3,6.9-1.4c1.9,0.8,2.3,0.6,2.5-1.4
			c0.1-0.7,0.2-1.4,0-2c-1.5-3.4,0-6.8,0-10.2c0-1,0.1-1.9,1.4-2c1.2-0.1,2.8-0.3,3,1.2c0.6,4.1,2.8,8,1.3,12.4
			c-0.9,2.6-0.4,5.3,2,7.2c0.9,0.7,1.1,1.7,1.2,2.8c0.8,5.6,1.6,11.2,2.5,16.9c0,0.2,0.4,0.3,0.6,0.4c0,1.3,0,2.7,0,4
			c-1.7,2-3.1,4.2-4.1,6.6c-1.2,2.8-1.9,5.7-1.1,8.9c1.1,4,0.1,8.1-1.3,11.7c-1.3,3.1-1.8,6.3-2.9,9.4c-0.4,1.2-1.2,1.8-1.8,2.7
			C478.5,491.6,477.7,491.6,476.9,491.6z"/>
	</g>
</g>
<g id="paris" class="st1">
	<g id="eiffey2">
		<g>
			<g>
				<path class="st2" d="M237,131.5c2.9-7.1,4.9-14.4,5.2-22c-0.4-0.1-0.8-0.1-1.3-0.3c0-0.5,0-1,0-1.6s0-1.1,0-1.8
					c0.4-0.1,0.8-0.2,1.1-0.3c0.1-0.4,0.1-0.7,0.2-1.1c0.4-0.1,0.8-0.1,1.3-0.1c0.1-0.6,0.3-1,0.4-1.6s0-1.1,0-1.6
					c0.1,0,0.3-0.1,0.4-0.1c0.2,1.1,0.4,2.2,0.6,3.3c0.6,0.1,1,0.1,1.5,0.1c0.1,0.4,0.1,0.7,0.1,1.1c0.4,0.1,0.7,0.2,1.1,0.3
					c0,1.2,0,2.3,0,3.4c-0.3,0.1-0.7,0.1-1.2,0.2c0.3,7.6,2.4,14.8,5.2,22c-0.3,0.1-0.5,0.1-0.7,0.1c-1,0-2,0-3.3,0
					c-0.3-1.2-0.8-2.4-1.1-3.6c-0.4-1.3-0.6-2.4-1-3.8c-0.8,0-1.5,0-2.4,0c-0.7,2.5-1.4,4.9-2.1,7.3
					C239.7,131.5,238.5,131.5,237,131.5z"/>
				<path class="st2" d="M252.7,144.7c-1.4-4.1-3.4-7.4-8.2-7.6c-3.8-0.1-5.8,1.8-8.5,7.6c-2,0-4.1,0-6.3,0c2.2-3.7,4.3-7.3,6.6-11
					c5.3,0,10.8,0,16.2,0c2.2,3.6,4.3,7.3,6.6,11C256.9,144.7,254.9,144.7,252.7,144.7z"/>
			</g>
		</g>
	</g>
</g>
<g id="marseille" class="st1">
	<g id="fishyellow1">
		<g>
			<g>
				<path class="st2" d="M344.4,397.1c0.1-0.9,0.2-1.9,0.5-2.8c0.4-1,0.4-1.8,0-2.8c-0.3-0.9-0.3-1.9-0.6-2.8
					c0.1-0.1,0.2-0.1,0.3-0.3c0.7,0.4,1.3,0.8,2,1.3c1.1,0.8,2.1,1.2,3.4,0.7c1.4-0.5,2.9-0.8,4.6-1.2c-0.1-1-0.2-2-0.3-3.4
					c1,0.6,2,1.1,2.8,1.6c1,0.8,2,1.1,3.2,1c3.2-0.1,6.2,0.9,8.8,2.7c0.6,0.4,1.1,0.9,1.8,1.5c-0.5,0.5-0.8,1-1.3,1.3
					c-2.5,1.8-5.2,3.1-8.3,3.1c-2,0-3.6,0.3-5.1,1.6c-0.5,0.4-1.1,0.6-2,1c0.1-1.2,0.2-2.2,0.4-3.2c-1.9-0.5-3.6-0.9-5.5-1.4
					c-1-0.3-1.7,0.3-2.4,0.8c-0.7,0.4-1.4,1-2.1,1.4C344.6,397.3,344.4,397.2,344.4,397.1z"/>
				<path class="st2" d="M346,405.2c-0.1-1-0.2-2-0.4-3.4c1.1,0.6,2,1,2.8,1.7c1,0.8,2,1.1,3.1,1c3.2-0.1,6.2,0.9,8.8,2.7
					c0.6,0.4,1.1,0.9,1.8,1.5c-0.5,0.5-0.8,1-1.3,1.3c-2.4,1.8-5.2,3.1-8.3,3.1c-2,0-3.6,0.3-5.1,1.6c-0.5,0.4-1.1,0.6-2,1
					c0.1-1.2,0.2-2.2,0.3-3.2c-1.9-0.5-3.6-0.9-5.5-1.4c-1-0.3-1.7,0.3-2.4,0.8c-0.7,0.4-1.4,1-2.2,1.5c-0.5-1.3,0-2.2,0.3-3.2
					c0.3-0.8,0.4-1.7,0-2.5c-0.4-0.9-0.4-2-0.6-2.9c0.1-0.1,0.3-0.1,0.4-0.2c0.6,0.4,1.3,0.7,1.9,1.2c1.1,0.9,2.3,1.3,3.7,0.8
					C342.9,405.9,344.4,405.6,346,405.2z"/>
				<path class="st2" d="M376.9,378.4c0.8,0,1.3,0,2.1,0c0,0.4,0.1,0.9,0.1,1.3c0,3.4,0,6.7,0,10.1c0,0.8,0.1,1.4,0.8,2
					c1.2,1,1.1,2.7-0.1,3.9c-0.6,0.5-0.7,1-0.7,1.6c0,3.6,0,7.3,0,10.9c0,2.4-2,4.6-4.5,5c-2.9,0.4-5.1-1.2-5.8-3.8
					c-0.4-1.8-0.2-3.4,0.7-4.9c1.1-1.8,2.2-3.4,3.6-5.1c0,2.4,0,5,0,7.6c-0.6-0.3-1-0.6-1.6-0.8c-0.7,1.1-0.7,2.2,0.1,3.4
					c0.7,0.9,1.8,1.3,2.9,1c1.3-0.3,2.3-1.5,2.4-2.7c0.1-0.9,0-1.9,0-2.8c0-2.2,0-4.3,0-6.5c0-1.1,0.1-2.2-1-3.1
					c-1-0.8-0.8-2.6,0.3-3.5c0.6-0.6,0.8-1.1,0.8-1.9c0-3.3,0-6.6,0-9.9C376.9,379.5,376.9,379,376.9,378.4z"/>
			</g>
		</g>
	</g>
</g>
<g id="toulouse">
	<g id="rugbyy1">
		<g>
			<g>
				<path class="st2" d="M206.2,400.2c2-0.8,3.9-1.6,5.7-2.4c0.6,0.6,1.1,1,1.7,1.6c0.8-0.9,0.3-1.7,0.2-2.6c0.8-0.4,1.7-1,2.6-1.3
					c0.9-0.3,1.9-0.6,2.9-0.9c0.8,0.4,0.8,1.8,2.3,1.3c-0.1-0.6-0.1-1.3-0.2-2c1.7-0.8,3.4-1.6,5.2-2.4c0.5-0.2,0.9-0.1,1.2,0.5
					c1,2.2,2,4.5,3,6.8c0.1,0.4,0,1.1-0.3,1.3c-1,0.9-2,1.8-3.2,2.6c-2.7,1.8-5.7,3-8.8,4.2c-2.8,1.1-5.7,1.9-8.9,1.7
					C208.6,405.7,207.4,403,206.2,400.2z"/>
				<path class="st2" d="M213.5,395.7c-0.8-0.6-0.9-1.8-2.2-1.8c0,0.8,0,1.5,0,2.4c-1.8,0.8-3.6,1.6-5.7,2.5c-1.2-2.8-2.3-5.4-3.5-8
					c0.9-1.4,2.2-2.5,3.6-3.3c4.3-2.7,8.9-4.8,13.9-5.7c2.9-0.6,3.4-0.3,4.6,2.4c0.7,1.7,1.4,3.3,2,5c0.1,0.2,0.1,0.5,0.1,0.8
					c-1.9,0.8-3.8,1.5-5.7,2.3c-0.6-0.6-1.1-1.1-1.5-1.6c-1.2,0.8-0.1,1.8-0.6,2.8C217,394.1,215.2,395,213.5,395.7z"/>
				<path class="st2" d="M229.3,388.7c-1.1-2.2-2.2-4.3-3.3-6.4c2.9-0.6,6.8,1.3,8.5,4.3C232.8,387.1,231.2,387.9,229.3,388.7z"/>
				<path class="st2" d="M230,390.3c0.6-0.3,1-0.5,1.4-0.7c1.2-0.6,2.4-1,3.6-1.6c1.2,2.5,0.2,6.4-2.3,9
					C231.8,394.8,230.9,392.6,230,390.3z"/>
				<path class="st2" d="M198.6,403.6c1.8-0.8,3.4-1.5,5.2-2.2c1.1,2.2,2,4.3,3.1,6.4C204.4,408.5,200.5,406.5,198.6,403.6z"/>
				<path class="st2" d="M197.8,402.1c-0.6-3.5,0.3-6.4,2.6-9.1c0.9,2.4,1.8,4.5,2.7,6.7C201.3,400.6,199.7,401.3,197.8,402.1z"/>
			</g>
		</g>
	</g>
</g>
<g id="bidart" class="st1">
	<g id="waveyellow1">
		<g>
			<g>
				<path class="st2" d="M87.8,394.1c0-2.7,0-5.3,0-8c3.9-2.7,6.4-6.7,9.4-10.4c4.8-6,15.5-7.8,21.2,1c0.5,0.8,0.8,1.8,1.1,2.7
					c0.2,0.7,0.3,1.6-0.9,2.2c-0.6-0.8-1.3-1.5-1.8-2.4c-0.9-1.3-2.1-2-3.6-2c-2.9-0.1-4.8,1.6-4.9,4.9c-0.2,5,2.1,7.4,6.9,8.4
					c1.4,0.4,2.8,0.2,4.2-0.2c2.2-0.6,4.3-0.6,6.5,0.6c0,1,0,1.9,0,2.9c-0.5-0.2-1-0.4-1.4-0.5c-1.6-0.6-3.2-0.6-4.8,0.1
					c-1.8,0.8-3.5,0.8-5.3-0.1c-1.8-0.8-3.6-0.8-5.3,0.3c-1.1,0.6-2.3,0.6-3.4,0c-2-1-3.9-1-6,0c-0.9,0.4-2.3,0.4-3.2,0
					c-2.3-1.1-4.4-0.9-6.6-0.1C89.2,393.8,88.5,393.9,87.8,394.1z"/>
				<path class="st2" d="M125.7,396.6c0,0.8,0,1.8,0,2.9c-2.5-1.5-5-1.1-7.4-0.3c-1,0.4-2.2,0.2-3.2-0.1c-2.1-0.7-4.1-1.1-6.2,0.1
					c-0.8,0.4-2.2,0.4-3.2,0c-2.2-0.8-4.1-0.8-6.2,0.1c-0.8,0.4-2,0.4-2.9,0.1c-2.4-1-4.8-0.8-7.3-0.1c-0.5,0.1-1,0.2-1.6,0.4
					c0-1,0-2,0-2.9c1.4-0.4,2.7-0.9,4.1-1.1c1-0.1,2.1-0.1,3,0.2c2,0.7,3.9,1,5.8-0.2c1.1-0.7,2.3-0.4,3.4,0.1
					c2,0.9,3.8,0.8,5.8-0.1c1.3-0.6,2.7-0.6,4,0.1c1.6,0.8,3.3,1,4.9,0.3C121.3,394.8,123.5,395.3,125.7,396.6z"/>
			</g>
		</g>
	</g>
</g>
</svg>
