<?xml version="1.0" encoding="utf-8"?>
<!-- Generator: Adobe Illustrator 24.0.0, SVG Export Plug-In . SVG Version: 6.00 Build 0)  -->
<svg version="1.1" id="Calque_1" xmlns="http://www.w3.org/2000/svg" xmlns:xlink="http://www.w3.org/1999/xlink" x="0px" y="0px"
	 viewBox="0 0 728 844" style="enable-background:new 0 0 728 844;" xml:space="preserve">
<style type="text/css">
	.st0{fill:none;stroke:#F6DB65;stroke-width:10;}
	.st1{fill:none;stroke:#FBD844;stroke-width:10;}
	.st2{fill:none;stroke:#FBD329;stroke-width:10;}
	.st3{fill:none;stroke:#F4CA18;stroke-width:10;}
	.st4{fill:none;stroke:#F5C808;stroke-width:10;}
	.st5{fill:none;stroke:#E1B600;stroke-width:10;}
	.st6{fill:#F6DB65;}
	.st7{fill:#FBD844;}
	.st8{fill:#FBD329;}
	.st9{fill:#F4CA18;}
	.st10{fill:#F5C808;}
	.st11{enable-background:new    ;}
	.st12{fill:#575757;}
</style>
<g id="Groupe_48" transform="translate(-1110 -230)">
	<line id="Ligne_9" class="st0" x1="1474" y1="262.3" x2="1474" y2="394.3"/>
	<line id="Ligne_10" class="st1" x1="1474" y1="394.3" x2="1474" y2="526.3"/>
	<line id="Ligne_11" class="st2" x1="1474" y1="526.3" x2="1474" y2="658.3"/>
	<line id="Ligne_12" class="st3" x1="1474" y1="658.3" x2="1474" y2="790.3"/>
	<line id="Ligne_13" class="st4" x1="1474" y1="790.3" x2="1474" y2="922.3"/>
	<line id="Ligne_14" class="st5" x1="1474" y1="922.3" x2="1474" y2="1054.3"/>
	<circle id="Ellipse_1" class="st6" cx="1473.5" cy="326.8" r="21"/>
	<circle id="Ellipse_2" class="st7" cx="1473.5" cy="428.8" r="21"/>
	<circle id="Ellipse_3" class="st8" cx="1473.5" cy="592.8" r="21"/>
	<circle id="Ellipse_4" class="st9" cx="1473.5" cy="711.8" r="21"/>
	<circle id="Ellipse_5" class="st10" cx="1473.5" cy="922.8" r="21"/>
</g>
<g class="st11">
	<path class="st12" d="M452,82.6v10.2h-38.5c0.4-3.9,1.7-7.5,3.8-11c2.1-3.5,6.2-8,12.3-13.7c4.9-4.6,8-7.7,9.1-9.4
		c1.5-2.3,2.3-4.5,2.3-6.7c0-2.4-0.7-4.3-2-5.6c-1.3-1.3-3.1-2-5.4-2c-2.3,0-4.1,0.7-5.5,2.1c-1.4,1.4-2.1,3.7-2.3,6.9l-10.9-1.1
		c0.7-6,2.7-10.4,6.1-13c3.4-2.6,7.7-3.9,12.9-3.9c5.7,0,10.1,1.5,13.3,4.6c3.2,3,4.8,6.8,4.8,11.4c0,2.6-0.5,5-1.4,7.4
		c-0.9,2.3-2.4,4.8-4.4,7.3c-1.3,1.7-3.7,4.1-7.2,7.3c-3.5,3.2-5.7,5.3-6.6,6.3c-0.9,1-1.7,2.1-2.2,3H452z"/>
	<path class="st12" d="M478,35.3c5.5,0,9.9,2,13,5.9c3.7,4.7,5.6,12.5,5.6,23.3c0,10.8-1.9,18.6-5.6,23.4c-3.1,3.9-7.4,5.9-13,5.9
		c-5.6,0-10.1-2.1-13.5-6.4c-3.4-4.3-5.1-11.9-5.1-22.9c0-10.8,1.9-18.5,5.6-23.3C468.1,37.2,472.4,35.3,478,35.3z M478,44.4
		c-1.3,0-2.5,0.4-3.6,1.3c-1,0.8-1.8,2.4-2.4,4.6c-0.8,2.8-1.1,7.6-1.1,14.3s0.3,11.3,1,13.8c0.7,2.5,1.5,4.2,2.6,5
		c1,0.8,2.2,1.3,3.5,1.3s2.5-0.4,3.6-1.3c1-0.8,1.8-2.4,2.4-4.6c0.8-2.8,1.1-7.6,1.1-14.3s-0.3-11.3-1-13.8c-0.7-2.5-1.5-4.2-2.6-5
		C480.5,44.8,479.3,44.4,478,44.4z"/>
	<path class="st12" d="M522.5,35.3c5.5,0,9.9,2,13,5.9c3.7,4.7,5.6,12.5,5.6,23.3c0,10.8-1.9,18.6-5.6,23.4c-3.1,3.9-7.4,5.9-13,5.9
		c-5.6,0-10.1-2.1-13.5-6.4c-3.4-4.3-5.1-11.9-5.1-22.9c0-10.8,1.9-18.5,5.6-23.3C512.6,37.2,516.9,35.3,522.5,35.3z M522.5,44.4
		c-1.3,0-2.5,0.4-3.6,1.3c-1,0.8-1.8,2.4-2.4,4.6c-0.8,2.8-1.1,7.6-1.1,14.3s0.3,11.3,1,13.8c0.7,2.5,1.5,4.2,2.6,5
		c1,0.8,2.2,1.3,3.5,1.3s2.5-0.4,3.6-1.3c1-0.8,1.8-2.4,2.4-4.6c0.8-2.8,1.1-7.6,1.1-14.3s-0.3-11.3-1-13.8c-0.7-2.5-1.5-4.2-2.6-5
		C525,44.8,523.8,44.4,522.5,44.4z"/>
	<path class="st12" d="M585.5,82.6v10.2H547c0.4-3.9,1.7-7.5,3.8-11c2.1-3.5,6.2-8,12.3-13.7c4.9-4.6,8-7.7,9.1-9.4
		c1.5-2.3,2.3-4.5,2.3-6.7c0-2.4-0.7-4.3-2-5.6c-1.3-1.3-3.1-2-5.4-2c-2.3,0-4.1,0.7-5.5,2.1c-1.4,1.4-2.1,3.7-2.3,6.9l-10.9-1.1
		c0.7-6,2.7-10.4,6.1-13c3.4-2.6,7.7-3.9,12.9-3.9c5.7,0,10.1,1.5,13.3,4.6c3.2,3,4.8,6.8,4.8,11.4c0,2.6-0.5,5-1.4,7.4
		c-0.9,2.3-2.4,4.8-4.4,7.3c-1.3,1.7-3.7,4.1-7.2,7.3c-3.5,3.2-5.7,5.3-6.6,6.3c-0.9,1-1.7,2.1-2.2,3H585.5z"/>
</g>
<g class="st11">
	<path class="st12" d="M121,217.6v10.2H82.5c0.4-3.9,1.7-7.5,3.8-11c2.1-3.5,6.2-8,12.3-13.7c4.9-4.6,8-7.7,9.1-9.4
		c1.5-2.3,2.3-4.5,2.3-6.7c0-2.4-0.7-4.3-2-5.6c-1.3-1.3-3.1-2-5.4-2c-2.3,0-4.1,0.7-5.5,2.1c-1.4,1.4-2.1,3.7-2.3,6.9l-10.9-1.1
		c0.7-6,2.7-10.4,6.1-13c3.4-2.6,7.7-3.9,12.9-3.9c5.7,0,10.1,1.5,13.3,4.6c3.2,3,4.8,6.8,4.8,11.4c0,2.6-0.5,5-1.4,7.4
		c-0.9,2.3-2.4,4.8-4.4,7.3c-1.3,1.7-3.7,4.1-7.2,7.3c-3.5,3.2-5.7,5.3-6.6,6.3c-0.9,1-1.7,2.1-2.2,3H121z"/>
	<path class="st12" d="M147,170.3c5.5,0,9.9,2,13,5.9c3.7,4.7,5.6,12.5,5.6,23.3c0,10.8-1.9,18.6-5.6,23.4c-3.1,3.9-7.4,5.9-13,5.9
		c-5.6,0-10.1-2.1-13.5-6.4c-3.4-4.3-5.1-11.9-5.1-22.9c0-10.8,1.9-18.5,5.6-23.3C137.1,172.2,141.4,170.3,147,170.3z M147,179.4
		c-1.3,0-2.5,0.4-3.6,1.3c-1,0.8-1.8,2.4-2.4,4.6c-0.8,2.8-1.1,7.6-1.1,14.3s0.3,11.3,1,13.8c0.7,2.5,1.5,4.2,2.6,5
		c1,0.8,2.2,1.3,3.5,1.3s2.5-0.4,3.6-1.3c1-0.8,1.8-2.4,2.4-4.6c0.8-2.8,1.1-7.6,1.1-14.3s-0.3-11.3-1-13.8c-0.7-2.5-1.5-4.2-2.6-5
		C149.5,179.8,148.3,179.4,147,179.4z"/>
	<path class="st12" d="M191.5,170.3c5.5,0,9.9,2,13,5.9c3.7,4.7,5.6,12.5,5.6,23.3c0,10.8-1.9,18.6-5.6,23.4
		c-3.1,3.9-7.4,5.9-13,5.9c-5.6,0-10.1-2.1-13.5-6.4c-3.4-4.3-5.1-11.9-5.1-22.9c0-10.8,1.9-18.5,5.6-23.3
		C181.6,172.2,185.9,170.3,191.5,170.3z M191.5,179.4c-1.3,0-2.5,0.4-3.6,1.3c-1,0.8-1.8,2.4-2.4,4.6c-0.8,2.8-1.1,7.6-1.1,14.3
		s0.3,11.3,1,13.8c0.7,2.5,1.5,4.2,2.6,5c1,0.8,2.2,1.3,3.5,1.3s2.5-0.4,3.6-1.3c1-0.8,1.8-2.4,2.4-4.6c0.8-2.8,1.1-7.6,1.1-14.3
		s-0.3-11.3-1-13.8c-0.7-2.5-1.5-4.2-2.6-5C194,179.8,192.8,179.4,191.5,179.4z"/>
	<path class="st12" d="M217.5,213.1l10.9-1.1c0.3,2.5,1.2,4.4,2.8,5.9c1.5,1.4,3.3,2.2,5.3,2.2c2.3,0,4.2-0.9,5.8-2.8
		c1.6-1.9,2.4-4.7,2.4-8.4c0-3.5-0.8-6.2-2.4-7.9c-1.6-1.8-3.6-2.6-6.2-2.6c-3.2,0-6,1.4-8.5,4.2l-8.9-1.3l5.6-29.8h29v10.3h-20.7
		l-1.7,9.7c2.4-1.2,4.9-1.8,7.5-1.8c4.9,0,9,1.8,12.4,5.3c3.4,3.5,5.1,8.1,5.1,13.8c0,4.7-1.4,8.9-4.1,12.6
		c-3.7,5.1-8.9,7.6-15.5,7.6c-5.3,0-9.6-1.4-12.9-4.3C220.2,221.7,218.2,217.9,217.5,213.1z"/>
</g>
<g class="st11">
	<path class="st12" d="M452,371.6v10.2h-38.5c0.4-3.9,1.7-7.5,3.8-11c2.1-3.5,6.2-8,12.3-13.7c4.9-4.6,8-7.7,9.1-9.4
		c1.5-2.3,2.3-4.5,2.3-6.7c0-2.4-0.7-4.3-2-5.6c-1.3-1.3-3.1-2-5.4-2c-2.3,0-4.1,0.7-5.5,2.1c-1.4,1.4-2.1,3.7-2.3,6.9l-10.9-1.1
		c0.7-6,2.7-10.4,6.1-13c3.4-2.6,7.7-3.9,12.9-3.9c5.7,0,10.1,1.5,13.3,4.6c3.2,3,4.8,6.8,4.8,11.4c0,2.6-0.5,5-1.4,7.4
		c-0.9,2.3-2.4,4.8-4.4,7.3c-1.3,1.7-3.7,4.1-7.2,7.3c-3.5,3.2-5.7,5.3-6.6,6.3c-0.9,1-1.7,2.1-2.2,3H452z"/>
	<path class="st12" d="M478,324.3c5.5,0,9.9,2,13,5.9c3.7,4.7,5.6,12.5,5.6,23.3c0,10.8-1.9,18.6-5.6,23.4c-3.1,3.9-7.4,5.9-13,5.9
		c-5.6,0-10.1-2.1-13.5-6.4c-3.4-4.3-5.1-11.9-5.1-22.9c0-10.8,1.9-18.5,5.6-23.3C468.1,326.2,472.4,324.3,478,324.3z M478,333.4
		c-1.3,0-2.5,0.4-3.6,1.3c-1,0.8-1.8,2.4-2.4,4.6c-0.8,2.8-1.1,7.6-1.1,14.3s0.3,11.3,1,13.8c0.7,2.5,1.5,4.2,2.6,5
		c1,0.8,2.2,1.3,3.5,1.3s2.5-0.4,3.6-1.3c1-0.8,1.8-2.4,2.4-4.6c0.8-2.8,1.1-7.6,1.1-14.3s-0.3-11.3-1-13.8c-0.7-2.5-1.5-4.2-2.6-5
		C480.5,333.8,479.3,333.4,478,333.4z"/>
	<path class="st12" d="M532,381.8h-11v-41.4c-4,3.8-8.7,6.5-14.2,8.3v-10c2.9-0.9,6-2.7,9.3-5.3s5.7-5.7,6.9-9.2h8.9V381.8z"/>
	<path class="st12" d="M585.6,338.6l-10.6,1.2c-0.3-2.2-0.9-3.8-2-4.8c-1.1-1-2.5-1.6-4.3-1.6c-2.3,0-4.3,1-5.9,3.1
		c-1.6,2.1-2.6,6.4-3,13c2.7-3.2,6.1-4.8,10.2-4.8c4.6,0,8.5,1.7,11.8,5.2c3.3,3.5,4.9,8,4.9,13.5c0,5.9-1.7,10.6-5.2,14.1
		c-3.4,3.5-7.9,5.3-13.2,5.3c-5.8,0-10.5-2.2-14.3-6.7c-3.7-4.5-5.6-11.9-5.6-22.1c0-10.5,1.9-18.1,5.8-22.7c3.9-4.6,8.9-7,15.1-7
		c4.3,0,7.9,1.2,10.8,3.7C583,330.4,584.8,333.9,585.6,338.6z M560.7,362.5c0,3.6,0.8,6.3,2.5,8.3c1.6,1.9,3.5,2.9,5.6,2.9
		c2,0,3.7-0.8,5.1-2.4c1.4-1.6,2-4.2,2-7.8c0-3.7-0.7-6.5-2.2-8.2c-1.5-1.7-3.3-2.6-5.5-2.6c-2.1,0-3.9,0.8-5.4,2.5
		C561.4,356.8,560.7,359.3,560.7,362.5z"/>
</g>
<g class="st11">
	<path class="st12" d="M123,485.6v10.2H84.5c0.4-3.9,1.7-7.5,3.8-11c2.1-3.5,6.2-8,12.3-13.7c4.9-4.6,8-7.7,9.1-9.4
		c1.5-2.3,2.3-4.5,2.3-6.7c0-2.4-0.7-4.3-2-5.6c-1.3-1.3-3.1-2-5.4-2c-2.3,0-4.1,0.7-5.5,2.1c-1.4,1.4-2.1,3.7-2.3,6.9l-10.9-1.1
		c0.7-6,2.7-10.4,6.1-13s7.7-3.9,12.9-3.9c5.7,0,10.1,1.5,13.3,4.6c3.2,3,4.8,6.8,4.8,11.4c0,2.6-0.5,5-1.4,7.4
		c-0.9,2.3-2.4,4.8-4.4,7.3c-1.3,1.7-3.7,4.1-7.2,7.3c-3.5,3.2-5.7,5.3-6.6,6.3c-0.9,1-1.7,2.1-2.2,3H123z"/>
	<path class="st12" d="M149,438.3c5.5,0,9.9,2,13,5.9c3.7,4.7,5.6,12.5,5.6,23.3c0,10.8-1.9,18.6-5.6,23.4c-3.1,3.9-7.4,5.9-13,5.9
		c-5.6,0-10.1-2.1-13.5-6.4c-3.4-4.3-5.1-11.9-5.1-22.9c0-10.8,1.9-18.5,5.6-23.3C139.1,440.2,143.4,438.3,149,438.3z M149,447.4
		c-1.3,0-2.5,0.4-3.6,1.3c-1,0.8-1.8,2.4-2.4,4.6c-0.8,2.8-1.1,7.6-1.1,14.3s0.3,11.3,1,13.8c0.7,2.5,1.5,4.2,2.6,5
		c1,0.8,2.2,1.3,3.5,1.3s2.5-0.4,3.6-1.3c1-0.8,1.8-2.4,2.4-4.6c0.8-2.8,1.1-7.6,1.1-14.3s-0.3-11.3-1-13.8c-0.7-2.5-1.5-4.2-2.6-5
		C151.5,447.8,150.3,447.4,149,447.4z"/>
	<path class="st12" d="M203,495.8h-11v-41.4c-4,3.8-8.7,6.5-14.2,8.3v-10c2.9-0.9,6-2.7,9.3-5.3s5.7-5.7,6.9-9.2h8.9V495.8z"/>
	<path class="st12" d="M219.6,482.6l10.6-1.2c0.3,2.2,0.9,3.8,2,4.8s2.5,1.6,4.3,1.6c2.3,0,4.2-1,5.8-3.1c1.6-2.1,2.6-6.4,3-13
		c-2.8,3.2-6.2,4.8-10.4,4.8c-4.5,0-8.4-1.7-11.7-5.2c-3.3-3.5-4.9-8-4.9-13.6c0-5.8,1.7-10.5,5.2-14c3.5-3.6,7.8-5.3,13.2-5.3
		c5.8,0,10.6,2.2,14.3,6.7c3.7,4.5,5.6,11.9,5.6,22.2c0,10.5-1.9,18-5.8,22.7c-3.9,4.6-8.9,7-15.2,7c-4.5,0-8.1-1.2-10.9-3.6
		C222.2,490.9,220.4,487.3,219.6,482.6z M244.5,458.6c0-3.5-0.8-6.3-2.4-8.2c-1.6-2-3.5-2.9-5.6-2.9c-2,0-3.7,0.8-5.1,2.4
		c-1.3,1.6-2,4.2-2,7.9c0,3.7,0.7,6.4,2.2,8.1c1.5,1.7,3.3,2.6,5.5,2.6c2.1,0,3.9-0.8,5.3-2.5S244.5,461.8,244.5,458.6z"/>
</g>
<g class="st11">
	<path class="st12" d="M452,692.6v10.2h-38.5c0.4-3.9,1.7-7.5,3.8-11c2.1-3.5,6.2-8,12.3-13.7c4.9-4.6,8-7.7,9.1-9.4
		c1.5-2.3,2.3-4.5,2.3-6.7c0-2.4-0.7-4.3-2-5.6c-1.3-1.3-3.1-2-5.4-2c-2.3,0-4.1,0.7-5.5,2.1c-1.4,1.4-2.1,3.7-2.3,6.9l-10.9-1.1
		c0.7-6,2.7-10.4,6.1-13s7.7-3.9,12.9-3.9c5.7,0,10.1,1.5,13.3,4.6c3.2,3,4.8,6.8,4.8,11.4c0,2.6-0.5,5-1.4,7.4
		c-0.9,2.3-2.4,4.8-4.4,7.3c-1.3,1.7-3.7,4.1-7.2,7.3c-3.5,3.2-5.7,5.3-6.6,6.3c-0.9,1-1.7,2.1-2.2,3H452z"/>
	<path class="st12" d="M478,645.3c5.5,0,9.9,2,13,5.9c3.7,4.7,5.6,12.5,5.6,23.3c0,10.8-1.9,18.6-5.6,23.4c-3.1,3.9-7.4,5.9-13,5.9
		c-5.6,0-10.1-2.1-13.5-6.4c-3.4-4.3-5.1-11.9-5.1-22.9c0-10.8,1.9-18.5,5.6-23.3C468.1,647.2,472.4,645.3,478,645.3z M478,654.4
		c-1.3,0-2.5,0.4-3.6,1.3c-1,0.8-1.8,2.4-2.4,4.6c-0.8,2.8-1.1,7.6-1.1,14.3s0.3,11.3,1,13.8c0.7,2.5,1.5,4.2,2.6,5
		c1,0.8,2.2,1.3,3.5,1.3s2.5-0.4,3.6-1.3c1-0.8,1.8-2.4,2.4-4.6c0.8-2.8,1.1-7.6,1.1-14.3s-0.3-11.3-1-13.8c-0.7-2.5-1.5-4.2-2.6-5
		C480.5,654.8,479.3,654.4,478,654.4z"/>
	<path class="st12" d="M541,692.6v10.2h-38.5c0.4-3.9,1.7-7.5,3.8-11c2.1-3.5,6.2-8,12.3-13.7c4.9-4.6,8-7.7,9.1-9.4
		c1.5-2.3,2.3-4.5,2.3-6.7c0-2.4-0.7-4.3-2-5.6c-1.3-1.3-3.1-2-5.4-2c-2.3,0-4.1,0.7-5.5,2.1c-1.4,1.4-2.1,3.7-2.3,6.9l-10.9-1.1
		c0.7-6,2.7-10.4,6.1-13s7.7-3.9,12.9-3.9c5.7,0,10.1,1.5,13.3,4.6c3.2,3,4.8,6.8,4.8,11.4c0,2.6-0.5,5-1.4,7.4
		c-0.9,2.3-2.4,4.8-4.4,7.3c-1.3,1.7-3.7,4.1-7.2,7.3c-3.5,3.2-5.7,5.3-6.6,6.3c-0.9,1-1.7,2.1-2.2,3H541z"/>
	<path class="st12" d="M548.4,656.5v-10.2h37.5v8c-3.1,3-6.3,7.4-9.5,13.1s-5.6,11.8-7.3,18.2s-2.5,12.2-2.5,17.2h-10.6
		c0.2-7.9,1.8-16,4.9-24.2s7.2-15.6,12.4-22.1H548.4z"/>
</g>
<g class="st11">
	<path class="st12" d="M31.9,242.8h9v1.8h-7.2v5.6h7.2v1.8h-7.2v8.8h-1.8V242.8z"/>
	<path class="st12" d="M44.3,242c0.4,0,0.7,0.1,1,0.4c0.3,0.3,0.4,0.6,0.4,1c0,0.4-0.1,0.7-0.4,1c-0.3,0.3-0.6,0.4-1,0.4
		c-0.4,0-0.7-0.1-1-0.4c-0.3-0.3-0.4-0.6-0.4-1c0-0.4,0.1-0.7,0.4-1S43.9,242,44.3,242z M43.5,247.5h1.7v13.3h-1.7V247.5z"/>
	<path class="st12" d="M48.7,247.5h1.7v2.4c0.7-0.9,1.4-1.6,2.3-2c0.8-0.5,1.7-0.7,2.7-0.7c1,0,1.9,0.3,2.6,0.8
		c0.8,0.5,1.3,1.2,1.7,2c0.4,0.9,0.5,2.2,0.5,4v6.8h-1.7v-6.3c0-1.5-0.1-2.6-0.2-3.1c-0.2-0.9-0.6-1.5-1.1-2s-1.3-0.7-2.2-0.7
		c-1,0-2,0.3-2.8,1s-1.4,1.5-1.6,2.5c-0.2,0.7-0.2,1.9-0.2,3.6v4.9h-1.7V247.5z"/>
	<path class="st12" d="M84.1,242.4v18.4h-1.7v-2.3c-0.7,0.9-1.5,1.5-2.4,2c-0.9,0.4-1.9,0.7-2.9,0.7c-1.9,0-3.5-0.7-4.8-2
		c-1.3-1.4-2-3-2-5c0-1.9,0.7-3.5,2-4.9c1.3-1.4,3-2,4.8-2c1.1,0,2.1,0.2,3,0.7c0.9,0.5,1.7,1.2,2.3,2.1v-7.6H84.1z M77.3,248.8
		c-1,0-1.8,0.2-2.6,0.7c-0.8,0.5-1.4,1.1-1.9,2c-0.5,0.8-0.7,1.7-0.7,2.7c0,0.9,0.2,1.8,0.7,2.7s1.1,1.5,1.9,2s1.7,0.7,2.6,0.7
		c0.9,0,1.8-0.2,2.7-0.7s1.5-1.1,1.9-1.9s0.7-1.7,0.7-2.7c0-1.5-0.5-2.8-1.5-3.9S78.8,248.8,77.3,248.8z"/>
	<path class="st12" d="M99.2,256.4l1.4,0.8c-0.5,0.9-1,1.7-1.6,2.2c-0.6,0.6-1.3,1-2.1,1.3s-1.6,0.4-2.6,0.4c-2.2,0-3.9-0.7-5.1-2.1
		c-1.2-1.4-1.8-3-1.8-4.8c0-1.7,0.5-3.2,1.6-4.5c1.3-1.7,3.1-2.5,5.3-2.5c2.3,0,4.1,0.9,5.4,2.6c1,1.2,1.4,2.7,1.5,4.5h-12
		c0,1.5,0.5,2.8,1.5,3.8c1,1,2.1,1.5,3.5,1.5c0.7,0,1.3-0.1,2-0.4c0.6-0.2,1.2-0.5,1.6-0.9C98.2,257.9,98.7,257.3,99.2,256.4z
		 M99.2,252.8c-0.2-0.9-0.6-1.6-1-2.2c-0.4-0.5-1-1-1.7-1.3c-0.7-0.3-1.5-0.5-2.3-0.5c-1.3,0-2.4,0.4-3.4,1.3
		c-0.7,0.6-1.2,1.5-1.6,2.7H99.2z"/>
	<path class="st12" d="M110.9,242.4h1.7v18.4h-1.7V242.4z"/>
	<path class="st12" d="M118.5,249.1l-0.9-0.5c0.3-0.6,0.5-1.1,0.6-1.5c0.1-0.3,0.2-0.8,0.2-1.4h-1.1v-3.4h2.2v2.1
		c0,1-0.1,1.9-0.2,2.5C119.2,247.6,118.9,248.3,118.5,249.1z"/>
	<path class="st12" d="M125,242.4h1.7v7.5c0.7-0.9,1.5-1.6,2.3-2c0.8-0.5,1.7-0.7,2.7-0.7c1,0,1.9,0.3,2.6,0.8
		c0.8,0.5,1.3,1.2,1.7,2c0.4,0.9,0.5,2.2,0.5,4v6.8h-1.7v-6.3c0-1.5-0.1-2.6-0.2-3.1c-0.2-0.9-0.6-1.5-1.2-2
		c-0.6-0.4-1.3-0.7-2.2-0.7c-1,0-2,0.3-2.8,1c-0.8,0.7-1.4,1.5-1.6,2.5c-0.2,0.7-0.2,1.9-0.2,3.6v4.9H125V242.4z"/>
	<path class="st12" d="M151.4,256.4l1.4,0.8c-0.5,0.9-1,1.7-1.6,2.2c-0.6,0.6-1.3,1-2.1,1.3s-1.6,0.4-2.6,0.4
		c-2.2,0-3.9-0.7-5.1-2.1c-1.2-1.4-1.8-3-1.8-4.8c0-1.7,0.5-3.2,1.6-4.5c1.3-1.7,3.1-2.5,5.3-2.5c2.3,0,4.1,0.9,5.4,2.6
		c1,1.2,1.4,2.7,1.5,4.5h-12c0,1.5,0.5,2.8,1.5,3.8c1,1,2.1,1.5,3.5,1.5c0.7,0,1.3-0.1,2-0.4c0.6-0.2,1.2-0.5,1.6-0.9
		C150.4,257.9,150.9,257.3,151.4,256.4z M151.4,252.8c-0.2-0.9-0.6-1.6-1-2.2c-0.4-0.5-1-1-1.7-1.3c-0.7-0.3-1.5-0.5-2.3-0.5
		c-1.3,0-2.4,0.4-3.4,1.3c-0.7,0.6-1.2,1.5-1.6,2.7H151.4z"/>
	<path class="st12" d="M154.9,247.5h2.1l3.5,4.9l3.5-4.9h2.1l-4.5,6.3l5.1,7h-2.1l-4-5.6l-4,5.6h-2l5-7L154.9,247.5z"/>
	<path class="st12" d="M181.7,247.5v13.3H180v-2.3c-0.7,0.9-1.5,1.5-2.4,2c-0.9,0.4-1.9,0.7-2.9,0.7c-1.9,0-3.5-0.7-4.8-2
		c-1.3-1.4-2-3-2-5c0-1.9,0.7-3.5,2-4.9c1.3-1.4,3-2,4.8-2c1.1,0,2.1,0.2,3,0.7c0.9,0.5,1.7,1.2,2.3,2.1v-2.4H181.7z M174.9,248.8
		c-1,0-1.8,0.2-2.6,0.7c-0.8,0.5-1.4,1.1-1.9,2c-0.5,0.8-0.7,1.7-0.7,2.7c0,0.9,0.2,1.8,0.7,2.7s1.1,1.5,1.9,2s1.7,0.7,2.6,0.7
		c0.9,0,1.8-0.2,2.7-0.7s1.5-1.1,1.9-1.9s0.7-1.7,0.7-2.7c0-1.5-0.5-2.8-1.5-3.9S176.3,248.8,174.9,248.8z"/>
	<path class="st12" d="M185.3,242.4h1.7v18.4h-1.7V242.4z"/>
	<path class="st12" d="M196.8,247.2c2,0,3.7,0.7,5.1,2.2c1.2,1.4,1.8,3,1.8,4.8c0,1.9-0.6,3.5-1.9,4.9c-1.3,1.4-3,2.1-5,2.1
		c-2,0-3.7-0.7-5-2.1c-1.3-1.4-1.9-3-1.9-4.9c0-1.8,0.6-3.4,1.8-4.8C193.1,247.9,194.8,247.2,196.8,247.2z M196.8,248.8
		c-1.4,0-2.6,0.5-3.7,1.6s-1.5,2.3-1.5,3.8c0,1,0.2,1.9,0.7,2.7s1.1,1.5,1.9,1.9c0.8,0.5,1.7,0.7,2.6,0.7s1.8-0.2,2.6-0.7
		c0.8-0.5,1.4-1.1,1.9-1.9c0.5-0.8,0.7-1.7,0.7-2.7c0-1.5-0.5-2.8-1.5-3.8S198.2,248.8,196.8,248.8z"/>
	<path class="st12" d="M218.4,247.5h1.7v10.6c0,1.9-0.2,3.2-0.5,4.1c-0.4,1.2-1.2,2.2-2.3,2.8c-1.1,0.7-2.4,1-4,1
		c-1.1,0-2.2-0.2-3.1-0.5c-0.9-0.3-1.6-0.8-2.2-1.3c-0.6-0.5-1.1-1.3-1.6-2.4h1.9c0.5,0.9,1.2,1.5,2,2c0.8,0.4,1.8,0.6,3,0.6
		c1.2,0,2.1-0.2,3-0.7s1.4-1,1.7-1.6c0.3-0.7,0.5-1.7,0.5-3.2v-0.7c-0.6,0.8-1.4,1.4-2.4,1.9c-0.9,0.4-1.9,0.7-3,0.7
		c-1.2,0-2.4-0.3-3.4-0.9c-1.1-0.6-1.9-1.4-2.5-2.4c-0.6-1-0.9-2.2-0.9-3.4s0.3-2.4,0.9-3.4c0.6-1.1,1.5-1.9,2.5-2.5
		c1.1-0.6,2.2-0.9,3.4-0.9c1,0,1.9,0.2,2.8,0.6c0.9,0.4,1.7,1.1,2.5,2V247.5z M213.3,248.8c-1,0-1.9,0.2-2.7,0.7
		c-0.8,0.5-1.5,1.1-2,1.9c-0.5,0.8-0.7,1.7-0.7,2.7c0,1.5,0.5,2.7,1.5,3.6c1,1,2.2,1.4,3.8,1.4c1.6,0,2.8-0.5,3.8-1.4
		c1-0.9,1.4-2.2,1.4-3.7c0-1-0.2-1.9-0.7-2.7s-1.1-1.4-1.9-1.9C215.1,249,214.2,248.8,213.3,248.8z"/>
	<path class="st12" d="M224.3,242c0.4,0,0.7,0.1,1,0.4c0.3,0.3,0.4,0.6,0.4,1c0,0.4-0.1,0.7-0.4,1c-0.3,0.3-0.6,0.4-1,0.4
		c-0.4,0-0.7-0.1-1-0.4c-0.3-0.3-0.4-0.6-0.4-1c0-0.4,0.1-0.7,0.4-1S223.9,242,224.3,242z M223.5,247.5h1.7v13.3h-1.7V247.5z"/>
	<path class="st12" d="M239.9,256.4l1.4,0.8c-0.5,0.9-1,1.7-1.6,2.2c-0.6,0.6-1.3,1-2.1,1.3s-1.6,0.4-2.6,0.4
		c-2.2,0-3.9-0.7-5.1-2.1c-1.2-1.4-1.8-3-1.8-4.8c0-1.7,0.5-3.2,1.6-4.5c1.3-1.7,3.1-2.5,5.3-2.5c2.3,0,4.1,0.9,5.4,2.6
		c1,1.2,1.4,2.7,1.5,4.5h-12c0,1.5,0.5,2.8,1.5,3.8c1,1,2.1,1.5,3.5,1.5c0.7,0,1.3-0.1,2-0.4c0.6-0.2,1.2-0.5,1.6-0.9
		C238.9,257.9,239.4,257.3,239.9,256.4z M239.9,252.8c-0.2-0.9-0.6-1.6-1-2.2c-0.4-0.5-1-1-1.7-1.3c-0.7-0.3-1.5-0.5-2.3-0.5
		c-1.3,0-2.4,0.4-3.4,1.3c-0.7,0.6-1.2,1.5-1.6,2.7H239.9z"/>
	<path class="st12" d="M250.3,257.4l1.5-0.9c1.1,2,2.3,3,3.7,3c0.6,0,1.2-0.1,1.7-0.4c0.5-0.3,0.9-0.7,1.2-1.1
		c0.3-0.5,0.4-1,0.4-1.5c0-0.6-0.2-1.2-0.6-1.8c-0.6-0.8-1.6-1.8-3.1-2.9c-1.5-1.1-2.4-1.9-2.8-2.5c-0.6-0.8-1-1.8-1-2.7
		c0-0.8,0.2-1.5,0.6-2.1c0.4-0.6,0.9-1.1,1.6-1.5c0.7-0.4,1.4-0.6,2.2-0.6c0.8,0,1.6,0.2,2.4,0.6c0.7,0.4,1.5,1.2,2.3,2.3l-1.5,1.1
		c-0.7-0.9-1.3-1.5-1.7-1.8c-0.5-0.3-1-0.4-1.6-0.4c-0.7,0-1.3,0.2-1.8,0.7c-0.5,0.4-0.7,1-0.7,1.6c0,0.4,0.1,0.8,0.2,1.1
		c0.2,0.4,0.5,0.8,0.9,1.2c0.2,0.2,1,0.8,2.3,1.8c1.6,1.1,2.6,2.2,3.2,3.1c0.6,0.9,0.9,1.8,0.9,2.7c0,1.3-0.5,2.4-1.5,3.4
		c-1,1-2.2,1.4-3.6,1.4c-1.1,0-2.1-0.3-3-0.9C251.9,259.8,251.1,258.8,250.3,257.4z"/>
	<path class="st12" d="M265.8,242.6h1.7v4.9h2.7v1.5h-2.7v11.8h-1.7V249h-2.3v-1.5h2.3V242.6z"/>
	<path class="st12" d="M286.1,247.5v13.3h-1.7v-2.3c-0.7,0.9-1.5,1.5-2.4,2c-0.9,0.4-1.9,0.7-2.9,0.7c-1.9,0-3.5-0.7-4.8-2
		c-1.3-1.4-2-3-2-5c0-1.9,0.7-3.5,2-4.9c1.3-1.4,3-2,4.8-2c1.1,0,2.1,0.2,3,0.7c0.9,0.5,1.7,1.2,2.3,2.1v-2.4H286.1z M279.2,248.8
		c-1,0-1.8,0.2-2.6,0.7c-0.8,0.5-1.4,1.1-1.9,2c-0.5,0.8-0.7,1.7-0.7,2.7c0,0.9,0.2,1.8,0.7,2.7s1.1,1.5,1.9,2s1.7,0.7,2.6,0.7
		c0.9,0,1.8-0.2,2.7-0.7s1.5-1.1,1.9-1.9s0.7-1.7,0.7-2.7c0-1.5-0.5-2.8-1.5-3.9S280.7,248.8,279.2,248.8z"/>
	<path class="st12" d="M289.3,247.5h1.7v1.9c0.5-0.8,1.1-1.3,1.6-1.7c0.6-0.4,1.2-0.6,1.8-0.6c0.5,0,1,0.2,1.5,0.5l-0.9,1.4
		c-0.4-0.2-0.7-0.2-0.9-0.2c-0.6,0-1.1,0.2-1.6,0.7c-0.5,0.5-0.9,1.2-1.2,2.2c-0.2,0.8-0.3,2.3-0.3,4.6v4.5h-1.7V247.5z"/>
</g>
<g class="st11">
	<path class="st12" d="M24,273.8h1.8l3.7,12.9l5.1-12.9H35l5.1,12.9l3.7-12.9h1.8l-5.2,18h-0.3l-5.3-13.6l-5.4,13.6h-0.3L24,273.8z"
		/>
	<path class="st12" d="M61.9,278.5v13.3h-1.7v-2.3c-0.7,0.9-1.5,1.5-2.4,2c-0.9,0.4-1.9,0.7-2.9,0.7c-1.9,0-3.5-0.7-4.8-2
		c-1.3-1.4-2-3-2-5c0-1.9,0.7-3.5,2-4.9c1.3-1.4,3-2,4.8-2c1.1,0,2.1,0.2,3,0.7c0.9,0.5,1.7,1.2,2.3,2.1v-2.4H61.9z M55.1,279.8
		c-1,0-1.8,0.2-2.6,0.7c-0.8,0.5-1.4,1.1-1.9,2c-0.5,0.8-0.7,1.7-0.7,2.7c0,0.9,0.2,1.8,0.7,2.7s1.1,1.5,1.9,2s1.7,0.7,2.6,0.7
		c0.9,0,1.8-0.2,2.7-0.7s1.5-1.1,1.9-1.9s0.7-1.7,0.7-2.7c0-1.5-0.5-2.8-1.5-3.9S56.6,279.8,55.1,279.8z"/>
	<path class="st12" d="M65.1,278.5h1.7v1.9c0.5-0.8,1.1-1.3,1.6-1.7c0.6-0.4,1.2-0.6,1.8-0.6c0.5,0,1,0.2,1.5,0.5l-0.9,1.4
		c-0.4-0.2-0.7-0.2-0.9-0.2c-0.6,0-1.1,0.2-1.6,0.7c-0.5,0.5-0.9,1.2-1.2,2.2c-0.2,0.8-0.3,2.3-0.3,4.6v4.5h-1.7V278.5z"/>
	<path class="st12" d="M80,280l-1.1,1.1c-0.9-0.9-1.8-1.3-2.7-1.3c-0.6,0-1,0.2-1.4,0.5c-0.4,0.4-0.6,0.8-0.6,1.3
		c0,0.4,0.2,0.8,0.5,1.2c0.3,0.4,1,0.9,2.1,1.4c1.3,0.7,2.1,1.3,2.6,1.9c0.4,0.6,0.7,1.3,0.7,2.1c0,1.1-0.4,2-1.1,2.8
		c-0.8,0.8-1.7,1.1-2.9,1.1c-0.8,0-1.5-0.2-2.2-0.5c-0.7-0.3-1.3-0.8-1.7-1.4l1.1-1.2c0.9,1,1.8,1.5,2.8,1.5c0.7,0,1.3-0.2,1.7-0.7
		c0.5-0.4,0.7-1,0.7-1.5c0-0.5-0.2-0.9-0.5-1.3c-0.3-0.4-1-0.8-2.2-1.4c-1.2-0.6-2-1.2-2.4-1.8c-0.4-0.6-0.6-1.3-0.6-2.1
		c0-1,0.3-1.8,1-2.5s1.6-1,2.6-1C77.5,278.2,78.8,278.8,80,280z"/>
	<path class="st12" d="M84.7,288.5l1.6,0.8l-2.5,4.6l-1.2-0.5L84.7,288.5z"/>
	<path class="st12" d="M108,287.4l1.4,0.8c-0.5,0.9-1,1.7-1.6,2.2c-0.6,0.6-1.3,1-2.1,1.3s-1.6,0.4-2.6,0.4c-2.2,0-3.9-0.7-5.1-2.1
		c-1.2-1.4-1.8-3-1.8-4.8c0-1.7,0.5-3.2,1.6-4.5c1.3-1.7,3.1-2.5,5.3-2.5c2.3,0,4.1,0.9,5.4,2.6c1,1.2,1.4,2.7,1.5,4.5H98
		c0,1.5,0.5,2.8,1.5,3.8c1,1,2.1,1.5,3.5,1.5c0.7,0,1.3-0.1,2-0.4c0.6-0.2,1.2-0.5,1.6-0.9C107,288.9,107.5,288.3,108,287.4z
		 M108,283.8c-0.2-0.9-0.6-1.6-1-2.2c-0.4-0.5-1-1-1.7-1.3c-0.7-0.3-1.5-0.5-2.3-0.5c-1.3,0-2.4,0.4-3.4,1.3
		c-0.7,0.6-1.2,1.5-1.6,2.7H108z"/>
	<path class="st12" d="M113.1,278.5h1.7v2.4c0.7-0.9,1.4-1.6,2.3-2c0.8-0.5,1.7-0.7,2.7-0.7c1,0,1.9,0.3,2.6,0.8
		c0.8,0.5,1.3,1.2,1.7,2c0.4,0.9,0.5,2.2,0.5,4v6.8H123v-6.3c0-1.5-0.1-2.6-0.2-3.1c-0.2-0.9-0.6-1.5-1.1-2s-1.3-0.7-2.2-0.7
		c-1,0-2,0.3-2.8,1s-1.4,1.5-1.6,2.5c-0.2,0.7-0.2,1.9-0.2,3.6v4.9h-1.7V278.5z"/>
	<path class="st12" d="M133.8,273.4v1.7c-0.6-0.3-1.2-0.4-1.6-0.4c-0.3,0-0.6,0.1-0.8,0.2c-0.2,0.1-0.4,0.3-0.4,0.5
		c-0.1,0.2-0.1,0.6-0.1,1.4l0,1.8h2.8v1.5h-2.8l0,11.8h-1.7V280h-1.7v-1.5h1.7v-2.1c0-1,0.1-1.6,0.3-2c0.2-0.4,0.5-0.7,0.9-1
		c0.4-0.2,0.9-0.4,1.5-0.4C132.4,273,133.1,273.2,133.8,273.4z"/>
	<path class="st12" d="M136.8,273c0.4,0,0.7,0.1,1,0.4c0.3,0.3,0.4,0.6,0.4,1c0,0.4-0.1,0.7-0.4,1c-0.3,0.3-0.6,0.4-1,0.4
		c-0.4,0-0.7-0.1-1-0.4c-0.3-0.3-0.4-0.6-0.4-1c0-0.4,0.1-0.7,0.4-1S136.4,273,136.8,273z M135.9,278.5h1.7v13.3h-1.7V278.5z"/>
	<path class="st12" d="M141.2,278.5h1.7v2.4c0.7-0.9,1.4-1.6,2.3-2c0.8-0.5,1.7-0.7,2.7-0.7c1,0,1.9,0.3,2.6,0.8
		c0.8,0.5,1.3,1.2,1.7,2c0.4,0.9,0.5,2.2,0.5,4v6.8h-1.7v-6.3c0-1.5-0.1-2.6-0.2-3.1c-0.2-0.9-0.6-1.5-1.1-2s-1.3-0.7-2.2-0.7
		c-1,0-2,0.3-2.8,1s-1.4,1.5-1.6,2.5c-0.2,0.7-0.2,1.9-0.2,3.6v4.9h-1.7V278.5z"/>
	<path class="st12" d="M158.7,289.1c0.4,0,0.8,0.1,1.1,0.4s0.4,0.7,0.4,1.1c0,0.4-0.1,0.8-0.4,1.1s-0.6,0.4-1.1,0.4
		s-0.8-0.1-1.1-0.4s-0.4-0.7-0.4-1.1c0-0.4,0.1-0.8,0.4-1.1S158.3,289.1,158.7,289.1z M167.1,289.1c0.4,0,0.8,0.1,1.1,0.4
		s0.4,0.7,0.4,1.1c0,0.4-0.1,0.8-0.4,1.1s-0.6,0.4-1.1,0.4s-0.8-0.1-1.1-0.4s-0.4-0.7-0.4-1.1c0-0.4,0.1-0.8,0.4-1.1
		S166.6,289.1,167.1,289.1z M175.4,289.1c0.4,0,0.8,0.1,1.1,0.4c0.3,0.3,0.4,0.7,0.4,1.1c0,0.4-0.1,0.8-0.4,1.1
		c-0.3,0.3-0.6,0.4-1.1,0.4c-0.4,0-0.8-0.1-1.1-0.4s-0.4-0.7-0.4-1.1c0-0.4,0.1-0.8,0.4-1.1S175,289.1,175.4,289.1z"/>
	<path class="st12" d="M201.6,273.4v18.4h-1.7v-2.3c-0.7,0.9-1.5,1.5-2.4,2c-0.9,0.4-1.9,0.7-2.9,0.7c-1.9,0-3.5-0.7-4.8-2
		c-1.3-1.4-2-3-2-5c0-1.9,0.7-3.5,2-4.9c1.3-1.4,3-2,4.8-2c1.1,0,2.1,0.2,3,0.7c0.9,0.5,1.7,1.2,2.3,2.1v-7.6H201.6z M194.8,279.8
		c-1,0-1.8,0.2-2.6,0.7c-0.8,0.5-1.4,1.1-1.9,2c-0.5,0.8-0.7,1.7-0.7,2.7c0,0.9,0.2,1.8,0.7,2.7s1.1,1.5,1.9,2s1.7,0.7,2.6,0.7
		c0.9,0,1.8-0.2,2.7-0.7s1.5-1.1,1.9-1.9s0.7-1.7,0.7-2.7c0-1.5-0.5-2.8-1.5-3.9S196.3,279.8,194.8,279.8z"/>
	<path class="st12" d="M205.3,278.5h1.7v6.2c0,1.5,0.1,2.6,0.2,3.1c0.2,0.8,0.7,1.5,1.4,1.9c0.7,0.5,1.5,0.7,2.5,0.7
		s1.8-0.2,2.4-0.7c0.7-0.5,1.1-1.1,1.4-1.8c0.2-0.5,0.3-1.6,0.3-3.3v-6.2h1.7v6.5c0,1.8-0.2,3.2-0.6,4.1c-0.4,0.9-1.1,1.7-1.9,2.2
		c-0.9,0.5-1.9,0.8-3.2,0.8s-2.4-0.3-3.2-0.8c-0.9-0.5-1.5-1.3-1.9-2.2c-0.4-0.9-0.6-2.4-0.6-4.2V278.5z"/>
	<path class="st12" d="M229,278h-1.8c0.3-1.5,1-2.6,1.9-3.4c0.9-0.8,2.1-1.2,3.3-1.2c0.9,0,1.8,0.2,2.6,0.6c0.8,0.4,1.4,1,1.9,1.7
		c0.4,0.7,0.7,1.5,0.7,2.3c0,1.5-0.8,2.8-2.3,3.7c0.9,0.4,1.6,0.9,2.1,1.5c0.8,1,1.2,2,1.2,3.2c0,1-0.3,2-0.8,2.9s-1.3,1.6-2.2,2.1
		c-0.9,0.5-2,0.8-3.1,0.8c-1.5,0-2.8-0.4-3.9-1.3c-1-0.9-1.7-2.2-2-3.9h1.8c0.3,1.2,0.8,2,1.3,2.5c0.7,0.7,1.7,1,2.8,1
		c1.3,0,2.3-0.4,3.1-1.2c0.8-0.8,1.2-1.7,1.2-2.7c0-0.7-0.2-1.4-0.6-2c-0.4-0.6-0.9-1.1-1.6-1.4c-0.7-0.3-1.7-0.5-3.1-0.6V281
		c0.8,0,1.6-0.1,2.2-0.4c0.7-0.3,1.2-0.7,1.5-1.1c0.3-0.4,0.5-0.9,0.5-1.5c0-0.8-0.3-1.5-0.9-2c-0.6-0.6-1.4-0.9-2.4-0.9
		c-0.8,0-1.4,0.2-2,0.7C229.9,276.2,229.4,277,229,278z"/>
	<path class="st12" d="M252.7,287.4l1.4,0.8c-0.5,0.9-1,1.7-1.6,2.2c-0.6,0.6-1.3,1-2.1,1.3s-1.6,0.4-2.6,0.4
		c-2.2,0-3.9-0.7-5.1-2.1c-1.2-1.4-1.8-3-1.8-4.8c0-1.7,0.5-3.2,1.6-4.5c1.3-1.7,3.1-2.5,5.3-2.5c2.3,0,4.1,0.9,5.4,2.6
		c1,1.2,1.4,2.7,1.5,4.5h-12c0,1.5,0.5,2.8,1.5,3.8c1,1,2.1,1.5,3.5,1.5c0.7,0,1.3-0.1,2-0.4c0.6-0.2,1.2-0.5,1.6-0.9
		C251.7,288.9,252.1,288.3,252.7,287.4z M252.7,283.8c-0.2-0.9-0.6-1.6-1-2.2c-0.4-0.5-1-1-1.7-1.3c-0.7-0.3-1.5-0.5-2.3-0.5
		c-1.3,0-2.4,0.4-3.4,1.3c-0.7,0.6-1.2,1.5-1.6,2.7H252.7z M246.9,272.3l2.7,3.8h-1.7l-3.6-3.8H246.9z"/>
	<path class="st12" d="M257.7,278.5h1.7v2.3c0.6-0.8,1.2-1.5,1.8-1.9c0.9-0.5,1.8-0.8,2.7-0.8c0.6,0,1.3,0.1,1.8,0.4
		c0.6,0.3,1.1,0.6,1.4,1c0.4,0.4,0.7,1,1,1.8c0.6-1,1.3-1.8,2.1-2.4c0.9-0.5,1.8-0.8,2.8-0.8c0.9,0,1.7,0.2,2.4,0.7
		c0.7,0.5,1.2,1.1,1.6,1.9c0.3,0.8,0.5,2.1,0.5,3.7v7.3h-1.7v-7.3c0-1.4-0.1-2.4-0.3-2.9s-0.5-1-1-1.3c-0.5-0.3-1.1-0.5-1.8-0.5
		c-0.8,0-1.6,0.2-2.3,0.7s-1.2,1.1-1.5,2c-0.3,0.8-0.5,2.2-0.5,4.1v5.2h-1.7V285c0-1.6-0.1-2.7-0.3-3.3c-0.2-0.6-0.5-1-1-1.4
		c-0.5-0.3-1.1-0.5-1.8-0.5c-0.8,0-1.5,0.2-2.2,0.7c-0.7,0.5-1.2,1.1-1.5,1.9c-0.3,0.8-0.5,2-0.5,3.7v5.6h-1.7V278.5z"/>
	<path class="st12" d="M292.4,287.4l1.4,0.8c-0.5,0.9-1,1.7-1.6,2.2c-0.6,0.6-1.3,1-2.1,1.3s-1.6,0.4-2.6,0.4
		c-2.2,0-3.9-0.7-5.1-2.1c-1.2-1.4-1.8-3-1.8-4.8c0-1.7,0.5-3.2,1.6-4.5c1.3-1.7,3.1-2.5,5.3-2.5c2.3,0,4.1,0.9,5.4,2.6
		c1,1.2,1.4,2.7,1.5,4.5h-12c0,1.5,0.5,2.8,1.5,3.8c1,1,2.1,1.5,3.5,1.5c0.7,0,1.3-0.1,2-0.4c0.6-0.2,1.2-0.5,1.6-0.9
		C291.4,288.9,291.8,288.3,292.4,287.4z M292.4,283.8c-0.2-0.9-0.6-1.6-1-2.2c-0.4-0.5-1-1-1.7-1.3c-0.7-0.3-1.5-0.5-2.3-0.5
		c-1.3,0-2.4,0.4-3.4,1.3c-0.7,0.6-1.2,1.5-1.6,2.7H292.4z"/>
</g>
<g class="st11">
	<path class="st12" d="M57.3,318.4l1.4,0.8c-0.5,0.9-1,1.7-1.6,2.2c-0.6,0.6-1.3,1-2.1,1.3s-1.6,0.4-2.6,0.4c-2.2,0-3.9-0.7-5.1-2.1
		c-1.2-1.4-1.8-3-1.8-4.8c0-1.7,0.5-3.2,1.6-4.5c1.3-1.7,3.1-2.5,5.3-2.5c2.3,0,4.1,0.9,5.4,2.6c1,1.2,1.4,2.7,1.5,4.5h-12
		c0,1.5,0.5,2.8,1.5,3.8c1,1,2.1,1.5,3.5,1.5c0.7,0,1.3-0.1,2-0.4c0.6-0.2,1.2-0.5,1.6-0.9C56.3,319.9,56.8,319.3,57.3,318.4z
		 M57.3,314.8c-0.2-0.9-0.6-1.6-1-2.2c-0.4-0.5-1-1-1.7-1.3c-0.7-0.3-1.5-0.5-2.3-0.5c-1.3,0-2.4,0.4-3.4,1.3
		c-0.7,0.6-1.2,1.5-1.6,2.7H57.3z M53.2,303.3h2.6l-3.6,3.8h-1.7L53.2,303.3z"/>
	<path class="st12" d="M62.4,309.5h1.7v2.4c0.7-0.9,1.5-1.6,2.3-2.1c0.9-0.5,1.9-0.7,2.9-0.7c1.9,0,3.5,0.7,4.8,2c1.3,1.4,2,3,2,4.9
		c0,2-0.7,3.6-2,5c-1.3,1.4-2.9,2-4.8,2c-1.1,0-2-0.2-2.9-0.7s-1.7-1.1-2.4-2v7.1h-1.7V309.5z M69.2,310.8c-1.5,0-2.7,0.5-3.7,1.5
		s-1.5,2.3-1.5,3.9c0,1,0.2,1.9,0.7,2.7s1.1,1.4,1.9,1.9s1.7,0.7,2.7,0.7c0.9,0,1.8-0.2,2.6-0.7s1.5-1.1,1.9-2
		c0.5-0.9,0.7-1.7,0.7-2.7c0-0.9-0.2-1.8-0.7-2.7c-0.5-0.8-1.1-1.5-1.9-2C71,311.1,70.2,310.8,69.2,310.8z"/>
	<path class="st12" d="M80,304c0.4,0,0.7,0.1,1,0.4c0.3,0.3,0.4,0.6,0.4,1c0,0.4-0.1,0.7-0.4,1c-0.3,0.3-0.6,0.4-1,0.4
		c-0.4,0-0.7-0.1-1-0.4c-0.3-0.3-0.4-0.6-0.4-1c0-0.4,0.1-0.7,0.4-1S79.6,304,80,304z M79.1,309.5h1.7v13.3h-1.7V309.5z"/>
	<path class="st12" d="M91.1,311l-1.1,1.1c-0.9-0.9-1.8-1.3-2.7-1.3c-0.6,0-1,0.2-1.4,0.5c-0.4,0.4-0.6,0.8-0.6,1.3
		c0,0.4,0.2,0.8,0.5,1.2c0.3,0.4,1,0.9,2.1,1.4c1.3,0.7,2.1,1.3,2.6,1.9c0.4,0.6,0.7,1.3,0.7,2.1c0,1.1-0.4,2-1.1,2.8
		c-0.8,0.8-1.7,1.1-2.9,1.1c-0.8,0-1.5-0.2-2.2-0.5c-0.7-0.3-1.3-0.8-1.7-1.4l1.1-1.2c0.9,1,1.8,1.5,2.8,1.5c0.7,0,1.3-0.2,1.7-0.7
		c0.5-0.4,0.7-1,0.7-1.5c0-0.5-0.2-0.9-0.5-1.3c-0.3-0.4-1-0.8-2.2-1.4c-1.2-0.6-2-1.2-2.4-1.8c-0.4-0.6-0.6-1.3-0.6-2.1
		c0-1,0.3-1.8,1-2.5s1.6-1,2.6-1C88.6,309.2,89.8,309.8,91.1,311z"/>
	<path class="st12" d="M100.4,309.2c2,0,3.7,0.7,5.1,2.2c1.2,1.4,1.8,3,1.8,4.8c0,1.9-0.6,3.5-1.9,4.9c-1.3,1.4-3,2.1-5,2.1
		c-2,0-3.7-0.7-5-2.1c-1.3-1.4-1.9-3-1.9-4.9c0-1.8,0.6-3.4,1.8-4.8C96.6,309.9,98.3,309.2,100.4,309.2z M100.4,310.8
		c-1.4,0-2.6,0.5-3.7,1.6s-1.5,2.3-1.5,3.8c0,1,0.2,1.9,0.7,2.7s1.1,1.5,1.9,1.9c0.8,0.5,1.7,0.7,2.6,0.7s1.8-0.2,2.6-0.7
		c0.8-0.5,1.4-1.1,1.9-1.9c0.5-0.8,0.7-1.7,0.7-2.7c0-1.5-0.5-2.8-1.5-3.8S101.8,310.8,100.4,310.8z"/>
	<path class="st12" d="M123.7,304.4v18.4h-1.7v-2.3c-0.7,0.9-1.5,1.5-2.4,2c-0.9,0.4-1.9,0.7-2.9,0.7c-1.9,0-3.5-0.7-4.8-2
		c-1.3-1.4-2-3-2-5c0-1.9,0.7-3.5,2-4.9c1.3-1.4,3-2,4.8-2c1.1,0,2.1,0.2,3,0.7c0.9,0.5,1.7,1.2,2.3,2.1v-7.6H123.7z M116.9,310.8
		c-1,0-1.8,0.2-2.6,0.7c-0.8,0.5-1.4,1.1-1.9,2c-0.5,0.8-0.7,1.7-0.7,2.7c0,0.9,0.2,1.8,0.7,2.7s1.1,1.5,1.9,2s1.7,0.7,2.6,0.7
		c0.9,0,1.8-0.2,2.7-0.7s1.5-1.1,1.9-1.9s0.7-1.7,0.7-2.7c0-1.5-0.5-2.8-1.5-3.9S118.4,310.8,116.9,310.8z"/>
	<path class="st12" d="M138.8,318.4l1.4,0.8c-0.5,0.9-1,1.7-1.6,2.2c-0.6,0.6-1.3,1-2.1,1.3s-1.6,0.4-2.6,0.4
		c-2.2,0-3.9-0.7-5.1-2.1c-1.2-1.4-1.8-3-1.8-4.8c0-1.7,0.5-3.2,1.6-4.5c1.3-1.7,3.1-2.5,5.3-2.5c2.3,0,4.1,0.9,5.4,2.6
		c1,1.2,1.4,2.7,1.5,4.5h-12c0,1.5,0.5,2.8,1.5,3.8c1,1,2.1,1.5,3.5,1.5c0.7,0,1.3-0.1,2-0.4c0.6-0.2,1.2-0.5,1.6-0.9
		C137.8,319.9,138.3,319.3,138.8,318.4z M138.8,314.8c-0.2-0.9-0.6-1.6-1-2.2c-0.4-0.5-1-1-1.7-1.3c-0.7-0.3-1.5-0.5-2.3-0.5
		c-1.3,0-2.4,0.4-3.4,1.3c-0.7,0.6-1.2,1.5-1.6,2.7H138.8z"/>
	<path class="st12" d="M145.6,319.5l1.6,0.8l-2.5,4.6l-1.2-0.5L145.6,319.5z"/>
	<path class="st12" d="M168.9,318.4l1.4,0.8c-0.5,0.9-1,1.7-1.6,2.2c-0.6,0.6-1.3,1-2.1,1.3s-1.6,0.4-2.6,0.4
		c-2.2,0-3.9-0.7-5.1-2.1c-1.2-1.4-1.8-3-1.8-4.8c0-1.7,0.5-3.2,1.6-4.5c1.3-1.7,3.1-2.5,5.3-2.5c2.3,0,4.1,0.9,5.4,2.6
		c1,1.2,1.4,2.7,1.5,4.5h-12c0,1.5,0.5,2.8,1.5,3.8c1,1,2.1,1.5,3.5,1.5c0.7,0,1.3-0.1,2-0.4c0.6-0.2,1.2-0.5,1.6-0.9
		C167.9,319.9,168.4,319.3,168.9,318.4z M168.9,314.8c-0.2-0.9-0.6-1.6-1-2.2c-0.4-0.5-1-1-1.7-1.3c-0.7-0.3-1.5-0.5-2.3-0.5
		c-1.3,0-2.4,0.4-3.4,1.3c-0.7,0.6-1.2,1.5-1.6,2.7H168.9z"/>
	<path class="st12" d="M173.9,309.5h1.7v2.4c0.7-0.9,1.4-1.6,2.3-2c0.8-0.5,1.7-0.7,2.7-0.7c1,0,1.9,0.3,2.6,0.8
		c0.8,0.5,1.3,1.2,1.7,2c0.4,0.9,0.5,2.2,0.5,4v6.8h-1.7v-6.3c0-1.5-0.1-2.6-0.2-3.1c-0.2-0.9-0.6-1.5-1.1-2s-1.3-0.7-2.2-0.7
		c-1,0-2,0.3-2.8,1s-1.4,1.5-1.6,2.5c-0.2,0.7-0.2,1.9-0.2,3.6v4.9h-1.7V309.5z"/>
	<path class="st12" d="M194.7,304.4v1.7c-0.6-0.3-1.2-0.4-1.6-0.4c-0.3,0-0.6,0.1-0.8,0.2c-0.2,0.1-0.4,0.3-0.4,0.5
		c-0.1,0.2-0.1,0.6-0.1,1.4l0,1.8h2.8v1.5h-2.8l0,11.8H190V311h-1.7v-1.5h1.7v-2.1c0-1,0.1-1.6,0.3-2c0.2-0.4,0.5-0.7,0.9-1
		c0.4-0.2,0.9-0.4,1.5-0.4C193.2,304,193.9,304.2,194.7,304.4z"/>
	<path class="st12" d="M197.6,304c0.4,0,0.7,0.1,1,0.4c0.3,0.3,0.4,0.6,0.4,1c0,0.4-0.1,0.7-0.4,1c-0.3,0.3-0.6,0.4-1,0.4
		c-0.4,0-0.7-0.1-1-0.4c-0.3-0.3-0.4-0.6-0.4-1c0-0.4,0.1-0.7,0.4-1S197.3,304,197.6,304z M196.8,309.5h1.7v13.3h-1.7V309.5z"/>
	<path class="st12" d="M202,309.5h1.7v2.4c0.7-0.9,1.4-1.6,2.3-2c0.8-0.5,1.7-0.7,2.7-0.7c1,0,1.9,0.3,2.6,0.8
		c0.8,0.5,1.3,1.2,1.7,2c0.4,0.9,0.5,2.2,0.5,4v6.8h-1.7v-6.3c0-1.5-0.1-2.6-0.2-3.1c-0.2-0.9-0.6-1.5-1.1-2s-1.3-0.7-2.2-0.7
		c-1,0-2,0.3-2.8,1s-1.4,1.5-1.6,2.5c-0.2,0.7-0.2,1.9-0.2,3.6v4.9H202V309.5z"/>
	<path class="st12" d="M219.6,320.1c0.4,0,0.8,0.1,1.1,0.4s0.4,0.7,0.4,1.1c0,0.4-0.1,0.8-0.4,1.1s-0.6,0.4-1.1,0.4
		s-0.8-0.1-1.1-0.4s-0.4-0.7-0.4-1.1c0-0.4,0.1-0.8,0.4-1.1S219.1,320.1,219.6,320.1z M227.9,320.1c0.4,0,0.8,0.1,1.1,0.4
		s0.4,0.7,0.4,1.1c0,0.4-0.1,0.8-0.4,1.1s-0.6,0.4-1.1,0.4s-0.8-0.1-1.1-0.4s-0.4-0.7-0.4-1.1c0-0.4,0.1-0.8,0.4-1.1
		S227.5,320.1,227.9,320.1z M236.2,320.1c0.4,0,0.8,0.1,1.1,0.4c0.3,0.3,0.4,0.7,0.4,1.1c0,0.4-0.1,0.8-0.4,1.1
		c-0.3,0.3-0.6,0.4-1.1,0.4c-0.4,0-0.8-0.1-1.1-0.4s-0.4-0.7-0.4-1.1c0-0.4,0.1-0.8,0.4-1.1S235.8,320.1,236.2,320.1z"/>
	<path class="st12" d="M241,309.5h1.8l4.5,9.7l4.4-9.7h1.8l-6.1,13.3h-0.3L241,309.5z"/>
	<path class="st12" d="M262.4,309.2c2,0,3.7,0.7,5.1,2.2c1.2,1.4,1.8,3,1.8,4.8c0,1.9-0.6,3.5-1.9,4.9c-1.3,1.4-3,2.1-5,2.1
		c-2,0-3.7-0.7-5-2.1c-1.3-1.4-1.9-3-1.9-4.9c0-1.8,0.6-3.4,1.8-4.8C258.7,309.9,260.4,309.2,262.4,309.2z M262.4,310.8
		c-1.4,0-2.6,0.5-3.7,1.6s-1.5,2.3-1.5,3.8c0,1,0.2,1.9,0.7,2.7s1.1,1.5,1.9,1.9c0.8,0.5,1.7,0.7,2.6,0.7s1.8-0.2,2.6-0.7
		c0.8-0.5,1.4-1.1,1.9-1.9c0.5-0.8,0.7-1.7,0.7-2.7c0-1.5-0.5-2.8-1.5-3.8S263.8,310.8,262.4,310.8z"/>
	<path class="st12" d="M272.3,309.5h1.7v6.2c0,1.5,0.1,2.6,0.2,3.1c0.2,0.8,0.7,1.5,1.4,1.9c0.7,0.5,1.5,0.7,2.5,0.7
		s1.8-0.2,2.4-0.7c0.7-0.5,1.1-1.1,1.4-1.8c0.2-0.5,0.3-1.6,0.3-3.3v-6.2h1.7v6.5c0,1.8-0.2,3.2-0.6,4.1c-0.4,0.9-1.1,1.7-1.9,2.2
		c-0.9,0.5-1.9,0.8-3.2,0.8s-2.4-0.3-3.2-0.8c-0.9-0.5-1.5-1.3-1.9-2.2c-0.4-0.9-0.6-2.4-0.6-4.2V309.5z"/>
	<path class="st12" d="M294.4,311l-1.1,1.1c-0.9-0.9-1.8-1.3-2.7-1.3c-0.6,0-1,0.2-1.4,0.5c-0.4,0.4-0.6,0.8-0.6,1.3
		c0,0.4,0.2,0.8,0.5,1.2c0.3,0.4,1,0.9,2.1,1.4c1.3,0.7,2.1,1.3,2.6,1.9c0.4,0.6,0.7,1.3,0.7,2.1c0,1.1-0.4,2-1.1,2.8
		c-0.8,0.8-1.7,1.1-2.9,1.1c-0.8,0-1.5-0.2-2.2-0.5c-0.7-0.3-1.3-0.8-1.7-1.4l1.1-1.2c0.9,1,1.8,1.5,2.8,1.5c0.7,0,1.3-0.2,1.7-0.7
		c0.5-0.4,0.7-1,0.7-1.5c0-0.5-0.2-0.9-0.5-1.3c-0.3-0.4-1-0.8-2.2-1.4c-1.2-0.6-2-1.2-2.4-1.8c-0.4-0.6-0.6-1.3-0.6-2.1
		c0-1,0.3-1.8,1-2.5s1.6-1,2.6-1C291.9,309.2,293.2,309.8,294.4,311z"/>
</g>
<g class="st11">
	<path class="st12" d="M59.7,340.5h1.7v2.4c0.7-0.9,1.4-1.6,2.3-2c0.8-0.5,1.7-0.7,2.7-0.7c1,0,1.9,0.3,2.6,0.8
		c0.8,0.5,1.3,1.2,1.7,2c0.4,0.9,0.5,2.2,0.5,4v6.8h-1.7v-6.3c0-1.5-0.1-2.6-0.2-3.1c-0.2-0.9-0.6-1.5-1.1-2s-1.3-0.7-2.2-0.7
		c-1,0-2,0.3-2.8,1c-0.8,0.7-1.4,1.5-1.6,2.5c-0.2,0.7-0.2,1.9-0.2,3.6v4.9h-1.7V340.5z"/>
	<path class="st12" d="M81.2,340.2c2,0,3.7,0.7,5.1,2.2c1.2,1.4,1.8,3,1.8,4.8c0,1.9-0.6,3.5-1.9,4.9s-3,2.1-5,2.1
		c-2,0-3.7-0.7-5-2.1s-1.9-3-1.9-4.9c0-1.8,0.6-3.4,1.8-4.8C77.5,340.9,79.2,340.2,81.2,340.2z M81.2,341.8c-1.4,0-2.6,0.5-3.7,1.6
		c-1,1-1.5,2.3-1.5,3.8c0,1,0.2,1.9,0.7,2.7c0.5,0.8,1.1,1.5,1.9,1.9c0.8,0.5,1.7,0.7,2.6,0.7s1.8-0.2,2.6-0.7
		c0.8-0.5,1.4-1.1,1.9-1.9c0.5-0.8,0.7-1.7,0.7-2.7c0-1.5-0.5-2.8-1.5-3.8C83.8,342.4,82.6,341.8,81.2,341.8z"/>
	<path class="st12" d="M91.1,340.5h1.7v6.2c0,1.5,0.1,2.6,0.2,3.1c0.2,0.8,0.7,1.5,1.4,1.9s1.5,0.7,2.5,0.7c1,0,1.8-0.2,2.4-0.7
		c0.7-0.5,1.1-1.1,1.4-1.8c0.2-0.5,0.3-1.6,0.3-3.3v-6.2h1.7v6.5c0,1.8-0.2,3.2-0.6,4.1c-0.4,0.9-1.1,1.7-1.9,2.2
		c-0.9,0.5-1.9,0.8-3.2,0.8s-2.4-0.3-3.2-0.8c-0.9-0.5-1.5-1.3-1.9-2.2c-0.4-0.9-0.6-2.4-0.6-4.2V340.5z"/>
	<path class="st12" d="M113.2,342l-1.1,1.1c-0.9-0.9-1.8-1.3-2.7-1.3c-0.6,0-1,0.2-1.4,0.5c-0.4,0.4-0.6,0.8-0.6,1.3
		c0,0.4,0.2,0.8,0.5,1.2c0.3,0.4,1,0.9,2.1,1.4c1.3,0.7,2.1,1.3,2.6,1.9c0.4,0.6,0.7,1.3,0.7,2.1c0,1.1-0.4,2-1.1,2.8
		c-0.8,0.8-1.7,1.1-2.9,1.1c-0.8,0-1.5-0.2-2.2-0.5c-0.7-0.3-1.3-0.8-1.7-1.4l1.1-1.2c0.9,1,1.8,1.5,2.8,1.5c0.7,0,1.3-0.2,1.8-0.7
		s0.7-1,0.7-1.5c0-0.5-0.2-0.9-0.5-1.3c-0.3-0.4-1-0.8-2.2-1.4c-1.2-0.6-2-1.2-2.4-1.8c-0.4-0.6-0.6-1.3-0.6-2.1c0-1,0.3-1.8,1-2.5
		c0.7-0.7,1.6-1,2.6-1C110.7,340.2,111.9,340.8,113.2,342z"/>
	<path class="st12" d="M136.4,340.5v13.3h-1.7v-2.3c-0.7,0.9-1.5,1.5-2.4,2c-0.9,0.4-1.9,0.7-2.9,0.7c-1.9,0-3.5-0.7-4.8-2
		c-1.3-1.4-2-3-2-5c0-1.9,0.7-3.5,2-4.9c1.3-1.4,3-2,4.8-2c1.1,0,2.1,0.2,3,0.7c0.9,0.5,1.7,1.2,2.3,2.1v-2.4H136.4z M129.5,341.8
		c-1,0-1.8,0.2-2.6,0.7c-0.8,0.5-1.4,1.1-1.9,2c-0.5,0.8-0.7,1.7-0.7,2.7c0,0.9,0.2,1.8,0.7,2.7s1.1,1.5,1.9,2s1.7,0.7,2.6,0.7
		c0.9,0,1.8-0.2,2.7-0.7c0.8-0.5,1.5-1.1,1.9-1.9s0.7-1.7,0.7-2.7c0-1.5-0.5-2.8-1.5-3.9C132.3,342.3,131,341.8,129.5,341.8z"/>
	<path class="st12" d="M139,340.5h1.8l4.5,9.7l4.4-9.7h1.8l-6.1,13.3h-0.3L139,340.5z"/>
	<path class="st12" d="M165.2,349.4l1.4,0.8c-0.5,0.9-1,1.7-1.6,2.2c-0.6,0.6-1.3,1-2.1,1.3c-0.8,0.3-1.7,0.4-2.6,0.4
		c-2.2,0-3.9-0.7-5.1-2.1s-1.8-3-1.8-4.8c0-1.7,0.5-3.2,1.6-4.5c1.3-1.7,3.1-2.5,5.3-2.5c2.3,0,4.1,0.9,5.4,2.6
		c1,1.2,1.5,2.7,1.5,4.5h-12c0,1.5,0.5,2.8,1.5,3.8c1,1,2.1,1.5,3.5,1.5c0.7,0,1.3-0.1,2-0.4c0.6-0.2,1.2-0.5,1.6-0.9
		C164.2,350.9,164.7,350.3,165.2,349.4z M165.2,345.8c-0.2-0.9-0.6-1.6-1-2.2c-0.4-0.5-1-1-1.7-1.3c-0.7-0.3-1.5-0.5-2.3-0.5
		c-1.3,0-2.4,0.4-3.4,1.3c-0.7,0.6-1.2,1.5-1.6,2.7H165.2z"/>
	<path class="st12" d="M169.2,340.5h9.8l-7.5,11.8h7.3v1.5h-10.2L176,342h-6.8V340.5z"/>
	<path class="st12" d="M200.7,343.3l-1.4,0.8c-1.2-1.6-2.8-2.3-4.8-2.3c-1.6,0-3,0.5-4,1.6c-1.1,1-1.6,2.3-1.6,3.8
		c0,1,0.2,1.9,0.7,2.7c0.5,0.9,1.2,1.5,2,2s1.8,0.7,2.9,0.7c2,0,3.5-0.8,4.8-2.3l1.4,0.9c-0.6,1-1.5,1.7-2.6,2.2
		c-1.1,0.5-2.3,0.8-3.7,0.8c-2.1,0-3.8-0.7-5.2-2s-2.1-3-2.1-4.9c0-1.3,0.3-2.5,1-3.6c0.6-1.1,1.5-2,2.7-2.6s2.4-0.9,3.8-0.9
		c0.9,0,1.7,0.1,2.5,0.4c0.8,0.3,1.5,0.6,2.1,1.1C199.9,342.1,200.3,342.6,200.7,343.3z"/>
	<path class="st12" d="M210.3,340.2c2,0,3.7,0.7,5.1,2.2c1.2,1.4,1.8,3,1.8,4.8c0,1.9-0.6,3.5-1.9,4.9c-1.3,1.4-3,2.1-5,2.1
		c-2,0-3.7-0.7-5-2.1c-1.3-1.4-1.9-3-1.9-4.9c0-1.8,0.6-3.4,1.8-4.8C206.6,340.9,208.3,340.2,210.3,340.2z M210.3,341.8
		c-1.4,0-2.6,0.5-3.7,1.6c-1,1-1.5,2.3-1.5,3.8c0,1,0.2,1.9,0.7,2.7c0.5,0.8,1.1,1.5,1.9,1.9c0.8,0.5,1.7,0.7,2.6,0.7
		s1.8-0.2,2.6-0.7c0.8-0.5,1.4-1.1,1.9-1.9s0.7-1.7,0.7-2.7c0-1.5-0.5-2.8-1.5-3.8C212.9,342.4,211.7,341.8,210.3,341.8z"/>
	<path class="st12" d="M220.4,340.5h1.7v2.3c0.6-0.8,1.2-1.5,1.8-1.9c0.9-0.5,1.8-0.8,2.7-0.8c0.6,0,1.3,0.1,1.8,0.4
		c0.6,0.3,1.1,0.6,1.4,1s0.7,1,1,1.8c0.6-1,1.3-1.8,2.1-2.4c0.9-0.5,1.8-0.8,2.8-0.8c0.9,0,1.7,0.2,2.4,0.7c0.7,0.5,1.2,1.1,1.6,1.9
		s0.5,2.1,0.5,3.7v7.3h-1.7v-7.3c0-1.4-0.1-2.4-0.3-2.9c-0.2-0.5-0.5-1-1-1.3c-0.5-0.3-1.1-0.5-1.8-0.5c-0.8,0-1.6,0.2-2.3,0.7
		s-1.2,1.1-1.5,2s-0.5,2.2-0.5,4.1v5.2h-1.7V347c0-1.6-0.1-2.7-0.3-3.3c-0.2-0.6-0.5-1-1-1.4c-0.5-0.3-1.1-0.5-1.8-0.5
		c-0.8,0-1.5,0.2-2.2,0.7c-0.7,0.5-1.2,1.1-1.5,1.9c-0.3,0.8-0.5,2-0.5,3.7v5.6h-1.7V340.5z"/>
	<path class="st12" d="M243.9,340.5h1.7v2.4c0.7-0.9,1.5-1.6,2.3-2.1c0.9-0.5,1.9-0.7,2.9-0.7c1.9,0,3.5,0.7,4.8,2
		c1.3,1.4,2,3,2,4.9c0,2-0.7,3.6-2,5c-1.3,1.4-2.9,2-4.8,2c-1.1,0-2-0.2-2.9-0.7c-0.9-0.4-1.7-1.1-2.4-2v7.1h-1.7V340.5z
		 M250.7,341.8c-1.5,0-2.7,0.5-3.7,1.5s-1.5,2.3-1.5,3.9c0,1,0.2,1.9,0.7,2.7c0.5,0.8,1.1,1.4,1.9,1.9c0.8,0.5,1.7,0.7,2.7,0.7
		c0.9,0,1.8-0.2,2.6-0.7c0.8-0.5,1.5-1.1,1.9-2c0.5-0.9,0.7-1.7,0.7-2.7c0-0.9-0.2-1.8-0.7-2.7s-1.1-1.5-1.9-2
		C252.5,342.1,251.7,341.8,250.7,341.8z"/>
	<path class="st12" d="M260.3,340.5h1.7v1.9c0.5-0.8,1.1-1.3,1.6-1.7c0.6-0.4,1.2-0.6,1.8-0.6c0.5,0,1,0.2,1.5,0.5l-0.9,1.4
		c-0.4-0.2-0.7-0.2-0.9-0.2c-0.6,0-1.1,0.2-1.6,0.7s-0.9,1.2-1.2,2.2c-0.2,0.8-0.3,2.3-0.3,4.6v4.5h-1.7V340.5z"/>
	<path class="st12" d="M269,335c0.4,0,0.7,0.1,1,0.4c0.3,0.3,0.4,0.6,0.4,1c0,0.4-0.1,0.7-0.4,1c-0.3,0.3-0.6,0.4-1,0.4
		c-0.4,0-0.7-0.1-1-0.4c-0.3-0.3-0.4-0.6-0.4-1c0-0.4,0.1-0.7,0.4-1S268.6,335,269,335z M268.2,340.5h1.7v13.3h-1.7V340.5z"/>
	<path class="st12" d="M280.1,342l-1.1,1.1c-0.9-0.9-1.8-1.3-2.7-1.3c-0.6,0-1,0.2-1.4,0.5c-0.4,0.4-0.6,0.8-0.6,1.3
		c0,0.4,0.2,0.8,0.5,1.2c0.3,0.4,1,0.9,2.1,1.4c1.3,0.7,2.1,1.3,2.6,1.9c0.4,0.6,0.7,1.3,0.7,2.1c0,1.1-0.4,2-1.1,2.8
		c-0.8,0.8-1.7,1.1-2.9,1.1c-0.8,0-1.5-0.2-2.2-0.5c-0.7-0.3-1.3-0.8-1.7-1.4l1.1-1.2c0.9,1,1.8,1.5,2.8,1.5c0.7,0,1.3-0.2,1.8-0.7
		s0.7-1,0.7-1.5c0-0.5-0.2-0.9-0.5-1.3c-0.3-0.4-1-0.8-2.2-1.4c-1.2-0.6-2-1.2-2.4-1.8c-0.4-0.6-0.6-1.3-0.6-2.1c0-1,0.3-1.8,1-2.5
		c0.7-0.7,1.6-1,2.6-1C277.6,340.2,278.9,340.8,280.1,342z"/>
	<path class="st12" d="M291.8,351.1c0.4,0,0.8,0.1,1.1,0.4s0.4,0.7,0.4,1.1c0,0.4-0.1,0.8-0.4,1.1s-0.6,0.4-1.1,0.4
		s-0.8-0.1-1.1-0.4s-0.4-0.7-0.4-1.1c0-0.4,0.1-0.8,0.4-1.1S291.4,351.1,291.8,351.1z M292.7,335.4v13.9h-1.8v-13.9H292.7z"/>
</g>
<g class="st11">
	<path class="st12" d="M430.4,416.2l-1.4,1.1c-0.8-1-1.7-1.8-2.8-2.3c-1.1-0.5-2.3-0.8-3.6-0.8c-1.4,0-2.8,0.3-4,1s-2.2,1.6-2.8,2.8
		c-0.7,1.2-1,2.5-1,3.9c0,2.2,0.8,4,2.3,5.5c1.5,1.5,3.4,2.2,5.7,2.2c2.5,0,4.6-1,6.3-3l1.4,1.1c-0.9,1.1-2,2-3.4,2.6
		s-2.8,0.9-4.5,0.9c-3.1,0-5.6-1-7.4-3.1c-1.5-1.8-2.3-3.9-2.3-6.4c0-2.6,0.9-4.8,2.8-6.6c1.8-1.8,4.2-2.7,6.9-2.7
		c1.7,0,3.2,0.3,4.5,1S429.6,415,430.4,416.2z"/>
	<path class="st12" d="M433.1,417.5h1.7v1.9c0.5-0.8,1.1-1.3,1.6-1.7c0.6-0.4,1.2-0.6,1.8-0.6c0.5,0,1,0.2,1.5,0.5l-0.9,1.4
		c-0.4-0.2-0.7-0.2-0.9-0.2c-0.6,0-1.1,0.2-1.6,0.7c-0.5,0.5-0.9,1.2-1.2,2.2c-0.2,0.8-0.3,2.3-0.3,4.6v4.5h-1.7V417.5z"/>
	<path class="st12" d="M452.4,426.4l1.4,0.8c-0.5,0.9-1,1.7-1.6,2.2s-1.3,1-2.1,1.3c-0.8,0.3-1.6,0.4-2.6,0.4
		c-2.2,0-3.9-0.7-5.1-2.1c-1.2-1.4-1.8-3-1.8-4.8c0-1.7,0.5-3.2,1.6-4.5c1.3-1.7,3.1-2.5,5.3-2.5c2.3,0,4.1,0.9,5.4,2.6
		c1,1.2,1.4,2.7,1.5,4.5h-12c0,1.5,0.5,2.8,1.5,3.8s2.1,1.5,3.5,1.5c0.7,0,1.3-0.1,2-0.4s1.2-0.5,1.6-0.9
		C451.4,427.9,451.9,427.3,452.4,426.4z M452.4,422.8c-0.2-0.9-0.6-1.6-1-2.2c-0.4-0.5-1-1-1.7-1.3c-0.7-0.3-1.5-0.5-2.3-0.5
		c-1.3,0-2.4,0.4-3.4,1.3c-0.7,0.6-1.2,1.5-1.6,2.7H452.4z M448.3,411.3h2.6l-3.6,3.8h-1.7L448.3,411.3z"/>
	<path class="st12" d="M470.7,417.5v13.3h-1.7v-2.3c-0.7,0.9-1.5,1.5-2.4,2c-0.9,0.4-1.9,0.7-2.9,0.7c-1.9,0-3.5-0.7-4.8-2
		c-1.3-1.4-2-3-2-5c0-1.9,0.7-3.5,2-4.9c1.3-1.4,3-2,4.8-2c1.1,0,2.1,0.2,3,0.7c0.9,0.5,1.7,1.2,2.3,2.1v-2.4H470.7z M463.9,418.8
		c-1,0-1.8,0.2-2.6,0.7c-0.8,0.5-1.4,1.1-1.9,2c-0.5,0.8-0.7,1.7-0.7,2.7c0,0.9,0.2,1.8,0.7,2.7s1.1,1.5,1.9,2
		c0.8,0.5,1.7,0.7,2.6,0.7c0.9,0,1.8-0.2,2.7-0.7c0.8-0.5,1.5-1.1,1.9-1.9s0.7-1.7,0.7-2.7c0-1.5-0.5-2.8-1.5-3.9
		C466.6,419.3,465.4,418.8,463.9,418.8z"/>
	<path class="st12" d="M476.1,412.6h1.7v4.9h2.7v1.5h-2.7v11.8h-1.7V419h-2.3v-1.5h2.3V412.6z"/>
	<path class="st12" d="M483.7,412c0.4,0,0.7,0.1,1,0.4s0.4,0.6,0.4,1c0,0.4-0.1,0.7-0.4,1c-0.3,0.3-0.6,0.4-1,0.4
		c-0.4,0-0.7-0.1-1-0.4c-0.3-0.3-0.4-0.6-0.4-1c0-0.4,0.1-0.7,0.4-1S483.3,412,483.7,412z M482.8,417.5h1.7v13.3h-1.7V417.5z"/>
	<path class="st12" d="M494.4,417.2c2,0,3.7,0.7,5.1,2.2c1.2,1.4,1.8,3,1.8,4.8c0,1.9-0.6,3.5-1.9,4.9c-1.3,1.4-3,2.1-5,2.1
		c-2,0-3.7-0.7-5-2.1c-1.3-1.4-1.9-3-1.9-4.9c0-1.8,0.6-3.4,1.8-4.8C490.6,417.9,492.3,417.2,494.4,417.2z M494.3,418.8
		c-1.4,0-2.6,0.5-3.7,1.6c-1,1-1.5,2.3-1.5,3.8c0,1,0.2,1.9,0.7,2.7c0.5,0.8,1.1,1.5,1.9,1.9c0.8,0.5,1.7,0.7,2.6,0.7
		s1.8-0.2,2.6-0.7c0.8-0.5,1.4-1.1,1.9-1.9s0.7-1.7,0.7-2.7c0-1.5-0.5-2.8-1.5-3.8C497,419.4,495.8,418.8,494.3,418.8z"/>
	<path class="st12" d="M504.4,417.5h1.7v2.4c0.7-0.9,1.4-1.6,2.3-2c0.8-0.5,1.7-0.7,2.7-0.7c1,0,1.9,0.3,2.6,0.8
		c0.8,0.5,1.3,1.2,1.7,2c0.4,0.9,0.5,2.2,0.5,4v6.8h-1.7v-6.3c0-1.5-0.1-2.6-0.2-3.1c-0.2-0.9-0.6-1.5-1.1-2s-1.3-0.7-2.2-0.7
		c-1,0-2,0.3-2.8,1c-0.8,0.7-1.4,1.5-1.6,2.5c-0.2,0.7-0.2,1.9-0.2,3.6v4.9h-1.7V417.5z"/>
	<path class="st12" d="M539.9,412.4v18.4h-1.7v-2.3c-0.7,0.9-1.5,1.5-2.4,2c-0.9,0.4-1.9,0.7-2.9,0.7c-1.9,0-3.5-0.7-4.8-2
		c-1.3-1.4-2-3-2-5c0-1.9,0.7-3.5,2-4.9c1.3-1.4,3-2,4.8-2c1.1,0,2.1,0.2,3,0.7c0.9,0.5,1.7,1.2,2.3,2.1v-7.6H539.9z M533,418.8
		c-1,0-1.8,0.2-2.6,0.7c-0.8,0.5-1.4,1.1-1.9,2c-0.5,0.8-0.7,1.7-0.7,2.7c0,0.9,0.2,1.8,0.7,2.7s1.1,1.5,1.9,2
		c0.8,0.5,1.7,0.7,2.6,0.7c0.9,0,1.8-0.2,2.7-0.7c0.8-0.5,1.5-1.1,1.9-1.9s0.7-1.7,0.7-2.7c0-1.5-0.5-2.8-1.5-3.9
		C535.8,419.3,534.5,418.8,533,418.8z"/>
	<path class="st12" d="M546.1,419.1l-0.9-0.5c0.3-0.6,0.5-1.1,0.6-1.5c0.1-0.3,0.2-0.8,0.2-1.4h-1.1v-3.4h2.2v2.1
		c0,1-0.1,1.9-0.2,2.5C546.8,417.6,546.5,418.3,546.1,419.1z"/>
	<path class="st12" d="M560.1,412.8l8.4,18h-1.9l-2.8-5.9H556l-2.8,5.9h-2l8.5-18H560.1z M559.9,416.7l-3.1,6.5h6.1L559.9,416.7z"/>
	<path class="st12" d="M570.8,417.5h1.7v6.2c0,1.5,0.1,2.6,0.2,3.1c0.2,0.8,0.7,1.5,1.4,1.9c0.7,0.5,1.5,0.7,2.5,0.7
		c1,0,1.8-0.2,2.4-0.7c0.7-0.5,1.1-1.1,1.4-1.8c0.2-0.5,0.3-1.6,0.3-3.3v-6.2h1.7v6.5c0,1.8-0.2,3.2-0.6,4.1
		c-0.4,0.9-1.1,1.7-1.9,2.2c-0.9,0.5-1.9,0.8-3.2,0.8s-2.4-0.3-3.2-0.8c-0.9-0.5-1.5-1.3-1.9-2.2c-0.4-0.9-0.6-2.4-0.6-4.2V417.5z"
		/>
	<path class="st12" d="M585.6,417.5h1.7v1.9c0.5-0.8,1.1-1.3,1.6-1.7c0.6-0.4,1.2-0.6,1.8-0.6c0.5,0,1,0.2,1.5,0.5l-0.9,1.4
		c-0.4-0.2-0.7-0.2-0.9-0.2c-0.6,0-1.1,0.2-1.6,0.7s-0.9,1.2-1.2,2.2c-0.2,0.8-0.3,2.3-0.3,4.6v4.5h-1.7V417.5z"/>
	<path class="st12" d="M604.9,426.4l1.4,0.8c-0.5,0.9-1,1.7-1.6,2.2s-1.3,1-2.1,1.3c-0.8,0.3-1.7,0.4-2.6,0.4
		c-2.2,0-3.9-0.7-5.1-2.1s-1.8-3-1.8-4.8c0-1.7,0.5-3.2,1.6-4.5c1.3-1.7,3.1-2.5,5.3-2.5c2.3,0,4.1,0.9,5.4,2.6
		c1,1.2,1.5,2.7,1.5,4.5h-12c0,1.5,0.5,2.8,1.5,3.8c1,1,2.1,1.5,3.5,1.5c0.7,0,1.3-0.1,2-0.4c0.6-0.2,1.2-0.5,1.6-0.9
		C603.9,427.9,604.4,427.3,604.9,426.4z M604.9,422.8c-0.2-0.9-0.6-1.6-1-2.2c-0.4-0.5-1-1-1.7-1.3c-0.7-0.3-1.5-0.5-2.3-0.5
		c-1.3,0-2.4,0.4-3.4,1.3c-0.7,0.6-1.2,1.5-1.6,2.7H604.9z"/>
	<path class="st12" d="M609.3,417.5h1.7v1.9c0.5-0.8,1.1-1.3,1.6-1.7c0.6-0.4,1.2-0.6,1.8-0.6c0.5,0,1,0.2,1.5,0.5l-0.9,1.4
		c-0.4-0.2-0.7-0.2-0.9-0.2c-0.6,0-1.1,0.2-1.6,0.7c-0.5,0.5-0.9,1.2-1.2,2.2c-0.2,0.8-0.3,2.3-0.3,4.6v4.5h-1.7V417.5z"/>
	<path class="st12" d="M630.7,417.5v13.3H629v-2.3c-0.7,0.9-1.5,1.5-2.4,2c-0.9,0.4-1.9,0.7-2.9,0.7c-1.9,0-3.5-0.7-4.8-2
		c-1.3-1.4-2-3-2-5c0-1.9,0.7-3.5,2-4.9c1.3-1.4,3-2,4.8-2c1.1,0,2.1,0.2,3,0.7c0.9,0.5,1.7,1.2,2.3,2.1v-2.4H630.7z M623.9,418.8
		c-1,0-1.8,0.2-2.6,0.7c-0.8,0.5-1.4,1.1-1.9,2s-0.7,1.7-0.7,2.7c0,0.9,0.2,1.8,0.7,2.7s1.1,1.5,1.9,2c0.8,0.5,1.7,0.7,2.6,0.7
		c0.9,0,1.8-0.2,2.7-0.7c0.8-0.5,1.5-1.1,1.9-1.9s0.7-1.7,0.7-2.7c0-1.5-0.5-2.8-1.5-3.9C626.6,419.3,625.4,418.8,623.9,418.8z"/>
</g>
<g class="st11">
	<path class="st12" d="M422.3,733.4c2.7,0,5,0.9,6.8,2.7c1.8,1.8,2.7,4,2.7,6.7c0,2.6-0.9,4.9-2.7,6.7c-1.8,1.8-4.1,2.7-6.7,2.7
		c-2.7,0-4.9-0.9-6.7-2.7s-2.7-4-2.7-6.6c0-1.7,0.4-3.3,1.3-4.8c0.8-1.5,2-2.6,3.4-3.5C419,733.8,420.6,733.4,422.3,733.4z
		 M422.3,735.1c-1.3,0-2.6,0.3-3.8,1c-1.2,0.7-2.1,1.6-2.8,2.8c-0.7,1.2-1,2.5-1,3.9c0,2.1,0.7,3.9,2.2,5.4c1.5,1.5,3.3,2.2,5.3,2.2
		c1.4,0,2.7-0.3,3.9-1c1.2-0.7,2.1-1.6,2.8-2.8c0.7-1.2,1-2.5,1-3.9c0-1.4-0.3-2.7-1-3.9c-0.7-1.2-1.6-2.1-2.8-2.8
		C425,735.5,423.7,735.1,422.3,735.1z"/>
	<path class="st12" d="M435.2,738.5h1.7v2.4c0.7-0.9,1.4-1.6,2.3-2c0.8-0.5,1.7-0.7,2.7-0.7c1,0,1.9,0.3,2.6,0.8
		c0.8,0.5,1.3,1.2,1.7,2c0.4,0.9,0.5,2.2,0.5,4v6.8H445v-6.3c0-1.5-0.1-2.6-0.2-3.1c-0.2-0.9-0.6-1.5-1.1-2s-1.3-0.7-2.2-0.7
		c-1,0-2,0.3-2.8,1c-0.8,0.7-1.4,1.5-1.6,2.5c-0.2,0.7-0.2,1.9-0.2,3.6v4.9h-1.7V738.5z"/>
	<path class="st12" d="M457.3,738.5h1.7v2.4c0.7-0.9,1.4-1.6,2.3-2c0.8-0.5,1.7-0.7,2.7-0.7c1,0,1.9,0.3,2.6,0.8
		c0.8,0.5,1.3,1.2,1.7,2c0.4,0.9,0.5,2.2,0.5,4v6.8h-1.7v-6.3c0-1.5-0.1-2.6-0.2-3.1c-0.2-0.9-0.6-1.5-1.1-2s-1.3-0.7-2.2-0.7
		c-1,0-2,0.3-2.8,1c-0.8,0.7-1.4,1.5-1.6,2.5c-0.2,0.7-0.2,1.9-0.2,3.6v4.9h-1.7V738.5z"/>
	<path class="st12" d="M483.7,747.4l1.4,0.8c-0.5,0.9-1,1.7-1.6,2.2s-1.3,1-2.1,1.3c-0.8,0.3-1.6,0.4-2.6,0.4
		c-2.2,0-3.9-0.7-5.1-2.1c-1.2-1.4-1.8-3-1.8-4.8c0-1.7,0.5-3.2,1.6-4.5c1.3-1.7,3.1-2.5,5.3-2.5c2.3,0,4.1,0.9,5.4,2.6
		c1,1.2,1.4,2.7,1.5,4.5h-12c0,1.5,0.5,2.8,1.5,3.8s2.1,1.5,3.5,1.5c0.7,0,1.3-0.1,2-0.4s1.2-0.5,1.6-0.9
		C482.7,748.9,483.2,748.3,483.7,747.4z M483.7,743.8c-0.2-0.9-0.6-1.6-1-2.2c-0.4-0.5-1-1-1.7-1.3c-0.7-0.3-1.5-0.5-2.3-0.5
		c-1.3,0-2.4,0.4-3.4,1.3c-0.7,0.6-1.2,1.5-1.6,2.7H483.7z"/>
	<path class="st12" d="M502.4,740l-1.1,1.1c-0.9-0.9-1.8-1.3-2.7-1.3c-0.6,0-1,0.2-1.4,0.5c-0.4,0.4-0.6,0.8-0.6,1.3
		c0,0.4,0.2,0.8,0.5,1.2c0.3,0.4,1,0.9,2.1,1.4c1.3,0.7,2.1,1.3,2.6,1.9c0.4,0.6,0.7,1.3,0.7,2.1c0,1.1-0.4,2-1.1,2.8
		c-0.8,0.8-1.7,1.1-2.9,1.1c-0.8,0-1.5-0.2-2.2-0.5c-0.7-0.3-1.3-0.8-1.7-1.4l1.1-1.2c0.9,1,1.8,1.5,2.8,1.5c0.7,0,1.3-0.2,1.7-0.7
		c0.5-0.4,0.7-1,0.7-1.6c0-0.5-0.2-0.9-0.5-1.3c-0.3-0.4-1-0.8-2.2-1.4c-1.2-0.6-2-1.2-2.4-1.8c-0.4-0.6-0.6-1.3-0.6-2.1
		c0-1,0.3-1.8,1-2.5c0.7-0.7,1.6-1,2.6-1C499.9,738.2,501.2,738.8,502.4,740z"/>
	<path class="st12" d="M516.6,747.4l1.4,0.8c-0.5,0.9-1,1.7-1.6,2.2s-1.3,1-2.1,1.3c-0.8,0.3-1.7,0.4-2.6,0.4
		c-2.2,0-3.9-0.7-5.1-2.1s-1.8-3-1.8-4.8c0-1.7,0.5-3.2,1.6-4.5c1.3-1.7,3.1-2.5,5.3-2.5c2.3,0,4.1,0.9,5.4,2.6
		c1,1.2,1.5,2.7,1.5,4.5h-12c0,1.5,0.5,2.8,1.5,3.8c1,1,2.1,1.5,3.5,1.5c0.7,0,1.3-0.1,2-0.4c0.6-0.2,1.2-0.5,1.6-0.9
		C515.6,748.9,516.1,748.3,516.6,747.4z M516.6,743.8c-0.2-0.9-0.6-1.6-1-2.2c-0.4-0.5-1-1-1.7-1.3c-0.7-0.3-1.5-0.5-2.3-0.5
		c-1.3,0-2.4,0.4-3.4,1.3c-0.7,0.6-1.2,1.5-1.6,2.7H516.6z"/>
	<path class="st12" d="M521,738.5h1.7v1.9c0.5-0.8,1.1-1.3,1.6-1.7c0.6-0.4,1.2-0.6,1.8-0.6c0.5,0,1,0.2,1.5,0.5l-0.9,1.4
		c-0.4-0.2-0.7-0.2-0.9-0.2c-0.6,0-1.1,0.2-1.6,0.7c-0.5,0.5-0.9,1.2-1.2,2.2c-0.2,0.8-0.3,2.3-0.3,4.6v4.5H521V738.5z"/>
	<path class="st12" d="M542.4,738.5v13.3h-1.7v-2.3c-0.7,0.9-1.5,1.5-2.4,2c-0.9,0.4-1.9,0.7-2.9,0.7c-1.9,0-3.5-0.7-4.8-2
		c-1.3-1.4-2-3-2-5c0-1.9,0.7-3.5,2-4.9c1.3-1.4,3-2,4.8-2c1.1,0,2.1,0.2,3,0.7c0.9,0.5,1.7,1.2,2.3,2.1v-2.4H542.4z M535.6,739.8
		c-1,0-1.8,0.2-2.6,0.7c-0.8,0.5-1.4,1.1-1.9,2s-0.7,1.7-0.7,2.7c0,0.9,0.2,1.8,0.7,2.7s1.1,1.5,1.9,2c0.8,0.5,1.7,0.7,2.6,0.7
		c0.9,0,1.8-0.2,2.7-0.7c0.8-0.5,1.5-1.1,1.9-1.9s0.7-1.7,0.7-2.7c0-1.5-0.5-2.8-1.5-3.9C538.3,740.3,537.1,739.8,535.6,739.8z"/>
	<path class="st12" d="M553.2,738.5h1.7v2.4c0.7-0.9,1.5-1.6,2.3-2.1c0.9-0.5,1.9-0.7,2.9-0.7c1.9,0,3.5,0.7,4.8,2
		c1.3,1.4,2,3,2,4.9c0,2-0.7,3.6-2,5s-2.9,2-4.8,2c-1.1,0-2-0.2-2.9-0.7c-0.9-0.4-1.7-1.1-2.4-2v7.1h-1.7V738.5z M560.1,739.8
		c-1.5,0-2.7,0.5-3.7,1.5c-1,1-1.5,2.3-1.5,3.9c0,1,0.2,1.9,0.7,2.7c0.5,0.8,1.1,1.4,1.9,1.9c0.8,0.5,1.7,0.7,2.7,0.7
		c0.9,0,1.8-0.2,2.6-0.7c0.8-0.5,1.5-1.1,1.9-2c0.5-0.9,0.7-1.7,0.7-2.7c0-0.9-0.2-1.8-0.7-2.7s-1.1-1.5-1.9-2
		C561.9,740.1,561,739.8,560.1,739.8z"/>
	<path class="st12" d="M570,733.4h1.7v18.4H570V733.4z"/>
	<path class="st12" d="M575,738.5h1.7v6.2c0,1.5,0.1,2.6,0.2,3.1c0.2,0.8,0.7,1.5,1.4,1.9c0.7,0.5,1.5,0.7,2.5,0.7
		c1,0,1.8-0.2,2.4-0.7c0.7-0.5,1.1-1.1,1.4-1.8c0.2-0.5,0.3-1.6,0.3-3.3v-6.2h1.7v6.5c0,1.8-0.2,3.2-0.6,4.1
		c-0.4,0.9-1.1,1.7-1.9,2.2c-0.9,0.5-1.9,0.8-3.2,0.8s-2.4-0.3-3.2-0.8c-0.9-0.5-1.5-1.3-1.9-2.2c-0.4-0.9-0.6-2.4-0.6-4.2V738.5z"
		/>
	<path class="st12" d="M597.1,740l-1.1,1.1c-0.9-0.9-1.8-1.3-2.7-1.3c-0.6,0-1,0.2-1.4,0.5c-0.4,0.4-0.6,0.8-0.6,1.3
		c0,0.4,0.2,0.8,0.5,1.2c0.3,0.4,1,0.9,2.1,1.4c1.3,0.7,2.1,1.3,2.6,1.9c0.4,0.6,0.7,1.3,0.7,2.1c0,1.1-0.4,2-1.1,2.8
		c-0.8,0.8-1.7,1.1-2.9,1.1c-0.8,0-1.5-0.2-2.2-0.5c-0.7-0.3-1.3-0.8-1.7-1.4l1.1-1.2c0.9,1,1.8,1.5,2.8,1.5c0.7,0,1.3-0.2,1.7-0.7
		c0.5-0.4,0.7-1,0.7-1.6c0-0.5-0.2-0.9-0.5-1.3c-0.3-0.4-1-0.8-2.2-1.4c-1.2-0.6-2-1.2-2.4-1.8c-0.4-0.6-0.6-1.3-0.6-2.1
		c0-1,0.3-1.8,1-2.5c0.7-0.7,1.6-1,2.6-1C594.7,738.2,595.9,738.8,597.1,740z"/>
	<path class="st12" d="M620.3,738.5v13.3h-1.7v-2.3c-0.7,0.9-1.5,1.5-2.4,2c-0.9,0.4-1.9,0.7-2.9,0.7c-1.9,0-3.5-0.7-4.8-2
		c-1.3-1.4-2-3-2-5c0-1.9,0.7-3.5,2-4.9c1.3-1.4,3-2,4.8-2c1.1,0,2.1,0.2,3,0.7c0.9,0.5,1.7,1.2,2.3,2.1v-2.4H620.3z M613.5,739.8
		c-1,0-1.8,0.2-2.6,0.7c-0.8,0.5-1.4,1.1-1.9,2s-0.7,1.7-0.7,2.7c0,0.9,0.2,1.8,0.7,2.7s1.1,1.5,1.9,2c0.8,0.5,1.7,0.7,2.6,0.7
		c0.9,0,1.8-0.2,2.7-0.7c0.8-0.5,1.5-1.1,1.9-1.9s0.7-1.7,0.7-2.7c0-1.5-0.5-2.8-1.5-3.9C616.2,740.3,615,739.8,613.5,739.8z"/>
	<path class="st12" d="M623.9,738.5h1.7v6.2c0,1.5,0.1,2.6,0.2,3.1c0.2,0.8,0.7,1.5,1.4,1.9c0.7,0.5,1.5,0.7,2.5,0.7
		c1,0,1.8-0.2,2.4-0.7c0.7-0.5,1.1-1.1,1.4-1.8c0.2-0.5,0.3-1.6,0.3-3.3v-6.2h1.7v6.5c0,1.8-0.2,3.2-0.6,4.1
		c-0.4,0.9-1.1,1.7-1.9,2.2c-0.9,0.5-1.9,0.8-3.2,0.8s-2.4-0.3-3.2-0.8c-0.9-0.5-1.5-1.3-1.9-2.2c-0.4-0.9-0.6-2.4-0.6-4.2V738.5z"
		/>
	<path class="st12" d="M646,740l-1.1,1.1c-0.9-0.9-1.8-1.3-2.7-1.3c-0.6,0-1,0.2-1.4,0.5c-0.4,0.4-0.6,0.8-0.6,1.3
		c0,0.4,0.2,0.8,0.5,1.2c0.3,0.4,1,0.9,2.1,1.4c1.3,0.7,2.1,1.3,2.6,1.9c0.4,0.6,0.7,1.3,0.7,2.1c0,1.1-0.4,2-1.1,2.8
		c-0.8,0.8-1.7,1.1-2.9,1.1c-0.8,0-1.5-0.2-2.2-0.5c-0.7-0.3-1.3-0.8-1.7-1.4l1.1-1.2c0.9,1,1.8,1.5,2.8,1.5c0.7,0,1.3-0.2,1.7-0.7
		c0.5-0.4,0.7-1,0.7-1.6c0-0.5-0.2-0.9-0.5-1.3c-0.3-0.4-1-0.8-2.2-1.4c-1.2-0.6-2-1.2-2.4-1.8c-0.4-0.6-0.6-1.3-0.6-2.1
		c0-1,0.3-1.8,1-2.5c0.7-0.7,1.6-1,2.6-1C643.6,738.2,644.8,738.8,646,740z"/>
	<path class="st12" d="M655.7,740l-1.1,1.1c-0.9-0.9-1.8-1.3-2.7-1.3c-0.6,0-1,0.2-1.4,0.5c-0.4,0.4-0.6,0.8-0.6,1.3
		c0,0.4,0.2,0.8,0.5,1.2c0.3,0.4,1,0.9,2.1,1.4c1.3,0.7,2.1,1.3,2.6,1.9c0.4,0.6,0.7,1.3,0.7,2.1c0,1.1-0.4,2-1.1,2.8
		c-0.8,0.8-1.7,1.1-2.9,1.1c-0.8,0-1.5-0.2-2.2-0.5c-0.7-0.3-1.3-0.8-1.7-1.4l1.1-1.2c0.9,1,1.8,1.5,2.8,1.5c0.7,0,1.3-0.2,1.8-0.7
		s0.7-1,0.7-1.6c0-0.5-0.2-0.9-0.5-1.3c-0.3-0.4-1-0.8-2.2-1.4c-1.2-0.6-2-1.2-2.4-1.8c-0.4-0.6-0.6-1.3-0.6-2.1c0-1,0.3-1.8,1-2.5
		c0.7-0.7,1.6-1,2.6-1C653.3,738.2,654.5,738.8,655.7,740z"/>
	<path class="st12" d="M659.4,733c0.4,0,0.7,0.1,1,0.4c0.3,0.3,0.4,0.6,0.4,1c0,0.4-0.1,0.7-0.4,1s-0.6,0.4-1,0.4
		c-0.4,0-0.7-0.1-1-0.4s-0.4-0.6-0.4-1c0-0.4,0.1-0.7,0.4-1C658.7,733.2,659,733,659.4,733z M658.5,738.5h1.7v13.3h-1.7V738.5z"/>
</g>
<g class="st11">
	<path class="st12" d="M413.2,769.5h1.7v15.3c0,1.1-0.2,1.9-0.6,2.4c-0.4,0.5-1,0.8-1.7,0.8c-0.6,0-1.2-0.1-2-0.4V786
		c0.5,0.2,0.9,0.4,1.2,0.4c0.5,0,0.8-0.2,1-0.6c0.1-0.2,0.2-0.8,0.2-1.5V769.5z M414.1,764c0.4,0,0.7,0.1,1,0.4
		c0.3,0.3,0.4,0.6,0.4,1c0,0.4-0.1,0.7-0.4,1c-0.3,0.3-0.6,0.4-1,0.4s-0.7-0.1-1-0.4s-0.4-0.6-0.4-1c0-0.4,0.1-0.7,0.4-1
		C413.3,764.2,413.7,764,414.1,764z"/>
	<path class="st12" d="M429.7,778.4l1.4,0.8c-0.5,0.9-1,1.7-1.6,2.2s-1.3,1-2.1,1.3c-0.8,0.3-1.7,0.4-2.6,0.4
		c-2.2,0-3.9-0.7-5.1-2.1s-1.8-3-1.8-4.8c0-1.7,0.5-3.2,1.6-4.5c1.3-1.7,3.1-2.5,5.3-2.5c2.3,0,4.1,0.9,5.4,2.6
		c1,1.2,1.5,2.7,1.5,4.5h-12c0,1.5,0.5,2.8,1.5,3.8c1,1,2.1,1.5,3.5,1.5c0.7,0,1.3-0.1,2-0.4c0.6-0.2,1.2-0.5,1.6-0.9
		C428.7,779.9,429.2,779.3,429.7,778.4z M429.7,774.8c-0.2-0.9-0.6-1.6-1-2.2c-0.4-0.5-1-1-1.7-1.3c-0.7-0.3-1.5-0.5-2.3-0.5
		c-1.3,0-2.4,0.4-3.4,1.3c-0.7,0.6-1.2,1.5-1.6,2.7H429.7z"/>
	<path class="st12" d="M434.5,769.5h1.7v6.2c0,1.5,0.1,2.6,0.2,3.1c0.2,0.8,0.7,1.5,1.4,1.9c0.7,0.5,1.5,0.7,2.5,0.7
		c1,0,1.8-0.2,2.4-0.7c0.7-0.5,1.1-1.1,1.4-1.8c0.2-0.5,0.3-1.6,0.3-3.3v-6.2h1.7v6.5c0,1.8-0.2,3.2-0.6,4.1
		c-0.4,0.9-1.1,1.7-1.9,2.2c-0.9,0.5-1.9,0.8-3.2,0.8s-2.4-0.3-3.2-0.8c-0.9-0.5-1.5-1.3-1.9-2.2c-0.4-0.9-0.6-2.4-0.6-4.2V769.5z"
		/>
	<path class="st12" d="M449.9,769.5h1.7v2.4c0.7-0.9,1.4-1.6,2.3-2c0.8-0.5,1.7-0.7,2.7-0.7c1,0,1.9,0.3,2.6,0.8
		c0.8,0.5,1.3,1.2,1.7,2c0.4,0.9,0.5,2.2,0.5,4v6.8h-1.7v-6.3c0-1.5-0.1-2.6-0.2-3.1c-0.2-0.9-0.6-1.5-1.1-2s-1.3-0.7-2.2-0.7
		c-1,0-2,0.3-2.8,1c-0.8,0.7-1.4,1.5-1.6,2.5c-0.2,0.7-0.2,1.9-0.2,3.6v4.9h-1.7V769.5z"/>
	<path class="st12" d="M476.4,778.4l1.4,0.8c-0.5,0.9-1,1.7-1.6,2.2s-1.3,1-2.1,1.3c-0.8,0.3-1.6,0.4-2.6,0.4
		c-2.2,0-3.9-0.7-5.1-2.1c-1.2-1.4-1.8-3-1.8-4.8c0-1.7,0.5-3.2,1.6-4.5c1.3-1.7,3.1-2.5,5.3-2.5c2.3,0,4.1,0.9,5.4,2.6
		c1,1.2,1.4,2.7,1.5,4.5h-12c0,1.5,0.5,2.8,1.5,3.8s2.1,1.5,3.5,1.5c0.7,0,1.3-0.1,2-0.4s1.2-0.5,1.6-0.9
		C475.4,779.9,475.9,779.3,476.4,778.4z M476.4,774.8c-0.2-0.9-0.6-1.6-1-2.2c-0.4-0.5-1-1-1.7-1.3c-0.7-0.3-1.5-0.5-2.3-0.5
		c-1.3,0-2.4,0.4-3.4,1.3c-0.7,0.6-1.2,1.5-1.6,2.7H476.4z"/>
	<path class="st12" d="M488.1,771l-1.1,1.1c-0.9-0.9-1.8-1.3-2.7-1.3c-0.6,0-1,0.2-1.4,0.5c-0.4,0.4-0.6,0.8-0.6,1.3
		c0,0.4,0.2,0.8,0.5,1.2c0.3,0.4,1,0.9,2.1,1.4c1.3,0.7,2.1,1.3,2.6,1.9c0.4,0.6,0.7,1.3,0.7,2.1c0,1.1-0.4,2-1.1,2.8
		c-0.8,0.8-1.7,1.1-2.9,1.1c-0.8,0-1.5-0.2-2.2-0.5c-0.7-0.3-1.3-0.8-1.7-1.4l1.1-1.2c0.9,1,1.8,1.5,2.8,1.5c0.7,0,1.3-0.2,1.8-0.7
		s0.7-1,0.7-1.6c0-0.5-0.2-0.9-0.5-1.3c-0.3-0.4-1-0.8-2.2-1.4c-1.2-0.6-2-1.2-2.4-1.8c-0.4-0.6-0.6-1.3-0.6-2.1c0-1,0.3-1.8,1-2.5
		c0.7-0.7,1.6-1,2.6-1C485.6,769.2,486.9,769.8,488.1,771z"/>
	<path class="st12" d="M492.8,779.5l1.6,0.8l-2.5,4.6l-1.2-0.5L492.8,779.5z"/>
	<path class="st12" d="M505,769.5h1.7v2.3c0.6-0.8,1.2-1.5,1.8-1.9c0.9-0.5,1.8-0.8,2.7-0.8c0.6,0,1.3,0.1,1.8,0.4
		c0.6,0.3,1.1,0.6,1.4,1c0.4,0.4,0.7,1,1,1.8c0.6-1,1.3-1.8,2.1-2.4c0.9-0.5,1.8-0.8,2.8-0.8c0.9,0,1.7,0.2,2.4,0.7
		c0.7,0.5,1.2,1.1,1.6,1.9c0.3,0.8,0.5,2.1,0.5,3.7v7.3h-1.7v-7.3c0-1.4-0.1-2.4-0.3-2.9c-0.2-0.5-0.5-1-1-1.3
		c-0.5-0.3-1.1-0.5-1.8-0.5c-0.8,0-1.6,0.2-2.3,0.7s-1.2,1.1-1.5,2c-0.3,0.8-0.5,2.2-0.5,4.1v5.2H514V776c0-1.6-0.1-2.7-0.3-3.3
		c-0.2-0.6-0.5-1-1-1.4c-0.5-0.3-1.1-0.5-1.8-0.5c-0.8,0-1.5,0.2-2.2,0.7c-0.7,0.5-1.2,1.1-1.5,1.9c-0.3,0.8-0.5,2-0.5,3.7v5.6H505
		V769.5z"/>
	<path class="st12" d="M541.7,769.5v13.3H540v-2.3c-0.7,0.9-1.5,1.5-2.4,2c-0.9,0.4-1.9,0.7-2.9,0.7c-1.9,0-3.5-0.7-4.8-2
		c-1.3-1.4-2-3-2-5c0-1.9,0.7-3.5,2-4.9c1.3-1.4,3-2,4.8-2c1.1,0,2.1,0.2,3,0.7c0.9,0.5,1.7,1.2,2.3,2.1v-2.4H541.7z M534.8,770.8
		c-1,0-1.8,0.2-2.6,0.7c-0.8,0.5-1.4,1.1-1.9,2c-0.5,0.8-0.7,1.7-0.7,2.7c0,0.9,0.2,1.8,0.7,2.7s1.1,1.5,1.9,2
		c0.8,0.5,1.7,0.7,2.6,0.7c0.9,0,1.8-0.2,2.7-0.7c0.8-0.5,1.5-1.1,1.9-1.9s0.7-1.7,0.7-2.7c0-1.5-0.5-2.8-1.5-3.9
		C537.6,771.3,536.3,770.8,534.8,770.8z"/>
	<path class="st12" d="M546.1,764c0.4,0,0.7,0.1,1,0.4c0.3,0.3,0.4,0.6,0.4,1c0,0.4-0.1,0.7-0.4,1s-0.6,0.4-1,0.4
		c-0.4,0-0.7-0.1-1-0.4s-0.4-0.6-0.4-1c0-0.4,0.1-0.7,0.4-1C545.4,764.2,545.7,764,546.1,764z M545.3,769.5h1.7v13.3h-1.7V769.5z"/>
	<path class="st12" d="M557.2,771l-1.1,1.1c-0.9-0.9-1.8-1.3-2.7-1.3c-0.6,0-1,0.2-1.4,0.5c-0.4,0.4-0.6,0.8-0.6,1.3
		c0,0.4,0.2,0.8,0.5,1.2c0.3,0.4,1,0.9,2.1,1.4c1.3,0.7,2.1,1.3,2.6,1.9c0.4,0.6,0.7,1.3,0.7,2.1c0,1.1-0.4,2-1.1,2.8
		c-0.8,0.8-1.7,1.1-2.9,1.1c-0.8,0-1.5-0.2-2.2-0.5c-0.7-0.3-1.3-0.8-1.7-1.4l1.1-1.2c0.9,1,1.8,1.5,2.8,1.5c0.7,0,1.3-0.2,1.7-0.7
		c0.5-0.4,0.7-1,0.7-1.6c0-0.5-0.2-0.9-0.5-1.3c-0.3-0.4-1-0.8-2.2-1.4c-1.2-0.6-2-1.2-2.4-1.8c-0.4-0.6-0.6-1.3-0.6-2.1
		c0-1,0.3-1.8,1-2.5c0.7-0.7,1.6-1,2.6-1C554.7,769.2,556,769.8,557.2,771z"/>
	<path class="st12" d="M568.6,764.6h1.7v4.9h2.7v1.5h-2.7v11.8h-1.7V771h-2.3v-1.5h2.3V764.6z"/>
	<path class="st12" d="M581.9,769.2c2,0,3.7,0.7,5.1,2.2c1.2,1.4,1.8,3,1.8,4.8c0,1.9-0.6,3.5-1.9,4.9c-1.3,1.4-3,2.1-5,2.1
		c-2,0-3.7-0.7-5-2.1c-1.3-1.4-1.9-3-1.9-4.9c0-1.8,0.6-3.4,1.8-4.8C578.1,769.9,579.8,769.2,581.9,769.2z M581.9,770.8
		c-1.4,0-2.6,0.5-3.7,1.6c-1,1.1-1.5,2.3-1.5,3.8c0,1,0.2,1.9,0.7,2.7c0.5,0.8,1.1,1.5,1.9,1.9c0.8,0.5,1.7,0.7,2.6,0.7
		s1.8-0.2,2.6-0.7c0.8-0.5,1.4-1.1,1.9-1.9s0.7-1.7,0.7-2.7c0-1.5-0.5-2.8-1.5-3.8C584.5,771.4,583.3,770.8,581.9,770.8z"/>
	<path class="st12" d="M591.8,769.5h1.7v6.2c0,1.5,0.1,2.6,0.2,3.1c0.2,0.8,0.7,1.5,1.4,1.9c0.7,0.5,1.5,0.7,2.5,0.7
		c1,0,1.8-0.2,2.4-0.7c0.7-0.5,1.1-1.1,1.4-1.8c0.2-0.5,0.3-1.6,0.3-3.3v-6.2h1.7v6.5c0,1.8-0.2,3.2-0.6,4.1
		c-0.4,0.9-1.1,1.7-1.9,2.2c-0.9,0.5-1.9,0.8-3.2,0.8s-2.4-0.3-3.2-0.8c-0.9-0.5-1.5-1.3-1.9-2.2c-0.4-0.9-0.6-2.4-0.6-4.2V769.5z"
		/>
	<path class="st12" d="M607,769.5h1.7v15.3c0,1.1-0.2,1.9-0.6,2.4c-0.4,0.5-1,0.8-1.7,0.8c-0.6,0-1.2-0.1-2-0.4V786
		c0.5,0.2,0.9,0.4,1.2,0.4c0.5,0,0.8-0.2,1-0.6c0.1-0.2,0.2-0.8,0.2-1.5V769.5z M607.8,764c0.4,0,0.7,0.1,1,0.4
		c0.3,0.3,0.4,0.6,0.4,1c0,0.4-0.1,0.7-0.4,1s-0.6,0.4-1,0.4s-0.7-0.1-1-0.4c-0.3-0.3-0.4-0.6-0.4-1c0-0.4,0.1-0.7,0.4-1
		C607.1,764.2,607.4,764,607.8,764z"/>
	<path class="st12" d="M618.5,769.2c2,0,3.7,0.7,5.1,2.2c1.2,1.4,1.8,3,1.8,4.8c0,1.9-0.6,3.5-1.9,4.9c-1.3,1.4-3,2.1-5,2.1
		c-2,0-3.7-0.7-5-2.1c-1.3-1.4-1.9-3-1.9-4.9c0-1.8,0.6-3.4,1.8-4.8C614.8,769.9,616.5,769.2,618.5,769.2z M618.5,770.8
		c-1.4,0-2.6,0.5-3.7,1.6c-1,1.1-1.5,2.3-1.5,3.8c0,1,0.2,1.9,0.7,2.7c0.5,0.8,1.1,1.5,1.9,1.9c0.8,0.5,1.7,0.7,2.6,0.7
		s1.8-0.2,2.6-0.7c0.8-0.5,1.4-1.1,1.9-1.9s0.7-1.7,0.7-2.7c0-1.5-0.5-2.8-1.5-3.8C621.2,771.4,620,770.8,618.5,770.8z"/>
	<path class="st12" d="M628.4,769.5h1.7v6.2c0,1.5,0.1,2.6,0.2,3.1c0.2,0.8,0.7,1.5,1.4,1.9c0.7,0.5,1.5,0.7,2.5,0.7
		c1,0,1.8-0.2,2.4-0.7c0.7-0.5,1.1-1.1,1.4-1.8c0.2-0.5,0.3-1.6,0.3-3.3v-6.2h1.7v6.5c0,1.8-0.2,3.2-0.6,4.1
		c-0.4,0.9-1.1,1.7-1.9,2.2c-0.9,0.5-1.9,0.8-3.2,0.8s-2.4-0.3-3.2-0.8c-0.9-0.5-1.5-1.3-1.9-2.2c-0.4-0.9-0.6-2.4-0.6-4.2V769.5z"
		/>
	<path class="st12" d="M643.2,769.5h1.7v1.9c0.5-0.8,1.1-1.3,1.6-1.7c0.6-0.4,1.2-0.6,1.8-0.6c0.5,0,1,0.2,1.5,0.5l-0.9,1.4
		c-0.4-0.2-0.7-0.2-0.9-0.2c-0.6,0-1.1,0.2-1.6,0.7c-0.5,0.5-0.9,1.2-1.2,2.2c-0.2,0.8-0.3,2.3-0.3,4.6v4.5h-1.7V769.5z"/>
	<path class="st12" d="M658,771l-1.1,1.1c-0.9-0.9-1.8-1.3-2.7-1.3c-0.6,0-1,0.2-1.4,0.5c-0.4,0.4-0.6,0.8-0.6,1.3
		c0,0.4,0.2,0.8,0.5,1.2c0.3,0.4,1,0.9,2.1,1.4c1.3,0.7,2.1,1.3,2.6,1.9c0.4,0.6,0.7,1.3,0.7,2.1c0,1.1-0.4,2-1.1,2.8
		c-0.8,0.8-1.7,1.1-2.9,1.1c-0.8,0-1.5-0.2-2.2-0.5c-0.7-0.3-1.3-0.8-1.7-1.4l1.1-1.2c0.9,1,1.8,1.5,2.8,1.5c0.7,0,1.3-0.2,1.7-0.7
		c0.5-0.4,0.7-1,0.7-1.6c0-0.5-0.2-0.9-0.5-1.3c-0.3-0.4-1-0.8-2.2-1.4c-1.2-0.6-2-1.2-2.4-1.8c-0.4-0.6-0.6-1.3-0.6-2.1
		c0-1,0.3-1.8,1-2.5c0.7-0.7,1.6-1,2.6-1C655.6,769.2,656.8,769.8,658,771z"/>
</g>
<g class="st11">
	<path class="st12" d="M426.7,800.5v13.3H425v-2.3c-0.7,0.9-1.5,1.5-2.4,2c-0.9,0.4-1.9,0.7-2.9,0.7c-1.9,0-3.5-0.7-4.8-2
		c-1.3-1.4-2-3-2-5c0-1.9,0.7-3.5,2-4.9c1.3-1.4,3-2,4.8-2c1.1,0,2.1,0.2,3,0.7c0.9,0.5,1.7,1.2,2.3,2.1v-2.4H426.7z M419.8,801.8
		c-1,0-1.8,0.2-2.6,0.7c-0.8,0.5-1.4,1.1-1.9,2c-0.5,0.8-0.7,1.7-0.7,2.7c0,0.9,0.2,1.8,0.7,2.7s1.1,1.5,1.9,2
		c0.8,0.5,1.7,0.7,2.6,0.7c0.9,0,1.8-0.2,2.7-0.7c0.8-0.5,1.5-1.1,1.9-1.9s0.7-1.7,0.7-2.7c0-1.5-0.5-2.8-1.5-3.9
		C422.5,802.3,421.3,801.8,419.8,801.8z"/>
	<path class="st12" d="M430.3,800.5h1.7v6.2c0,1.5,0.1,2.6,0.2,3.1c0.2,0.8,0.7,1.5,1.4,1.9c0.7,0.5,1.5,0.7,2.5,0.7
		c1,0,1.8-0.2,2.4-0.7c0.7-0.5,1.1-1.1,1.4-1.8c0.2-0.5,0.3-1.6,0.3-3.3v-6.2h1.7v6.5c0,1.8-0.2,3.2-0.6,4.1
		c-0.4,0.9-1.1,1.7-1.9,2.2c-0.9,0.5-1.9,0.8-3.2,0.8s-2.4-0.3-3.2-0.8c-0.9-0.5-1.5-1.3-1.9-2.2c-0.4-0.9-0.6-2.4-0.6-4.2V800.5z"
		/>
	<path class="st12" d="M447.2,795.6h1.7v4.9h2.7v1.5h-2.7v11.8h-1.7V802h-2.3v-1.5h2.3V795.6z"/>
	<path class="st12" d="M467.4,800.5v13.3h-1.7v-2.3c-0.7,0.9-1.5,1.5-2.4,2c-0.9,0.4-1.9,0.7-2.9,0.7c-1.9,0-3.5-0.7-4.8-2
		c-1.3-1.4-2-3-2-5c0-1.9,0.7-3.5,2-4.9c1.3-1.4,3-2,4.8-2c1.1,0,2.1,0.2,3,0.7c0.9,0.5,1.7,1.2,2.3,2.1v-2.4H467.4z M460.6,801.8
		c-1,0-1.8,0.2-2.6,0.7c-0.8,0.5-1.4,1.1-1.9,2c-0.5,0.8-0.7,1.7-0.7,2.7c0,0.9,0.2,1.8,0.7,2.7s1.1,1.5,1.9,2
		c0.8,0.5,1.7,0.7,2.6,0.7c0.9,0,1.8-0.2,2.7-0.7c0.8-0.5,1.5-1.1,1.9-1.9s0.7-1.7,0.7-2.7c0-1.5-0.5-2.8-1.5-3.9
		C463.3,802.3,462.1,801.8,460.6,801.8z"/>
	<path class="st12" d="M471.2,800.5h1.7v2.4c0.7-0.9,1.4-1.6,2.3-2c0.8-0.5,1.7-0.7,2.7-0.7c1,0,1.9,0.3,2.6,0.8
		c0.8,0.5,1.3,1.2,1.7,2c0.4,0.9,0.5,2.2,0.5,4v6.8h-1.7v-6.3c0-1.5-0.1-2.6-0.2-3.1c-0.2-0.9-0.6-1.5-1.1-2s-1.3-0.7-2.2-0.7
		c-1,0-2,0.3-2.8,1c-0.8,0.7-1.4,1.5-1.6,2.5c-0.2,0.7-0.2,1.9-0.2,3.6v4.9h-1.7V800.5z"/>
	<path class="st12" d="M488,795.6h1.7v4.9h2.7v1.5h-2.7v11.8H488V802h-2.3v-1.5h2.3V795.6z"/>
	<path class="st12" d="M501.9,800.5h1.7v2.4c0.7-0.9,1.5-1.6,2.3-2.1c0.9-0.5,1.9-0.7,2.9-0.7c1.9,0,3.5,0.7,4.8,2
		c1.3,1.4,2,3,2,4.9c0,2-0.7,3.6-2,5s-2.9,2-4.8,2c-1.1,0-2-0.2-2.9-0.7c-0.9-0.4-1.7-1.1-2.4-2v7.1h-1.7V800.5z M508.7,801.8
		c-1.5,0-2.7,0.5-3.7,1.5c-1,1-1.5,2.3-1.5,3.9c0,1,0.2,1.9,0.7,2.7c0.5,0.8,1.1,1.4,1.9,1.9c0.8,0.5,1.7,0.7,2.7,0.7
		c0.9,0,1.8-0.2,2.6-0.7c0.8-0.5,1.5-1.1,1.9-2c0.5-0.9,0.7-1.7,0.7-2.7c0-0.9-0.2-1.8-0.7-2.7s-1.1-1.5-1.9-2
		C510.6,802.1,509.7,801.8,508.7,801.8z"/>
	<path class="st12" d="M532.2,800.5v13.3h-1.7v-2.3c-0.7,0.9-1.5,1.5-2.4,2c-0.9,0.4-1.9,0.7-2.9,0.7c-1.9,0-3.5-0.7-4.8-2
		c-1.3-1.4-2-3-2-5c0-1.9,0.7-3.5,2-4.9c1.3-1.4,3-2,4.8-2c1.1,0,2.1,0.2,3,0.7c0.9,0.5,1.7,1.2,2.3,2.1v-2.4H532.2z M525.3,801.8
		c-1,0-1.8,0.2-2.6,0.7c-0.8,0.5-1.4,1.1-1.9,2c-0.5,0.8-0.7,1.7-0.7,2.7c0,0.9,0.2,1.8,0.7,2.7s1.1,1.5,1.9,2
		c0.8,0.5,1.7,0.7,2.6,0.7c0.9,0,1.8-0.2,2.7-0.7c0.8-0.5,1.5-1.1,1.9-1.9s0.7-1.7,0.7-2.7c0-1.5-0.5-2.8-1.5-3.9
		C528.1,802.3,526.8,801.8,525.3,801.8z"/>
	<path class="st12" d="M542.7,802l-1.1,1.1c-0.9-0.9-1.8-1.3-2.7-1.3c-0.6,0-1,0.2-1.4,0.5c-0.4,0.4-0.6,0.8-0.6,1.3
		c0,0.4,0.2,0.8,0.5,1.2c0.3,0.4,1,0.9,2.1,1.4c1.3,0.7,2.1,1.3,2.6,1.9c0.4,0.6,0.7,1.3,0.7,2.1c0,1.1-0.4,2-1.1,2.8
		c-0.8,0.8-1.7,1.1-2.9,1.1c-0.8,0-1.5-0.2-2.2-0.5c-0.7-0.3-1.3-0.8-1.7-1.4l1.1-1.2c0.9,1,1.8,1.5,2.8,1.5c0.7,0,1.3-0.2,1.7-0.7
		c0.5-0.4,0.7-1,0.7-1.6c0-0.5-0.2-0.9-0.5-1.3c-0.3-0.4-1-0.8-2.2-1.4c-1.2-0.6-2-1.2-2.4-1.8c-0.4-0.6-0.6-1.3-0.6-2.1
		c0-1,0.3-1.8,1-2.5c0.7-0.7,1.6-1,2.6-1C540.2,800.2,541.5,800.8,542.7,802z"/>
	<path class="st12" d="M552.4,802l-1.1,1.1c-0.9-0.9-1.8-1.3-2.7-1.3c-0.6,0-1,0.2-1.4,0.5c-0.4,0.4-0.6,0.8-0.6,1.3
		c0,0.4,0.2,0.8,0.5,1.2c0.3,0.4,1,0.9,2.1,1.4c1.3,0.7,2.1,1.3,2.6,1.9c0.4,0.6,0.7,1.3,0.7,2.1c0,1.1-0.4,2-1.1,2.8
		c-0.8,0.8-1.7,1.1-2.9,1.1c-0.8,0-1.5-0.2-2.2-0.5c-0.7-0.3-1.3-0.8-1.7-1.4l1.1-1.2c0.9,1,1.8,1.5,2.8,1.5c0.7,0,1.3-0.2,1.8-0.7
		s0.7-1,0.7-1.6c0-0.5-0.2-0.9-0.5-1.3c-0.3-0.4-1-0.8-2.2-1.4c-1.2-0.6-2-1.2-2.4-1.8c-0.4-0.6-0.6-1.3-0.6-2.1c0-1,0.3-1.8,1-2.5
		c0.7-0.7,1.6-1,2.6-1C549.9,800.2,551.2,800.8,552.4,802z"/>
	<path class="st12" d="M556,795c0.4,0,0.7,0.1,1,0.4c0.3,0.3,0.4,0.6,0.4,1c0,0.4-0.1,0.7-0.4,1s-0.6,0.4-1,0.4
		c-0.4,0-0.7-0.1-1-0.4s-0.4-0.6-0.4-1c0-0.4,0.1-0.7,0.4-1C555.3,795.2,555.6,795,556,795z M555.2,800.5h1.7v13.3h-1.7V800.5z"/>
	<path class="st12" d="M566.7,800.2c2,0,3.7,0.7,5.1,2.2c1.2,1.4,1.8,3,1.8,4.8c0,1.9-0.6,3.5-1.9,4.9c-1.3,1.4-3,2.1-5,2.1
		c-2,0-3.7-0.7-5-2.1c-1.3-1.4-1.9-3-1.9-4.9c0-1.8,0.6-3.4,1.8-4.8C563,800.9,564.7,800.2,566.7,800.2z M566.7,801.8
		c-1.4,0-2.6,0.5-3.7,1.6c-1,1.1-1.5,2.3-1.5,3.8c0,1,0.2,1.9,0.7,2.7c0.5,0.8,1.1,1.5,1.9,1.9c0.8,0.5,1.7,0.7,2.6,0.7
		s1.8-0.2,2.6-0.7c0.8-0.5,1.4-1.1,1.9-1.9s0.7-1.7,0.7-2.7c0-1.5-0.5-2.8-1.5-3.8C569.3,802.4,568.1,801.8,566.7,801.8z"/>
	<path class="st12" d="M576.8,800.5h1.7v2.4c0.7-0.9,1.4-1.6,2.3-2c0.8-0.5,1.7-0.7,2.7-0.7c1,0,1.9,0.3,2.6,0.8
		c0.8,0.5,1.3,1.2,1.7,2c0.4,0.9,0.5,2.2,0.5,4v6.8h-1.7v-6.3c0-1.5-0.1-2.6-0.2-3.1c-0.2-0.9-0.6-1.5-1.1-2s-1.3-0.7-2.2-0.7
		c-1,0-2,0.3-2.8,1c-0.8,0.7-1.4,1.5-1.6,2.5c-0.2,0.7-0.2,1.9-0.2,3.6v4.9h-1.7V800.5z"/>
	<path class="st12" d="M592,800.5h1.7v2.4c0.7-0.9,1.4-1.6,2.3-2c0.8-0.5,1.7-0.7,2.7-0.7c1,0,1.9,0.3,2.6,0.8
		c0.8,0.5,1.3,1.2,1.7,2c0.4,0.9,0.5,2.2,0.5,4v6.8h-1.7v-6.3c0-1.5-0.1-2.6-0.2-3.1c-0.2-0.9-0.6-1.5-1.1-2s-1.3-0.7-2.2-0.7
		c-1,0-2,0.3-2.8,1c-0.8,0.7-1.4,1.5-1.6,2.5c-0.2,0.7-0.2,1.9-0.2,3.6v4.9H592V800.5z"/>
	<path class="st12" d="M618.5,809.4l1.4,0.8c-0.5,0.9-1,1.7-1.6,2.2s-1.3,1-2.1,1.3c-0.8,0.3-1.7,0.4-2.6,0.4
		c-2.2,0-3.9-0.7-5.1-2.1s-1.8-3-1.8-4.8c0-1.7,0.5-3.2,1.6-4.5c1.3-1.7,3.1-2.5,5.3-2.5c2.3,0,4.1,0.9,5.4,2.6
		c1,1.2,1.5,2.7,1.5,4.5h-12c0,1.5,0.5,2.8,1.5,3.8c1,1,2.1,1.5,3.5,1.5c0.7,0,1.3-0.1,2-0.4c0.6-0.2,1.2-0.5,1.6-0.9
		C617.5,810.9,618,810.3,618.5,809.4z M618.5,805.8c-0.2-0.9-0.6-1.6-1-2.2c-0.4-0.5-1-1-1.7-1.3c-0.7-0.3-1.5-0.5-2.3-0.5
		c-1.3,0-2.4,0.4-3.4,1.3c-0.7,0.6-1.2,1.5-1.6,2.7H618.5z M614.4,794.3h2.6l-3.6,3.8h-1.7L614.4,794.3z"/>
	<path class="st12" d="M630.2,802l-1.1,1.1c-0.9-0.9-1.8-1.3-2.7-1.3c-0.6,0-1,0.2-1.4,0.5c-0.4,0.4-0.6,0.8-0.6,1.3
		c0,0.4,0.2,0.8,0.5,1.2c0.3,0.4,1,0.9,2.1,1.4c1.3,0.7,2.1,1.3,2.6,1.9c0.4,0.6,0.7,1.3,0.7,2.1c0,1.1-0.4,2-1.1,2.8
		c-0.8,0.8-1.7,1.1-2.9,1.1c-0.8,0-1.5-0.2-2.2-0.5c-0.7-0.3-1.3-0.8-1.7-1.4l1.1-1.2c0.9,1,1.8,1.5,2.8,1.5c0.7,0,1.3-0.2,1.7-0.7
		c0.5-0.4,0.7-1,0.7-1.6c0-0.5-0.2-0.9-0.5-1.3c-0.3-0.4-1-0.8-2.2-1.4c-1.2-0.6-2-1.2-2.4-1.8c-0.4-0.6-0.6-1.3-0.6-2.1
		c0-1,0.3-1.8,1-2.5c0.7-0.7,1.6-1,2.6-1C627.7,800.2,629,800.8,630.2,802z"/>
	<path class="st12" d="M642,811.1c0.4,0,0.8,0.1,1.1,0.4s0.4,0.7,0.4,1.1c0,0.4-0.1,0.8-0.4,1.1s-0.6,0.4-1.1,0.4s-0.8-0.1-1.1-0.4
		s-0.4-0.7-0.4-1.1c0-0.4,0.1-0.8,0.4-1.1S641.5,811.1,642,811.1z M642.8,795.4v13.9H641v-13.9H642.8z"/>
</g>
<g class="st11">
	<path class="st12" d="M521.2,116.2l-1.4,1.1c-0.8-1-1.7-1.8-2.8-2.3c-1.1-0.5-2.3-0.8-3.6-0.8c-1.4,0-2.8,0.3-4,1s-2.2,1.6-2.8,2.8
		c-0.7,1.2-1,2.5-1,3.9c0,2.2,0.8,4,2.3,5.5c1.5,1.5,3.4,2.2,5.7,2.2c2.5,0,4.6-1,6.3-3l1.4,1.1c-0.9,1.1-2,2-3.4,2.6
		c-1.3,0.6-2.8,0.9-4.5,0.9c-3.1,0-5.6-1-7.4-3.1c-1.5-1.8-2.3-3.9-2.3-6.4c0-2.6,0.9-4.8,2.8-6.6c1.8-1.8,4.2-2.7,6.9-2.7
		c1.7,0,3.2,0.3,4.5,1S520.3,115,521.2,116.2z"/>
	<path class="st12" d="M523.8,117.5h1.7v1.9c0.5-0.8,1.1-1.3,1.6-1.7c0.6-0.4,1.2-0.6,1.8-0.6c0.5,0,1,0.2,1.5,0.5l-0.9,1.4
		c-0.4-0.2-0.7-0.2-0.9-0.2c-0.6,0-1.1,0.2-1.6,0.7c-0.5,0.5-0.9,1.2-1.2,2.2c-0.2,0.8-0.3,2.3-0.3,4.6v4.5h-1.7V117.5z"/>
	<path class="st12" d="M543.2,126.4l1.4,0.8c-0.5,0.9-1,1.7-1.6,2.2c-0.6,0.6-1.3,1-2.1,1.3c-0.8,0.3-1.6,0.4-2.6,0.4
		c-2.2,0-3.9-0.7-5.1-2.1c-1.2-1.4-1.8-3-1.8-4.8c0-1.7,0.5-3.2,1.6-4.5c1.3-1.7,3.1-2.5,5.3-2.5c2.3,0,4.1,0.9,5.4,2.6
		c1,1.2,1.4,2.7,1.5,4.5h-12c0,1.5,0.5,2.8,1.5,3.8s2.1,1.5,3.5,1.5c0.7,0,1.3-0.1,2-0.4c0.6-0.2,1.2-0.5,1.6-0.9
		C542.2,127.9,542.7,127.3,543.2,126.4z M543.2,122.8c-0.2-0.9-0.6-1.6-1-2.2c-0.4-0.5-1-1-1.7-1.3c-0.7-0.3-1.5-0.5-2.3-0.5
		c-1.3,0-2.4,0.4-3.4,1.3c-0.7,0.6-1.2,1.5-1.6,2.7H543.2z M539.1,111.3h2.6l-3.6,3.8h-1.7L539.1,111.3z"/>
	<path class="st12" d="M561.5,117.5v13.3h-1.7v-2.3c-0.7,0.9-1.5,1.5-2.4,2c-0.9,0.4-1.9,0.7-2.9,0.7c-1.9,0-3.5-0.7-4.8-2
		c-1.3-1.4-2-3-2-5c0-1.9,0.7-3.5,2-4.9c1.3-1.4,3-2,4.8-2c1.1,0,2.1,0.2,3,0.7c0.9,0.5,1.7,1.2,2.3,2.1v-2.4H561.5z M554.7,118.8
		c-1,0-1.8,0.2-2.6,0.7c-0.8,0.5-1.4,1.1-1.9,2c-0.5,0.8-0.7,1.7-0.7,2.7c0,0.9,0.2,1.8,0.7,2.7s1.1,1.5,1.9,2s1.7,0.7,2.6,0.7
		c0.9,0,1.8-0.2,2.7-0.7c0.8-0.5,1.5-1.1,1.9-1.9s0.7-1.7,0.7-2.7c0-1.5-0.5-2.8-1.5-3.9C557.4,119.3,556.1,118.8,554.7,118.8z"/>
	<path class="st12" d="M566.8,112.6h1.7v4.9h2.7v1.5h-2.7v11.8h-1.7V119h-2.3v-1.5h2.3V112.6z"/>
	<path class="st12" d="M574.4,112c0.4,0,0.7,0.1,1,0.4s0.4,0.6,0.4,1c0,0.4-0.1,0.7-0.4,1c-0.3,0.3-0.6,0.4-1,0.4
		c-0.4,0-0.7-0.1-1-0.4c-0.3-0.3-0.4-0.6-0.4-1c0-0.4,0.1-0.7,0.4-1S574,112,574.4,112z M573.5,117.5h1.7v13.3h-1.7V117.5z"/>
	<path class="st12" d="M585.1,117.2c2,0,3.7,0.7,5.1,2.2c1.2,1.4,1.8,3,1.8,4.8c0,1.9-0.6,3.5-1.9,4.9c-1.3,1.4-3,2.1-5,2.1
		c-2,0-3.7-0.7-5-2.1c-1.3-1.4-1.9-3-1.9-4.9c0-1.8,0.6-3.4,1.8-4.8C581.3,117.9,583,117.2,585.1,117.2z M585.1,118.8
		c-1.4,0-2.6,0.5-3.7,1.6c-1,1-1.5,2.3-1.5,3.8c0,1,0.2,1.9,0.7,2.7c0.5,0.8,1.1,1.5,1.9,1.9c0.8,0.5,1.7,0.7,2.6,0.7
		s1.8-0.2,2.6-0.7c0.8-0.5,1.4-1.1,1.9-1.9s0.7-1.7,0.7-2.7c0-1.5-0.5-2.8-1.5-3.8C587.7,119.4,586.5,118.8,585.1,118.8z"/>
	<path class="st12" d="M595.2,117.5h1.7v2.4c0.7-0.9,1.4-1.6,2.3-2c0.8-0.5,1.7-0.7,2.7-0.7c1,0,1.9,0.3,2.6,0.8
		c0.8,0.5,1.3,1.2,1.7,2c0.4,0.9,0.5,2.2,0.5,4v6.8h-1.7v-6.3c0-1.5-0.1-2.6-0.2-3.1c-0.2-0.9-0.6-1.5-1.1-2s-1.3-0.7-2.2-0.7
		c-1,0-2,0.3-2.8,1c-0.8,0.7-1.4,1.5-1.6,2.5c-0.2,0.7-0.2,1.9-0.2,3.6v4.9h-1.7V117.5z"/>
</g>
<g class="st11">
	<path class="st12" d="M524,143.4v18.4h-1.7v-2.3c-0.7,0.9-1.5,1.5-2.4,2c-0.9,0.4-1.9,0.7-2.9,0.7c-1.9,0-3.5-0.7-4.8-2
		c-1.3-1.4-2-3-2-5c0-1.9,0.7-3.5,2-4.9c1.3-1.4,3-2,4.8-2c1.1,0,2.1,0.2,3,0.7c0.9,0.5,1.7,1.2,2.3,2.1v-7.6H524z M517.1,149.8
		c-1,0-1.8,0.2-2.6,0.7c-0.8,0.5-1.4,1.1-1.9,2c-0.5,0.8-0.7,1.7-0.7,2.7c0,0.9,0.2,1.8,0.7,2.7s1.1,1.5,1.9,2s1.7,0.7,2.6,0.7
		c0.9,0,1.8-0.2,2.7-0.7c0.8-0.5,1.5-1.1,1.9-1.9s0.7-1.7,0.7-2.7c0-1.5-0.5-2.8-1.5-3.9C519.9,150.3,518.6,149.8,517.1,149.8z"/>
	<path class="st12" d="M529,149h-1.3l-0.3-5.7h1.8L529,149z"/>
	<path class="st12" d="M532.8,143.8h1.8v18h-1.8V143.8z"/>
	<path class="st12" d="M538.7,143.8h9v1.8h-7.2v5.6h7.2v1.8h-7.2v8.8h-1.8V143.8z"/>
	<path class="st12" d="M559.4,143.4c2.7,0,5,0.9,6.8,2.7c1.8,1.8,2.7,4,2.7,6.7c0,2.6-0.9,4.9-2.7,6.7c-1.8,1.8-4.1,2.7-6.7,2.7
		c-2.7,0-4.9-0.9-6.7-2.7c-1.8-1.8-2.7-4-2.7-6.6c0-1.7,0.4-3.3,1.3-4.8c0.8-1.5,2-2.6,3.4-3.5C556.1,143.8,557.7,143.4,559.4,143.4
		z M559.5,145.1c-1.3,0-2.6,0.3-3.8,1s-2.1,1.6-2.8,2.8c-0.7,1.2-1,2.5-1,3.9c0,2.1,0.7,3.9,2.2,5.4s3.3,2.2,5.3,2.2
		c1.4,0,2.7-0.3,3.9-1c1.2-0.7,2.1-1.6,2.8-2.8c0.7-1.2,1-2.5,1-3.9c0-1.4-0.3-2.7-1-3.9c-0.7-1.2-1.6-2.1-2.8-2.8
		S560.8,145.1,559.5,145.1z"/>
	<path class="st12" d="M572.7,143.8h3.6c2,0,3.3,0.1,4.1,0.2c1.1,0.2,1.9,0.8,2.6,1.6s1,1.8,1,3c0,1-0.2,1.8-0.7,2.6s-1.1,1.3-2,1.7
		s-2,0.6-3.5,0.6l6.5,8.3h-2.2l-6.5-8.3h-1v8.3h-1.8V143.8z M574.4,145.6v6.1l3.1,0c1.2,0,2.1-0.1,2.7-0.3c0.6-0.2,1-0.6,1.3-1.1
		c0.3-0.5,0.5-1.1,0.5-1.7c0-0.6-0.2-1.1-0.5-1.6s-0.8-0.8-1.3-1.1c-0.5-0.2-1.4-0.3-2.6-0.3H574.4z"/>
	<path class="st12" d="M586.9,161.8l2.6-18h0.3l7.3,14.7l7.2-14.7h0.3l2.6,18h-1.8l-1.8-12.8l-6.3,12.8h-0.5l-6.4-12.9l-1.8,12.9
		H586.9z"/>
</g>
<g class="st11">
	<path class="st12" d="M123.3,530.2l-1.4,1.1c-0.8-1-1.7-1.8-2.8-2.3c-1.1-0.5-2.3-0.8-3.6-0.8c-1.4,0-2.8,0.3-4,1s-2.2,1.6-2.8,2.8
		c-0.7,1.2-1,2.5-1,3.9c0,2.2,0.8,4,2.3,5.5c1.5,1.5,3.4,2.2,5.7,2.2c2.5,0,4.6-1,6.3-3l1.4,1.1c-0.9,1.1-2,2-3.4,2.6
		c-1.3,0.6-2.8,0.9-4.5,0.9c-3.1,0-5.6-1-7.4-3.1c-1.5-1.8-2.3-3.9-2.3-6.4c0-2.6,0.9-4.8,2.8-6.6c1.8-1.8,4.2-2.7,6.9-2.7
		c1.7,0,3.2,0.3,4.5,1C121.3,528,122.5,529,123.3,530.2z"/>
	<path class="st12" d="M137.8,540.4l1.4,0.8c-0.5,0.9-1,1.7-1.6,2.2s-1.3,1-2.1,1.3c-0.8,0.3-1.7,0.4-2.6,0.4
		c-2.2,0-3.9-0.7-5.1-2.1s-1.8-3-1.8-4.8c0-1.7,0.5-3.2,1.6-4.5c1.3-1.7,3.1-2.5,5.3-2.5c2.3,0,4.1,0.9,5.4,2.6
		c1,1.2,1.5,2.7,1.5,4.5h-12c0,1.5,0.5,2.8,1.5,3.8c1,1,2.1,1.5,3.5,1.5c0.7,0,1.3-0.1,2-0.4c0.6-0.2,1.2-0.5,1.6-0.9
		C136.8,541.9,137.3,541.3,137.8,540.4z M137.8,536.8c-0.2-0.9-0.6-1.6-1-2.2c-0.4-0.5-1-1-1.7-1.3c-0.7-0.3-1.5-0.5-2.3-0.5
		c-1.3,0-2.4,0.4-3.4,1.3c-0.7,0.6-1.2,1.5-1.6,2.7H137.8z"/>
	<path class="st12" d="M142.2,531.5h1.7v1.9c0.5-0.8,1.1-1.3,1.6-1.7c0.6-0.4,1.2-0.6,1.8-0.6c0.5,0,1,0.2,1.5,0.5l-0.9,1.4
		c-0.4-0.2-0.7-0.2-0.9-0.2c-0.6,0-1.1,0.2-1.6,0.7c-0.5,0.5-0.9,1.2-1.2,2.2c-0.2,0.8-0.3,2.3-0.3,4.6v4.5h-1.7V531.5z"/>
	<path class="st12" d="M151.9,526.6h1.7v4.9h2.7v1.5h-2.7v11.8h-1.7V533h-2.3v-1.5h2.3V526.6z"/>
	<path class="st12" d="M159.5,526c0.4,0,0.7,0.1,1,0.4c0.3,0.3,0.4,0.6,0.4,1c0,0.4-0.1,0.7-0.4,1s-0.6,0.4-1,0.4
		c-0.4,0-0.7-0.1-1-0.4s-0.4-0.6-0.4-1c0-0.4,0.1-0.7,0.4-1C158.8,526.2,159.1,526,159.5,526z M158.6,531.5h1.7v13.3h-1.7V531.5z"/>
	<path class="st12" d="M169.3,526.4v1.7c-0.6-0.3-1.2-0.4-1.6-0.4c-0.3,0-0.6,0.1-0.8,0.2s-0.4,0.3-0.4,0.5
		c-0.1,0.2-0.1,0.6-0.1,1.4l0,1.8h2.8v1.5h-2.8l0,11.8h-1.7V533h-1.7v-1.5h1.7v-2.1c0-1,0.1-1.6,0.3-2c0.2-0.4,0.5-0.7,0.9-1
		c0.4-0.2,0.9-0.4,1.5-0.4C167.9,526,168.6,526.2,169.3,526.4z"/>
	<path class="st12" d="M172.3,526c0.4,0,0.7,0.1,1,0.4c0.3,0.3,0.4,0.6,0.4,1c0,0.4-0.1,0.7-0.4,1c-0.3,0.3-0.6,0.4-1,0.4
		c-0.4,0-0.7-0.1-1-0.4s-0.4-0.6-0.4-1c0-0.4,0.1-0.7,0.4-1C171.6,526.2,171.9,526,172.3,526z M171.5,531.5h1.7v13.3h-1.7V531.5z"/>
	<path class="st12" d="M189.6,534.3l-1.4,0.8c-1.2-1.6-2.8-2.3-4.8-2.3c-1.6,0-3,0.5-4,1.6c-1.1,1-1.6,2.3-1.6,3.8
		c0,1,0.2,1.9,0.7,2.7c0.5,0.9,1.2,1.5,2,2c0.9,0.5,1.8,0.7,2.9,0.7c2,0,3.5-0.8,4.8-2.3l1.4,0.9c-0.6,1-1.5,1.7-2.6,2.2
		s-2.3,0.8-3.7,0.8c-2.1,0-3.8-0.7-5.2-2c-1.4-1.3-2.1-3-2.1-4.9c0-1.3,0.3-2.5,1-3.6c0.6-1.1,1.5-2,2.7-2.6
		c1.1-0.6,2.4-0.9,3.8-0.9c0.9,0,1.7,0.1,2.5,0.4c0.8,0.3,1.5,0.6,2.1,1.1C188.7,533.1,189.2,533.6,189.6,534.3z"/>
	<path class="st12" d="M206.1,531.5v13.3h-1.7v-2.3c-0.7,0.9-1.5,1.5-2.4,2c-0.9,0.4-1.9,0.7-2.9,0.7c-1.9,0-3.5-0.7-4.8-2
		c-1.3-1.4-2-3-2-5c0-1.9,0.7-3.5,2-4.9c1.3-1.4,3-2,4.8-2c1.1,0,2.1,0.2,3,0.7c0.9,0.5,1.7,1.2,2.3,2.1v-2.4H206.1z M199.3,532.8
		c-1,0-1.8,0.2-2.6,0.7c-0.8,0.5-1.4,1.1-1.9,2s-0.7,1.7-0.7,2.7c0,0.9,0.2,1.8,0.7,2.7s1.1,1.5,1.9,2c0.8,0.5,1.7,0.7,2.6,0.7
		c0.9,0,1.8-0.2,2.7-0.7c0.8-0.5,1.5-1.1,1.9-1.9s0.7-1.7,0.7-2.7c0-1.5-0.5-2.8-1.5-3.9C202,533.3,200.8,532.8,199.3,532.8z"/>
	<path class="st12" d="M211.5,526.6h1.7v4.9h2.7v1.5h-2.7v11.8h-1.7V533h-2.3v-1.5h2.3V526.6z"/>
	<path class="st12" d="M219,526c0.4,0,0.7,0.1,1,0.4c0.3,0.3,0.4,0.6,0.4,1c0,0.4-0.1,0.7-0.4,1c-0.3,0.3-0.6,0.4-1,0.4
		c-0.4,0-0.7-0.1-1-0.4s-0.4-0.6-0.4-1c0-0.4,0.1-0.7,0.4-1C218.3,526.2,218.7,526,219,526z M218.2,531.5h1.7v13.3h-1.7V531.5z"/>
	<path class="st12" d="M229.7,531.2c2,0,3.7,0.7,5.1,2.2c1.2,1.4,1.8,3,1.8,4.8c0,1.9-0.6,3.5-1.9,4.9c-1.3,1.4-3,2.1-5,2.1
		c-2,0-3.7-0.7-5-2.1c-1.3-1.4-1.9-3-1.9-4.9c0-1.8,0.6-3.4,1.8-4.8C226,531.9,227.7,531.2,229.7,531.2z M229.7,532.8
		c-1.4,0-2.6,0.5-3.7,1.6c-1,1.1-1.5,2.3-1.5,3.8c0,1,0.2,1.9,0.7,2.7c0.5,0.8,1.1,1.5,1.9,1.9c0.8,0.5,1.7,0.7,2.6,0.7
		s1.8-0.2,2.6-0.7c0.8-0.5,1.4-1.1,1.9-1.9c0.5-0.8,0.7-1.7,0.7-2.7c0-1.5-0.5-2.8-1.5-3.8C232.4,533.4,231.2,532.8,229.7,532.8z"/>
	<path class="st12" d="M239.8,531.5h1.7v2.4c0.7-0.9,1.4-1.6,2.3-2c0.8-0.5,1.7-0.7,2.7-0.7c1,0,1.9,0.3,2.6,0.8
		c0.8,0.5,1.3,1.2,1.7,2c0.4,0.9,0.5,2.2,0.5,4v6.8h-1.7v-6.3c0-1.5-0.1-2.6-0.2-3.1c-0.2-0.9-0.6-1.5-1.1-2s-1.3-0.7-2.2-0.7
		c-1,0-2,0.3-2.8,1c-0.8,0.7-1.4,1.5-1.6,2.5c-0.2,0.7-0.2,1.9-0.2,3.6v4.9h-1.7V531.5z"/>
	<path class="st12" d="M261.5,544.8l2.6-18h0.3l7.3,14.7l7.2-14.7h0.3l2.6,18H280l-1.8-12.8l-6.3,12.8h-0.5l-6.4-12.9l-1.8,12.9
		H261.5z"/>
	<path class="st12" d="M283.4,541.4l1.5-0.9c1.1,2,2.3,3,3.7,3c0.6,0,1.2-0.1,1.7-0.4c0.5-0.3,0.9-0.7,1.2-1.1
		c0.3-0.5,0.4-1,0.4-1.5c0-0.6-0.2-1.2-0.6-1.8c-0.6-0.8-1.6-1.8-3.1-2.9c-1.5-1.1-2.4-1.9-2.8-2.5c-0.6-0.8-1-1.8-1-2.7
		c0-0.8,0.2-1.5,0.6-2.1s0.9-1.1,1.6-1.5c0.7-0.4,1.4-0.6,2.2-0.6c0.8,0,1.6,0.2,2.4,0.6c0.7,0.4,1.5,1.2,2.3,2.3l-1.5,1.1
		c-0.7-0.9-1.3-1.5-1.7-1.8c-0.5-0.3-1-0.4-1.6-0.4c-0.7,0-1.3,0.2-1.8,0.7c-0.5,0.4-0.7,1-0.7,1.6c0,0.4,0.1,0.8,0.2,1.1
		c0.2,0.4,0.5,0.8,0.9,1.2c0.2,0.2,1,0.8,2.3,1.8c1.6,1.1,2.6,2.2,3.2,3.1c0.6,0.9,0.9,1.8,0.9,2.7c0,1.3-0.5,2.4-1.5,3.4
		c-1,1-2.2,1.4-3.6,1.4c-1.1,0-2.1-0.3-3-0.9S284.1,542.8,283.4,541.4z"/>
</g>
<g class="st11">
	<path class="st12" d="M135.1,560.9l-1.4,1.3c-1-1-2.1-1.7-3.3-2.2c-1.2-0.5-2.4-0.8-3.5-0.8c-1.4,0-2.7,0.3-4,1
		c-1.3,0.7-2.3,1.6-3,2.8c-0.7,1.2-1,2.4-1,3.8c0,1.4,0.4,2.6,1.1,3.9c0.7,1.2,1.7,2.2,3,2.9c1.3,0.7,2.7,1,4.2,1
		c1.8,0,3.4-0.5,4.7-1.6c1.3-1,2-2.4,2.3-4.1h-5.7v-1.7h7.7c0,2.8-0.8,5-2.5,6.6c-1.6,1.6-3.8,2.4-6.5,2.4c-3.3,0-5.9-1.1-7.9-3.4
		c-1.5-1.7-2.2-3.8-2.2-6c0-1.7,0.4-3.3,1.3-4.7s2-2.6,3.5-3.4s3.2-1.2,5.1-1.2c1.5,0,3,0.3,4.3,0.8
		C132.5,558.8,133.8,559.6,135.1,560.9z"/>
	<path class="st12" d="M145.6,562.2c2,0,3.7,0.7,5.1,2.2c1.2,1.4,1.8,3,1.8,4.8c0,1.9-0.6,3.5-1.9,4.9c-1.3,1.4-3,2.1-5,2.1
		c-2,0-3.7-0.7-5-2.1c-1.3-1.4-1.9-3-1.9-4.9c0-1.8,0.6-3.4,1.8-4.8C141.8,562.9,143.5,562.2,145.6,562.2z M145.6,563.8
		c-1.4,0-2.6,0.5-3.7,1.6c-1,1.1-1.5,2.3-1.5,3.8c0,1,0.2,1.9,0.7,2.7s1.1,1.5,1.9,1.9c0.8,0.5,1.7,0.7,2.6,0.7s1.8-0.2,2.6-0.7
		c0.8-0.5,1.4-1.1,1.9-1.9c0.5-0.8,0.7-1.7,0.7-2.7c0-1.5-0.5-2.8-1.5-3.8C148.2,564.4,147,563.8,145.6,563.8z"/>
	<path class="st12" d="M155.4,557.4h1.7v18.4h-1.7V557.4z"/>
	<path class="st12" d="M173.9,557.4v18.4h-1.7v-2.3c-0.7,0.9-1.5,1.5-2.4,2c-0.9,0.4-1.9,0.7-2.9,0.7c-1.9,0-3.5-0.7-4.8-2
		c-1.3-1.4-2-3-2-5c0-1.9,0.7-3.5,2-4.9c1.3-1.4,3-2,4.8-2c1.1,0,2.1,0.2,3,0.7c0.9,0.5,1.7,1.2,2.3,2.1v-7.6H173.9z M167.1,563.8
		c-1,0-1.8,0.2-2.6,0.7c-0.8,0.5-1.4,1.1-1.9,2c-0.5,0.8-0.7,1.7-0.7,2.7c0,0.9,0.2,1.8,0.7,2.7s1.1,1.5,1.9,2
		c0.8,0.5,1.7,0.7,2.6,0.7c0.9,0,1.8-0.2,2.7-0.7c0.8-0.5,1.5-1.1,1.9-1.9s0.7-1.7,0.7-2.7c0-1.5-0.5-2.8-1.5-3.9
		C169.8,564.3,168.6,563.8,167.1,563.8z"/>
	<path class="st12" d="M185,557.8h3.6c2.1,0,3.4,0.1,4.2,0.3c1,0.3,1.9,0.8,2.5,1.6c0.7,0.8,1,1.8,1,3c0,1.2-0.3,2.2-1,3
		s-1.5,1.3-2.6,1.6c-0.8,0.2-2.3,0.3-4.6,0.3h-1.3v8.3H185V557.8z M186.8,559.6v6.1l3,0c1.2,0,2.1-0.1,2.7-0.3
		c0.6-0.2,1-0.6,1.3-1.1c0.3-0.5,0.5-1.1,0.5-1.7c0-0.6-0.2-1.2-0.5-1.7c-0.3-0.5-0.8-0.9-1.3-1.1c-0.5-0.2-1.4-0.3-2.6-0.3H186.8z"
		/>
	<path class="st12" d="M212.7,562.5v13.3H211v-2.3c-0.7,0.9-1.5,1.5-2.4,2c-0.9,0.4-1.9,0.7-2.9,0.7c-1.9,0-3.5-0.7-4.8-2
		c-1.3-1.4-2-3-2-5c0-1.9,0.7-3.5,2-4.9c1.3-1.4,3-2,4.8-2c1.1,0,2.1,0.2,3,0.7c0.9,0.5,1.7,1.2,2.3,2.1v-2.4H212.7z M205.9,563.8
		c-1,0-1.8,0.2-2.6,0.7c-0.8,0.5-1.4,1.1-1.9,2c-0.5,0.8-0.7,1.7-0.7,2.7c0,0.9,0.2,1.8,0.7,2.7s1.1,1.5,1.9,2
		c0.8,0.5,1.7,0.7,2.6,0.7c0.9,0,1.8-0.2,2.7-0.7c0.8-0.5,1.5-1.1,1.9-1.9s0.7-1.7,0.7-2.7c0-1.5-0.5-2.8-1.5-3.9
		C208.6,564.3,207.4,563.8,205.9,563.8z"/>
	<path class="st12" d="M215.9,562.5h1.7v1.9c0.5-0.8,1.1-1.3,1.6-1.7c0.6-0.4,1.2-0.6,1.8-0.6c0.5,0,1,0.2,1.5,0.5l-0.9,1.4
		c-0.4-0.2-0.7-0.2-0.9-0.2c-0.6,0-1.1,0.2-1.6,0.7c-0.5,0.5-0.9,1.2-1.2,2.2c-0.2,0.8-0.3,2.3-0.3,4.6v4.5h-1.7V562.5z"/>
	<path class="st12" d="M225.6,557.6h1.7v4.9h2.7v1.5h-2.7v11.8h-1.7V564h-2.3v-1.5h2.3V557.6z"/>
	<path class="st12" d="M232.6,562.5h1.7v2.4c0.7-0.9,1.4-1.6,2.3-2c0.8-0.5,1.7-0.7,2.7-0.7c1,0,1.9,0.3,2.6,0.8
		c0.8,0.5,1.3,1.2,1.7,2c0.4,0.9,0.5,2.2,0.5,4v6.8h-1.7v-6.3c0-1.5-0.1-2.6-0.2-3.1c-0.2-0.9-0.6-1.5-1.1-2s-1.3-0.7-2.2-0.7
		c-1,0-2,0.3-2.8,1s-1.4,1.5-1.6,2.5c-0.2,0.7-0.2,1.9-0.2,3.6v4.9h-1.7V562.5z"/>
	<path class="st12" d="M259,571.4l1.4,0.8c-0.5,0.9-1,1.7-1.6,2.2s-1.3,1-2.1,1.3s-1.6,0.4-2.6,0.4c-2.2,0-3.9-0.7-5.1-2.1
		c-1.2-1.4-1.8-3-1.8-4.8c0-1.7,0.5-3.2,1.6-4.5c1.3-1.7,3.1-2.5,5.3-2.5c2.3,0,4.1,0.9,5.4,2.6c1,1.2,1.4,2.7,1.5,4.5h-12
		c0,1.5,0.5,2.8,1.5,3.8c1,1,2.1,1.5,3.5,1.5c0.7,0,1.3-0.1,2-0.4c0.6-0.2,1.2-0.5,1.6-0.9C258,572.9,258.5,572.3,259,571.4z
		 M259,567.8c-0.2-0.9-0.6-1.6-1-2.2c-0.4-0.5-1-1-1.7-1.3c-0.7-0.3-1.5-0.5-2.3-0.5c-1.3,0-2.4,0.4-3.4,1.3
		c-0.7,0.6-1.2,1.5-1.6,2.7H259z"/>
	<path class="st12" d="M263.4,562.5h1.7v1.9c0.5-0.8,1.1-1.3,1.6-1.7c0.6-0.4,1.2-0.6,1.8-0.6c0.5,0,1,0.2,1.5,0.5l-0.9,1.4
		c-0.4-0.2-0.7-0.2-0.9-0.2c-0.6,0-1.1,0.2-1.6,0.7c-0.5,0.5-0.9,1.2-1.2,2.2c-0.2,0.8-0.3,2.3-0.3,4.6v4.5h-1.7V562.5z"/>
	<path class="st12" d="M292.4,569.2l1.2,1.3c-0.8,0.7-1.5,1.3-2.2,1.8c0.5,0.4,1.1,1.1,1.9,1.9c0.6,0.6,1.2,1.2,1.6,1.7h-2.5
		l-2.4-2.5c-1.5,1.2-2.7,2-3.6,2.4c-0.9,0.4-1.9,0.5-3,0.5c-1.4,0-2.5-0.4-3.3-1.2c-0.8-0.8-1.3-1.8-1.3-3c0-0.9,0.3-1.8,0.8-2.7
		c0.6-0.9,1.7-2,3.5-3.4c-1-1.2-1.6-2.1-1.9-2.6c-0.3-0.6-0.4-1.1-0.4-1.6c0-0.9,0.3-1.6,1-2.2c0.8-0.7,1.8-1,3-1
		c0.7,0,1.4,0.2,2.1,0.5c0.6,0.3,1.1,0.7,1.4,1.2c0.3,0.5,0.5,1,0.5,1.6c0,0.6-0.2,1.2-0.6,1.9s-1.3,1.5-2.5,2.6l2.7,2.9l1.8,1.8
		C291.1,570.3,291.8,569.7,292.4,569.2z M284.3,567.3c-1.5,1.1-2.5,2.1-3,2.7c-0.5,0.7-0.7,1.3-0.7,1.9c0,0.7,0.3,1.3,0.9,1.8
		c0.6,0.5,1.3,0.8,2.1,0.8c0.6,0,1.3-0.1,1.9-0.4c1-0.4,2.1-1.1,3.3-2.1l-2.8-2.9C285.4,568.6,284.9,568,284.3,567.3z M284.5,565
		c0.9-0.7,1.5-1.3,2-2c0.3-0.5,0.5-0.9,0.5-1.2c0-0.4-0.2-0.8-0.6-1.1s-0.9-0.5-1.6-0.5c-0.6,0-1.2,0.2-1.6,0.5
		c-0.4,0.3-0.6,0.7-0.6,1.1c0,0.3,0.1,0.6,0.2,0.9C283.2,563.4,283.8,564.1,284.5,565z"/>
</g>
<g class="st11">
	<path class="st12" d="M43.7,588.8h3.6c2.1,0,3.4,0.1,4.2,0.3c1,0.3,1.9,0.8,2.5,1.6c0.7,0.8,1,1.8,1,3c0,1.2-0.3,2.2-1,3
		s-1.5,1.3-2.6,1.6c-0.8,0.2-2.3,0.3-4.6,0.3h-1.3v8.3h-1.8V588.8z M45.5,590.6v6.1l3,0c1.2,0,2.1-0.1,2.7-0.3
		c0.6-0.2,1-0.6,1.3-1.1c0.3-0.5,0.5-1.1,0.5-1.7c0-0.6-0.2-1.2-0.5-1.7c-0.3-0.5-0.8-0.9-1.3-1.1c-0.5-0.2-1.4-0.3-2.6-0.3H45.5z"
		/>
	<path class="st12" d="M71.4,593.5v13.3h-1.7v-2.3c-0.7,0.9-1.5,1.5-2.4,2c-0.9,0.4-1.9,0.7-2.9,0.7c-1.9,0-3.5-0.7-4.8-2
		c-1.3-1.4-2-3-2-5c0-1.9,0.7-3.5,2-4.9c1.3-1.4,3-2,4.8-2c1.1,0,2.1,0.2,3,0.7c0.9,0.5,1.7,1.2,2.3,2.1v-2.4H71.4z M64.6,594.8
		c-1,0-1.8,0.2-2.6,0.7c-0.8,0.5-1.4,1.1-1.9,2c-0.5,0.8-0.7,1.7-0.7,2.7c0,0.9,0.2,1.8,0.7,2.7s1.1,1.5,1.9,2
		c0.8,0.5,1.7,0.7,2.6,0.7c0.9,0,1.8-0.2,2.7-0.7c0.8-0.5,1.5-1.1,1.9-1.9s0.7-1.7,0.7-2.7c0-1.5-0.5-2.8-1.5-3.9
		C67.3,595.3,66.1,594.8,64.6,594.8z"/>
	<path class="st12" d="M74.6,593.5h1.7v1.9c0.5-0.8,1.1-1.3,1.6-1.7c0.6-0.4,1.2-0.6,1.8-0.6c0.5,0,1,0.2,1.5,0.5l-0.9,1.4
		c-0.4-0.2-0.7-0.2-0.9-0.2c-0.6,0-1.1,0.2-1.6,0.7c-0.5,0.5-0.9,1.2-1.2,2.2c-0.2,0.8-0.3,2.3-0.3,4.6v4.5h-1.7V593.5z"/>
	<path class="st12" d="M84.3,588.6H86v4.9h2.7v1.5H86v11.8h-1.7V595h-2.3v-1.5h2.3V588.6z"/>
	<path class="st12" d="M91.9,588c0.4,0,0.7,0.1,1,0.4c0.3,0.3,0.4,0.6,0.4,1c0,0.4-0.1,0.7-0.4,1c-0.3,0.3-0.6,0.4-1,0.4
		c-0.4,0-0.7-0.1-1-0.4s-0.4-0.6-0.4-1c0-0.4,0.1-0.7,0.4-1C91.1,588.2,91.5,588,91.9,588z M91,593.5h1.7v13.3H91V593.5z"/>
	<path class="st12" d="M109.2,596.3l-1.4,0.8c-1.2-1.6-2.8-2.3-4.8-2.3c-1.6,0-3,0.5-4,1.6s-1.6,2.3-1.6,3.8c0,1,0.2,1.9,0.7,2.7
		s1.2,1.5,2,2c0.9,0.5,1.8,0.7,2.9,0.7c2,0,3.5-0.8,4.8-2.3l1.4,0.9c-0.6,1-1.5,1.7-2.6,2.2c-1.1,0.5-2.3,0.8-3.7,0.8
		c-2.1,0-3.8-0.7-5.2-2c-1.4-1.3-2.1-3-2.1-4.9c0-1.3,0.3-2.5,1-3.6c0.6-1.1,1.5-2,2.7-2.6c1.1-0.6,2.4-0.9,3.8-0.9
		c0.9,0,1.7,0.1,2.5,0.4c0.8,0.3,1.5,0.6,2.1,1.1C108.3,595.1,108.8,595.6,109.2,596.3z"/>
	<path class="st12" d="M113,588c0.4,0,0.7,0.1,1,0.4c0.3,0.3,0.4,0.6,0.4,1c0,0.4-0.1,0.7-0.4,1c-0.3,0.3-0.6,0.4-1,0.4
		c-0.4,0-0.7-0.1-1-0.4s-0.4-0.6-0.4-1c0-0.4,0.1-0.7,0.4-1C112.3,588.2,112.6,588,113,588z M112.2,593.5h1.7v13.3h-1.7V593.5z"/>
	<path class="st12" d="M117.5,593.5h1.7v2.4c0.7-0.9,1.5-1.6,2.3-2.1c0.9-0.5,1.9-0.7,2.9-0.7c1.9,0,3.5,0.7,4.8,2
		c1.3,1.4,2,3,2,4.9c0,2-0.7,3.6-2,5c-1.3,1.4-2.9,2-4.8,2c-1.1,0-2-0.2-2.9-0.7s-1.7-1.1-2.4-2v7.1h-1.7V593.5z M124.3,594.8
		c-1.5,0-2.7,0.5-3.7,1.5c-1,1-1.5,2.3-1.5,3.9c0,1,0.2,1.9,0.7,2.7s1.1,1.4,1.9,1.9c0.8,0.5,1.7,0.7,2.7,0.7c0.9,0,1.8-0.2,2.6-0.7
		c0.8-0.5,1.5-1.1,1.9-2c0.5-0.9,0.7-1.7,0.7-2.7c0-0.9-0.2-1.8-0.7-2.7c-0.5-0.8-1.1-1.5-1.9-2
		C126.1,595.1,125.3,594.8,124.3,594.8z"/>
	<path class="st12" d="M147.7,593.5v13.3H146v-2.3c-0.7,0.9-1.5,1.5-2.4,2c-0.9,0.4-1.9,0.7-2.9,0.7c-1.9,0-3.5-0.7-4.8-2
		c-1.3-1.4-2-3-2-5c0-1.9,0.7-3.5,2-4.9c1.3-1.4,3-2,4.8-2c1.1,0,2.1,0.2,3,0.7c0.9,0.5,1.7,1.2,2.3,2.1v-2.4H147.7z M140.9,594.8
		c-1,0-1.8,0.2-2.6,0.7c-0.8,0.5-1.4,1.1-1.9,2c-0.5,0.8-0.7,1.7-0.7,2.7c0,0.9,0.2,1.8,0.7,2.7s1.1,1.5,1.9,2
		c0.8,0.5,1.7,0.7,2.6,0.7c0.9,0,1.8-0.2,2.7-0.7c0.8-0.5,1.5-1.1,1.9-1.9s0.7-1.7,0.7-2.7c0-1.5-0.5-2.8-1.5-3.9
		C143.6,595.3,142.4,594.8,140.9,594.8z"/>
	<path class="st12" d="M153.1,588.6h1.7v4.9h2.7v1.5h-2.7v11.8h-1.7V595h-2.3v-1.5h2.3V588.6z"/>
	<path class="st12" d="M160.6,588c0.4,0,0.7,0.1,1,0.4c0.3,0.3,0.4,0.6,0.4,1c0,0.4-0.1,0.7-0.4,1c-0.3,0.3-0.6,0.4-1,0.4
		c-0.4,0-0.7-0.1-1-0.4s-0.4-0.6-0.4-1c0-0.4,0.1-0.7,0.4-1C159.9,588.2,160.3,588,160.6,588z M159.8,593.5h1.7v13.3h-1.7V593.5z"/>
	<path class="st12" d="M171.3,593.2c2,0,3.7,0.7,5.1,2.2c1.2,1.4,1.8,3,1.8,4.8c0,1.9-0.6,3.5-1.9,4.9c-1.3,1.4-3,2.1-5,2.1
		c-2,0-3.7-0.7-5-2.1c-1.3-1.4-1.9-3-1.9-4.9c0-1.8,0.6-3.4,1.8-4.8C167.6,593.9,169.3,593.2,171.3,593.2z M171.3,594.8
		c-1.4,0-2.6,0.5-3.7,1.6c-1,1.1-1.5,2.3-1.5,3.8c0,1,0.2,1.9,0.7,2.7s1.1,1.5,1.9,1.9c0.8,0.5,1.7,0.7,2.6,0.7s1.8-0.2,2.6-0.7
		c0.8-0.5,1.4-1.1,1.9-1.9c0.5-0.8,0.7-1.7,0.7-2.7c0-1.5-0.5-2.8-1.5-3.8C174,595.4,172.7,594.8,171.3,594.8z"/>
	<path class="st12" d="M181.4,593.5h1.7v2.4c0.7-0.9,1.4-1.6,2.3-2c0.8-0.5,1.7-0.7,2.7-0.7c1,0,1.9,0.3,2.6,0.8
		c0.8,0.5,1.3,1.2,1.7,2c0.4,0.9,0.5,2.2,0.5,4v6.8h-1.7v-6.3c0-1.5-0.1-2.6-0.2-3.1c-0.2-0.9-0.6-1.5-1.1-2s-1.3-0.7-2.2-0.7
		c-1,0-2,0.3-2.8,1s-1.4,1.5-1.6,2.5c-0.2,0.7-0.2,1.9-0.2,3.6v4.9h-1.7V593.5z"/>
	<path class="st12" d="M203.9,588.8h10.3v1.8h-8.5v5.6h8.4v1.8h-8.4v7.1h8.4v1.8h-10.2V588.8z"/>
	<path class="st12" d="M217,593.5h1.7v2.4c0.7-0.9,1.4-1.6,2.3-2c0.8-0.5,1.7-0.7,2.7-0.7c1,0,1.9,0.3,2.6,0.8
		c0.8,0.5,1.3,1.2,1.7,2c0.4,0.9,0.5,2.2,0.5,4v6.8h-1.7v-6.3c0-1.5-0.1-2.6-0.2-3.1c-0.2-0.9-0.6-1.5-1.1-2s-1.3-0.7-2.2-0.7
		c-1,0-2,0.3-2.8,1s-1.4,1.5-1.6,2.5c-0.2,0.7-0.2,1.9-0.2,3.6v4.9H217V593.5z"/>
	<path class="st12" d="M231,593.5h1.8l4.5,9.7l4.4-9.7h1.8l-6.1,13.3h-0.3L231,593.5z"/>
	<path class="st12" d="M246.7,588c0.4,0,0.7,0.1,1,0.4c0.3,0.3,0.4,0.6,0.4,1c0,0.4-0.1,0.7-0.4,1c-0.3,0.3-0.6,0.4-1,0.4
		c-0.4,0-0.7-0.1-1-0.4s-0.4-0.6-0.4-1c0-0.4,0.1-0.7,0.4-1C246,588.2,246.3,588,246.7,588z M245.8,593.5h1.7v13.3h-1.7V593.5z"/>
	<path class="st12" d="M257.8,595l-1.1,1.1c-0.9-0.9-1.8-1.3-2.7-1.3c-0.6,0-1,0.2-1.4,0.5c-0.4,0.4-0.6,0.8-0.6,1.3
		c0,0.4,0.2,0.8,0.5,1.2c0.3,0.4,1,0.9,2.1,1.4c1.3,0.7,2.1,1.3,2.6,1.9c0.4,0.6,0.7,1.3,0.7,2.1c0,1.1-0.4,2-1.1,2.8
		c-0.8,0.8-1.7,1.1-2.9,1.1c-0.8,0-1.5-0.2-2.2-0.5c-0.7-0.3-1.3-0.8-1.7-1.4l1.1-1.2c0.9,1,1.8,1.5,2.8,1.5c0.7,0,1.3-0.2,1.7-0.7
		c0.5-0.4,0.7-1,0.7-1.6c0-0.5-0.2-0.9-0.5-1.3c-0.3-0.4-1-0.8-2.2-1.4c-1.2-0.6-2-1.2-2.4-1.8s-0.6-1.3-0.6-2.1c0-1,0.3-1.8,1-2.5
		c0.7-0.7,1.6-1,2.6-1C255.3,593.2,256.5,593.8,257.8,595z"/>
	<path class="st12" d="M261.4,588c0.4,0,0.7,0.1,1,0.4c0.3,0.3,0.4,0.6,0.4,1c0,0.4-0.1,0.7-0.4,1c-0.3,0.3-0.6,0.4-1,0.4
		c-0.4,0-0.7-0.1-1-0.4s-0.4-0.6-0.4-1c0-0.4,0.1-0.7,0.4-1C260.7,588.2,261,588,261.4,588z M260.5,593.5h1.7v13.3h-1.7V593.5z"/>
	<path class="st12" d="M272.1,593.2c2,0,3.7,0.7,5.1,2.2c1.2,1.4,1.8,3,1.8,4.8c0,1.9-0.6,3.5-1.9,4.9c-1.3,1.4-3,2.1-5,2.1
		c-2,0-3.7-0.7-5-2.1c-1.3-1.4-1.9-3-1.9-4.9c0-1.8,0.6-3.4,1.8-4.8C268.3,593.9,270,593.2,272.1,593.2z M272.1,594.8
		c-1.4,0-2.6,0.5-3.7,1.6c-1,1.1-1.5,2.3-1.5,3.8c0,1,0.2,1.9,0.7,2.7s1.1,1.5,1.9,1.9c0.8,0.5,1.7,0.7,2.6,0.7s1.8-0.2,2.6-0.7
		c0.8-0.5,1.4-1.1,1.9-1.9c0.5-0.8,0.7-1.7,0.7-2.7c0-1.5-0.5-2.8-1.5-3.8C274.7,595.4,273.5,594.8,272.1,594.8z"/>
	<path class="st12" d="M282.2,593.5h1.7v2.4c0.7-0.9,1.4-1.6,2.3-2c0.8-0.5,1.7-0.7,2.7-0.7c1,0,1.9,0.3,2.6,0.8
		c0.8,0.5,1.3,1.2,1.7,2c0.4,0.9,0.5,2.2,0.5,4v6.8h-1.7v-6.3c0-1.5-0.1-2.6-0.2-3.1c-0.2-0.9-0.6-1.5-1.1-2s-1.3-0.7-2.2-0.7
		c-1,0-2,0.3-2.8,1s-1.4,1.5-1.6,2.5c-0.2,0.7-0.2,1.9-0.2,3.6v4.9h-1.7V593.5z"/>
</g>
</svg>
