<?xml version="1.0" encoding="utf-8"?>
<!-- Generator: Adobe Illustrator 24.0.0, SVG Export Plug-In . SVG Version: 6.00 Build 0)  -->
<svg version="1.1" id="Calque_1" xmlns="http://www.w3.org/2000/svg" xmlns:xlink="http://www.w3.org/1999/xlink" x="0px" y="0px"
	 viewBox="0 0 728 844" style="enable-background:new 0 0 728 844;" xml:space="preserve">
<style type="text/css">
	.st0{fill:none;stroke:#F6DB65;stroke-width:10;}
	.st1{fill:none;stroke:#FBD844;stroke-width:10;}
	.st2{fill:none;stroke:#FBD329;stroke-width:10;}
	.st3{fill:none;stroke:#F4CA18;stroke-width:10;}
	.st4{fill:none;stroke:#F5C808;stroke-width:10;}
	.st5{fill:none;stroke:#E1B600;stroke-width:10;}
	.st6{fill:#F6DB65;}
	.st7{fill:#FBD844;}
	.st8{fill:#FBD329;}
	.st9{fill:#F4CA18;}
	.st10{fill:#F5C808;}
	.st11{fill:#575757;}
	.st12{font-family:'Arial-BoldMT';}
	.st13{font-size:80px;}
	.st14{font-family:'CenturyGothic';}
	.st15{font-size:25px;}
</style>
<g id="Groupe_48" transform="translate(-1110 -230)">
	<line id="Ligne_9" class="st0" x1="1474" y1="262.3" x2="1474" y2="394.3"/>
	<line id="Ligne_10" class="st1" x1="1474" y1="394.3" x2="1474" y2="526.3"/>
	<line id="Ligne_11" class="st2" x1="1474" y1="526.3" x2="1474" y2="658.3"/>
	<line id="Ligne_12" class="st3" x1="1474" y1="658.3" x2="1474" y2="790.3"/>
	<line id="Ligne_13" class="st4" x1="1474" y1="790.3" x2="1474" y2="922.3"/>
	<line id="Ligne_14" class="st5" x1="1474" y1="922.3" x2="1474" y2="1054.3"/>
	<circle id="Ellipse_1" class="st6" cx="1473.5" cy="326.8" r="21"/>
	<circle id="Ellipse_2" class="st7" cx="1473.5" cy="428.8" r="21"/>
	<circle id="Ellipse_3" class="st8" cx="1473.5" cy="592.8" r="21"/>
	<circle id="Ellipse_4" class="st9" cx="1473.5" cy="711.8" r="21"/>
	<circle id="Ellipse_5" class="st10" cx="1473.5" cy="922.8" r="21"/>
</g>
<text transform="matrix(1 0 0 1 411.5184 92.7925)" class="st11 st12 st13">2002</text>
<text transform="matrix(1 0 0 1 80.5184 227.7925)" class="st11 st12 st13">2005</text>
<text transform="matrix(1 0 0 1 411.5184 381.7925)" class="st11 st12 st13">2016</text>
<text transform="matrix(1 0 0 1 82.5184 495.7925)" class="st11 st12 st13">2019</text>
<text transform="matrix(1 0 0 1 411.5184 702.7925)" class="st11 st12 st13">2027</text>
<text transform="matrix(1 0 0 1 29.6854 260.7925)" class="st11 st14 st15">Fin de l’hexalogie Star </text>
<text transform="matrix(1 0 0 1 22.8134 291.7925)" class="st11 st14 st15">Wars, enfin… du 3ème </text>
<text transform="matrix(1 0 0 1 44.2004 322.7925)" class="st11 st14 st15">épisode, enfin…vous </text>
<text transform="matrix(1 0 0 1 57.7864 353.7925)" class="st11 st14 st15">nous avez compris !</text>
<text transform="matrix(1 0 0 1 411.5184 430.7925)" class="st11 st14 st15">Création d’Aurera</text>
<text transform="matrix(1 0 0 1 411.5184 751.7925)" class="st11 st14 st15">On ne sera plus aussi </text>
<text transform="matrix(1 0 0 1 411.5184 782.7925)" class="st11 st14 st15">jeunes, mais toujours </text>
<text transform="matrix(1 0 0 1 411.5184 813.7925)" class="st11 st14 st15">autant passionnés !</text>
<text transform="matrix(1 0 0 1 502.2565 130.7925)" class="st11 st14 st15">Création </text>
<text transform="matrix(1 0 0 1 508.7994 161.7925)" class="st11 st14 st15">d&apos;IFORM</text>
<text transform="matrix(1 0 0 1 104.4055 544.7925)" class="st11 st14 st15">Certification MS </text>
<text transform="matrix(1 0 0 1 115.5745 575.7925)" class="st11 st14 st15">Gold Partner &amp; </text>
<text transform="matrix(1 0 0 1 41.4904 606.7925)" class="st11 st14 st15">Participation Envision</text>
</svg>
